<svg width="24" height="24" viewBox="0 0 24 24" fill="none" xmlns="http://www.w3.org/2000/svg">
<path d="M12 23C14.5449 23 17.0111 22.1176 18.9783 20.5031C20.9456 18.8886 22.2922 16.642 22.7886 14.146C23.2851 11.65 22.9008 9.05905 21.7011 6.81464C20.5015 4.57023 18.5607 2.81122 16.2095 1.83733C13.8583 0.863431 11.2422 0.734908 8.80687 1.47366C6.37155 2.2124 4.26771 3.77271 2.85384 5.88873C1.43996 8.00474 0.803524 10.5455 1.05297 13.0782C1.30241 15.6108 2.4223 17.9786 4.22182 19.7782" stroke="#6DDAC0" stroke-width="2" stroke-linecap="round"/>
<path d="M17 9L12.1878 15.1596C11.5197 16.0148 11.1856 16.4425 10.7258 16.4631C10.2661 16.4838 9.89496 16.088 9.15269 15.2962L7 13" stroke="#6DDAC0" stroke-width="2" stroke-linecap="round"/>
</svg>
