<svg width="31" height="30" viewBox="0 0 31 30" fill="none" xmlns="http://www.w3.org/2000/svg">
<path d="M12 17C11.4477 17 11 17.4477 11 18C11 18.5523 11.4477 19 12 19H19C19.5523 19 20 18.5523 20 18C20 17.4477 19.5523 17 19 17H12Z" fill="#6DDAC0"/>
<path d="M11 21C11 20.4477 11.4477 20 12 20H15.5C16.0523 20 16.5 20.4477 16.5 21C16.5 21.5523 16.0523 22 15.5 22H12C11.4477 22 11 21.5523 11 21Z" fill="#6DDAC0"/>
<path fill-rule="evenodd" clip-rule="evenodd" d="M12 8C11.4477 8 11 8.44772 11 9V14C11 14.5523 11.4477 15 12 15H19C19.5523 15 20 14.5523 20 14V9C20 8.44772 19.5523 8 19 8H12ZM13 13V10H18V13H13Z" fill="#6DDAC0"/>
<path fill-rule="evenodd" clip-rule="evenodd" d="M9 4C7.89543 4 7 4.89543 7 6V24C7 25.1046 7.89544 26 9 26H23C24.1046 26 25 25.1046 25 24V6C25 4.89544 24.1046 4 23 4H9ZM9 6H23V24H9V6Z" fill="#6DDAC0"/>
</svg>
