<svg width="25" height="24" viewBox="0 0 25 24" fill="none" xmlns="http://www.w3.org/2000/svg">
<path d="M9 14C8.44772 14 8 14.4477 8 15C8 15.5523 8.44772 16 9 16H16C16.5523 16 17 15.5523 17 15C17 14.4477 16.5523 14 16 14H9Z" fill="#6DDAC0"/>
<path d="M8 18C8 17.4477 8.44772 17 9 17H12.5C13.0523 17 13.5 17.4477 13.5 18C13.5 18.5523 13.0523 19 12.5 19H9C8.44772 19 8 18.5523 8 18Z" fill="#6DDAC0"/>
<path fill-rule="evenodd" clip-rule="evenodd" d="M9 5C8.44772 5 8 5.44772 8 6V11C8 11.5523 8.44772 12 9 12H16C16.5523 12 17 11.5523 17 11V6C17 5.44772 16.5523 5 16 5H9ZM10 10V7H15V10H10Z" fill="#6DDAC0"/>
<path fill-rule="evenodd" clip-rule="evenodd" d="M6 1C4.89543 1 4 1.89543 4 3V21C4 22.1046 4.89544 23 6 23H20C21.1046 23 22 22.1046 22 21V3C22 1.89544 21.1046 1 20 1H6ZM6 3H20V21H6V3Z" fill="#6DDAC0"/>
</svg>
