<?xml version="1.0" encoding="UTF-8" standalone="no"?>
<!DOCTYPE svg PUBLIC "-//W3C//DTD SVG 1.1//EN" "http://www.w3.org/Graphics/SVG/1.1/DTD/svg11.dtd">
<svg width="100%" height="100%" viewBox="0 0 24 24" version="1.1" xmlns="http://www.w3.org/2000/svg" xmlns:xlink="http://www.w3.org/1999/xlink" xml:space="preserve" xmlns:serif="http://www.serif.com/" style="fill-rule:evenodd;clip-rule:evenodd;stroke-linejoin:round;stroke-miterlimit:2;">
    <g>
        <g>
            <rect x="0" y="0" width="24" height="24" style="fill:white;fill-opacity:0;"/>
            <path d="M20,11C19.451,11 19,11.451 19,12L19,18C19,18.549 18.549,19 18,19L6,19C5.451,19 5,18.549 5,18L5,6C5,5.451 5.451,5 6,5L12,5C12.549,5 13,4.549 13,4C13,3.451 12.549,3 12,3L6,3C4.354,3 3,4.354 3,6L3,18C3,19.646 4.354,21 6,21L18,21C19.646,21 21,19.646 21,18L21,12C21,11.451 20.549,11 20,11Z" style="fill:white;fill-rule:nonzero;"/>
            <path d="M16,5L17.58,5L11.29,11.28C11.101,11.468 10.994,11.723 10.994,11.99C10.994,12.257 11.101,12.512 11.29,12.7C11.478,12.889 11.733,12.996 12,12.996C12.267,12.996 12.522,12.889 12.71,12.7L19,6.42L19,8C19,8.549 19.451,9 20,9C20.549,9 21,8.549 21,8L21,4C21,3.451 20.549,3 20,3L16,3C15.451,3 15,3.451 15,4C15,4.549 15.451,5 16,5Z" style="fill:white;fill-rule:nonzero;"/>
        </g>
    </g>
</svg>
