<svg width="31" height="30" viewBox="0 0 31 30" fill="none" xmlns="http://www.w3.org/2000/svg">
<path d="M15.1288 0.174805C6.81085 0.174805 0.0737305 6.79901 0.0737305 14.9689C0.0737305 21.5065 4.38699 27.0505 10.3676 29.0052C11.1204 29.1444 11.3964 28.6865 11.3964 28.2938C11.3964 27.9425 11.3838 27.0116 11.3775 25.7784C7.18974 26.6704 6.30651 23.7936 6.30651 23.7936C5.62151 22.0861 4.63164 21.6295 4.63164 21.6295C3.2679 20.7124 4.73702 20.7312 4.73702 20.7312C6.2488 20.8341 7.04295 22.2555 7.04295 22.2555C8.38536 24.5175 10.5671 23.8639 11.4277 23.4862C11.5632 22.529 11.9509 21.8779 12.3812 21.5078C9.03774 21.1377 5.52365 19.8655 5.52365 14.1973C5.52365 12.5827 6.10703 11.2628 7.07306 10.2278C6.90369 9.85393 6.39559 8.34968 7.20479 6.31224C7.20479 6.31224 8.46565 5.91579 11.3449 7.82903C12.5493 7.50033 13.829 7.33723 15.1087 7.3297C16.3884 7.33723 17.668 7.50033 18.8724 7.82903C21.7329 5.91579 22.9937 6.31224 22.9937 6.31224C23.803 8.34968 23.2948 9.85393 23.1443 10.2278C24.1041 11.2628 24.6874 12.5827 24.6874 14.1973C24.6874 19.8806 21.1683 21.1314 17.8186 21.4952C18.3455 21.9393 18.8348 22.8464 18.8348 24.2327C18.8348 26.2125 18.816 27.8033 18.816 28.2838C18.816 28.6715 19.0794 29.1344 19.851 28.9864C25.8743 27.0443 30.1838 21.4965 30.1838 14.9689C30.1838 6.79901 23.4429 0.174805 15.1288 0.174805Z" fill="#6DDAC0"/>
</svg>
