<svg width="146" height="28" viewBox="0 0 146 28" fill="none" xmlns="http://www.w3.org/2000/svg">
<path d="M1.53857 0.138581C0.855219 -0.254528 0 0.235483 0 1.02013V7.38139C0 8.1084 0.389839 8.78028 1.02297 9.14451L17.5895 18.6747C19.7072 19.893 22.3189 19.893 24.4367 18.6747L41.0032 9.14451C41.6363 8.78028 42.0262 8.1084 42.0262 7.38139V1.02013C42.0262 0.235483 41.1709 -0.25453 40.4876 0.138581L23.4096 9.96302C21.9272 10.8158 20.099 10.8158 18.6165 9.96302L1.53857 0.138581Z" fill="#6DDAC0"/>
<path d="M1.54097 12.3687C0.857625 11.9732 0 12.463 0 13.2489V19.3712C0 20.0962 0.387751 20.7666 1.01818 21.1315L12.1261 27.5615C12.8094 27.957 13.6671 27.4672 13.6671 26.6813V20.559C13.6671 19.834 13.2793 19.1636 12.6489 18.7987L1.54097 12.3687Z" fill="#6DDAC0"/>
<path d="M40.4854 12.3687C41.1688 11.9732 42.0264 12.463 42.0264 13.2489V19.3712C42.0264 20.0962 41.6386 20.7666 41.0083 21.1315L29.9004 27.5615C29.217 27.957 28.3594 27.4672 28.3594 26.6813V20.559C28.3594 19.834 28.7471 19.1636 29.3776 18.7987L40.4854 12.3687Z" fill="#6DDAC0"/>
<path d="M52.96 25.5674C52.96 25.9424 53.2659 26.2464 53.6434 26.2464H56.6159C56.9933 26.2464 57.2993 25.9424 57.2993 25.5674V13.1217C57.2993 12.7614 57.7897 12.6492 57.9482 12.9733L64.2533 25.8642C64.3677 26.0981 64.6064 26.2464 64.8679 26.2464H65.6527C65.9143 26.2464 66.1529 26.0981 66.2673 25.8642L72.5726 12.9733C72.7311 12.6492 73.2213 12.7614 73.2213 13.1217V25.5674C73.2213 25.9424 73.5272 26.2464 73.9047 26.2464H76.8775C77.2551 26.2464 77.561 25.9424 77.561 25.5674V2.479C77.561 2.10396 77.2551 1.79993 76.8775 1.79993H73.815C73.5564 1.79993 73.3193 1.94571 73.2039 2.17633L65.5662 17.4193C65.4405 17.6702 65.0802 17.6702 64.9545 17.4193L57.317 2.17633C57.2015 1.94571 56.9645 1.79993 56.7053 1.79993H53.6434C53.2659 1.79993 52.96 2.10396 52.96 2.479V25.5674Z" fill="#1A2121"/>
<path d="M82.6978 4.686C82.6978 5.06104 83.0037 5.36506 83.3812 5.36506H86.6606C87.0381 5.36506 87.344 5.06104 87.344 4.686V1.96972C87.344 1.59468 87.0381 1.29065 86.6606 1.29065H83.3812C83.0037 1.29065 82.6978 1.59468 82.6978 1.96972V4.686ZM82.6978 25.5674C82.6978 25.9424 83.0037 26.2464 83.3812 26.2464H86.6606C87.0381 26.2464 87.344 25.9424 87.344 25.5674V8.59066C87.344 8.21558 87.0381 7.91155 86.6606 7.91155H83.3812C83.0037 7.91155 82.6978 8.21558 82.6978 8.59066V25.5674Z" fill="#1A2121"/>
<path d="M92.4316 25.5674C92.4316 25.9424 92.7375 26.2464 93.1151 26.2464H96.4633C96.8408 26.2464 97.1467 25.9424 97.1467 25.5674V16.9432C97.1467 15.8001 97.2719 14.8833 97.5229 14.193C97.7843 13.5026 98.1145 12.982 98.5136 12.6311C98.912 12.2689 99.3395 12.0256 99.7949 11.9011C100.25 11.7766 100.677 11.7144 101.076 11.7144C102.067 11.7144 102.83 11.935 103.365 12.3764C103.912 12.8178 104.305 13.3667 104.544 14.0232C104.783 14.6796 104.926 15.3361 104.971 15.9925C105.017 16.6376 105.04 17.1695 105.04 17.5883V25.5674C105.04 25.9424 105.346 26.2464 105.723 26.2464H109.071C109.449 26.2464 109.755 25.9424 109.755 25.5674V15.9585C109.755 15.6529 109.732 15.1663 109.686 14.4986C109.641 13.8308 109.509 13.0951 109.293 12.2915C109.077 11.4767 108.713 10.6958 108.2 9.9488C107.699 9.20177 106.993 8.58495 106.081 8.09829C105.17 7.61162 103.991 7.36829 102.545 7.36829C101.212 7.36829 100.051 7.58902 99.06 8.03043C98.3613 8.34183 97.7412 8.72657 97.201 9.18453C96.9632 9.38601 96.5662 9.22721 96.5662 8.91672V8.59065C96.5662 8.21557 96.2603 7.91154 95.8828 7.91154H93.1151C92.7375 7.91154 92.4316 8.21557 92.4316 8.59065V25.5674Z" fill="#1A2121"/>
<path d="M124.699 26.3422C125.024 26.2915 125.258 26.0097 125.258 25.6829V23.187C125.258 22.7757 124.893 22.4602 124.481 22.4987C123.688 22.5729 122.951 22.5885 122.269 22.5456C121.368 22.489 120.714 22.1381 120.304 21.493C120.088 21.1535 119.968 20.7008 119.945 20.1349C119.933 19.5577 119.928 18.9126 119.928 18.1995V12.1558C119.928 11.7807 120.234 11.4767 120.611 11.4767H124.575C124.952 11.4767 125.258 11.1727 125.258 10.7977V8.59071C125.258 8.21563 124.952 7.9116 124.575 7.9116H120.611C120.234 7.9116 119.928 7.60758 119.928 7.23256V3.49767C119.928 3.12263 119.622 2.8186 119.244 2.8186H115.964C115.587 2.8186 115.281 3.12263 115.281 3.49767V7.23256C115.281 7.60758 114.975 7.9116 114.598 7.9116H112.821C112.444 7.9116 112.138 8.21563 112.138 8.59071V10.7977C112.138 11.1727 112.444 11.4767 112.821 11.4767H114.598C114.975 11.4767 115.281 11.7807 115.281 12.1558V18.4712C115.281 19.569 115.293 20.5537 115.316 21.4251C115.338 22.2853 115.577 23.1341 116.033 23.9716C116.534 24.8657 117.263 25.5165 118.22 25.924C119.187 26.32 120.281 26.5294 121.5 26.5521C122.55 26.581 123.616 26.5111 124.699 26.3422Z" fill="#1A2121"/>
<path d="M136.638 26.7558C138.483 26.7558 140.106 26.3483 141.507 25.5335C142.919 24.7073 144.019 23.5698 144.804 22.1212C145.602 20.6612 146 18.9805 146 17.0791C146 15.189 145.607 13.5196 144.822 12.0709C144.035 10.6109 142.936 9.46783 141.524 8.64161C140.123 7.81545 138.494 7.40234 136.638 7.40234C134.816 7.40234 133.204 7.80975 131.803 8.62464C130.402 9.43953 129.303 10.577 128.506 12.037C127.709 13.4857 127.311 15.1663 127.311 17.0791C127.311 18.9692 127.698 20.6442 128.472 22.1042C129.258 23.5529 130.352 24.6903 131.752 25.5165C133.153 26.3427 134.782 26.7558 136.638 26.7558ZM136.638 22.4437C135.192 22.4437 134.093 21.9627 133.341 21.0007C132.601 20.0274 132.231 18.7201 132.231 17.0791C132.231 15.4832 132.583 14.193 133.29 13.2083C134.007 12.2124 135.123 11.7144 136.638 11.7144C138.107 11.7144 139.212 12.2011 139.952 13.1744C140.704 14.1478 141.08 15.4493 141.08 17.0791C141.08 18.6523 140.71 19.9425 139.969 20.9497C139.24 21.9457 138.13 22.4437 136.638 22.4437Z" fill="#1A2121"/>
</svg>
