<svg width="24" height="24" viewBox="0 0 24 24" fill="none" xmlns="http://www.w3.org/2000/svg">
<path fill-rule="evenodd" clip-rule="evenodd" d="M11.4326 1.17661C11.7743 0.94113 12.2259 0.94113 12.5676 1.17661L22.5676 8.06856C22.8651 8.27361 23.017 8.61106 22.9987 8.94725C22.9996 8.96476 23.0001 8.98235 23.0001 9.00001V19.9091C23.0001 20.9802 22.1848 22 21.0001 22H3.00009C1.81541 22 1.00009 20.9802 1.00009 19.9091V9.00001C1.00009 8.98234 1.00056 8.96475 1.00148 8.94724C0.983185 8.61106 1.1351 8.27361 1.43262 8.06856L11.4326 1.17661ZM12.0001 3.21449L20.3972 9.00172L18.0001 10.9194V9C18.0001 8.44772 17.5524 8 17.0001 8H7.00009C6.44781 8 6.00009 8.44772 6.00009 9V10.9194L3.60301 9.00172L12.0001 3.21449ZM8.00009 12.5194L12.0001 15.7194L16.0001 12.5194V10H8.00009V12.5194ZM3.00009 11.0806V19.9091C3.00009 19.9558 3.0152 19.9856 3.02618 20H20.974C20.985 19.9856 21.0001 19.9558 21.0001 19.9091V11.0806L12.6248 17.7809C12.2596 18.0731 11.7406 18.0731 11.3754 17.7809L3.00009 11.0806Z" fill="black" fill-opacity="0.65"/>
</svg>
