<svg width="74" height="75" viewBox="0 0 74 75" fill="none" xmlns="http://www.w3.org/2000/svg">
<circle cx="37" cy="37.5" r="37" fill="white"/>
<path d="M31.9091 25C31.2062 25 30.6364 25.5596 30.6364 26.25C30.6364 26.9404 31.2062 27.5 31.9091 27.5H42.0909C42.7938 27.5 43.3636 26.9404 43.3636 26.25C43.3636 25.5596 42.7938 25 42.0909 25H31.9091Z" fill="#6DDAC0"/>
<path d="M28.091 30C28.091 29.3096 28.6608 28.75 29.3637 28.75H44.6363C45.3392 28.75 45.909 29.3096 45.909 30C45.909 30.6904 45.3392 31.25 44.6363 31.25H29.3637C28.6608 31.25 28.091 30.6904 28.091 30Z" fill="#6DDAC0"/>
<path fill-rule="evenodd" clip-rule="evenodd" d="M23.0439 33.4237C23.0955 33.2355 23.1908 33.0649 23.3184 32.923L23.3195 32.9218C23.4194 32.8106 23.5359 32.7207 23.6625 32.6528C23.8353 32.5599 24.0324 32.5052 24.2421 32.5004L24.2728 32.5H49.7262C49.9446 32.5 50.1511 32.554 50.3307 32.6492C50.4604 32.7177 50.5796 32.8093 50.6816 32.923C50.8068 33.0623 50.9009 33.2292 50.9532 33.4133C50.9858 33.528 51.0012 33.6457 50.9999 33.7629V48.75C50.9999 49.4404 50.4301 50 49.7272 50H24.2728C23.5699 50 23.0001 49.4404 23.0001 48.75V33.7625C22.9988 33.649 23.0133 33.535 23.0439 33.4237ZM48.4545 36.2501L37.7636 44.1251C37.3111 44.4584 36.6889 44.4584 36.2364 44.1251L25.5455 36.2501V47.5H48.4545V36.2501ZM45.9091 35H28.0909L37 41.5626L45.9091 35Z" fill="#6DDAC0"/>
</svg>
