<svg width="31" height="25" viewBox="0 0 31 25" fill="none" xmlns="http://www.w3.org/2000/svg">
<path d="M28.0151 3.51975L30.4177 1.22135V0.718262H22.0947L16.1631 15.4822L9.41465 0.718262H0.687756V1.22135L3.49426 4.59995C3.76776 4.84961 3.91079 5.21469 3.8744 5.58229V18.8596C3.96097 19.3376 3.8054 19.8294 3.46917 20.1769L0.307617 24.0084V24.5052H9.27163V24.0021L6.11007 20.1769C5.76757 19.8281 5.60573 19.3451 5.67473 18.8596V7.37509L13.5435 24.5115H14.4581L21.2241 7.37509V21.0262C21.2241 21.3863 21.2241 21.4603 20.9882 21.6962L18.5543 24.051V24.5554H30.3625V24.0523L28.0164 21.7551C27.8106 21.5996 27.704 21.3386 27.7479 21.0852V4.1897C27.704 3.93502 27.8094 3.67406 28.0151 3.51975Z" fill="#6DDAC0"/>
</svg>
