<svg width="42" height="39" viewBox="0 0 42 39" fill="none" xmlns="http://www.w3.org/2000/svg">
<path d="M38.8209 1L23.2898 12.5352L26.1619 5.72957L38.8209 1Z" fill="#E2761B" stroke="#E2761B" stroke-linecap="round" stroke-linejoin="round"/>
<path d="M2.96704 1L18.3733 12.6444L15.6417 5.72957L2.96704 1Z" fill="#E4761B" stroke="#E4761B" stroke-linecap="round" stroke-linejoin="round"/>
<path d="M33.2333 27.7384L29.0969 34.0757L37.9473 36.5107L40.4916 27.8789L33.2333 27.7384Z" fill="#E4761B" stroke="#E4761B" stroke-linecap="round" stroke-linejoin="round"/>
<path d="M1.32812 27.8789L3.85681 36.5107L12.7072 34.0757L8.57077 27.7384L1.32812 27.8789Z" fill="#E4761B" stroke="#E4761B" stroke-linecap="round" stroke-linejoin="round"/>
<path d="M12.2077 17.0306L9.74146 20.7612L18.5294 21.1514L18.2172 11.7079L12.2077 17.0306Z" fill="#E4761B" stroke="#E4761B" stroke-linecap="round" stroke-linejoin="round"/>
<path d="M29.5805 17.0306L23.493 11.5986L23.29 21.1514L32.0624 20.7612L29.5805 17.0306Z" fill="#E4761B" stroke="#E4761B" stroke-linecap="round" stroke-linejoin="round"/>
<path d="M12.7073 34.0757L17.9832 31.5002L13.4253 27.9413L12.7073 34.0757Z" fill="#E4761B" stroke="#E4761B" stroke-linecap="round" stroke-linejoin="round"/>
<path d="M23.8054 31.5002L29.0969 34.0757L28.3633 27.9413L23.8054 31.5002Z" fill="#E4761B" stroke="#E4761B" stroke-linecap="round" stroke-linejoin="round"/>
<path d="M29.0972 34.0758L23.8057 31.5002L24.2271 34.9499L24.1803 36.4015L29.0972 34.0758Z" fill="#D7C1B3" stroke="#D7C1B3" stroke-linecap="round" stroke-linejoin="round"/>
<path d="M12.7068 34.0758L17.6237 36.4015L17.5925 34.9499L17.9827 31.5002L12.7068 34.0758Z" fill="#D7C1B3" stroke="#D7C1B3" stroke-linecap="round" stroke-linejoin="round"/>
<path d="M17.7018 25.6624L13.3 24.3668L16.4063 22.9464L17.7018 25.6624Z" fill="#233447" stroke="#233447" stroke-linecap="round" stroke-linejoin="round"/>
<path d="M24.0857 25.6624L25.3813 22.9464L28.5031 24.3668L24.0857 25.6624Z" fill="#233447" stroke="#233447" stroke-linecap="round" stroke-linejoin="round"/>
<path d="M12.7067 34.0758L13.456 27.7385L8.57031 27.879L12.7067 34.0758Z" fill="#CD6116" stroke="#CD6116" stroke-linecap="round" stroke-linejoin="round"/>
<path d="M28.3469 27.7385L29.0962 34.0758L33.2326 27.879L28.3469 27.7385Z" fill="#CD6116" stroke="#CD6116" stroke-linecap="round" stroke-linejoin="round"/>
<path d="M32.0621 20.7612L23.2898 21.1515L24.1015 25.6625L25.397 22.9465L28.5189 24.3669L32.0621 20.7612Z" fill="#CD6116" stroke="#CD6116" stroke-linecap="round" stroke-linejoin="round"/>
<path d="M13.2999 24.3669L16.4217 22.9465L17.7016 25.6625L18.5289 21.1515L9.74097 20.7612L13.2999 24.3669Z" fill="#CD6116" stroke="#CD6116" stroke-linecap="round" stroke-linejoin="round"/>
<path d="M9.74121 20.7611L13.425 27.9413L13.3001 24.3668L9.74121 20.7611Z" fill="#E4751F" stroke="#E4751F" stroke-linecap="round" stroke-linejoin="round"/>
<path d="M28.5189 24.3668L28.3628 27.9413L32.0622 20.7611L28.5189 24.3668Z" fill="#E4751F" stroke="#E4751F" stroke-linecap="round" stroke-linejoin="round"/>
<path d="M18.5292 21.1515L17.7019 25.6625L18.7321 30.9853L18.9662 23.9767L18.5292 21.1515Z" fill="#E4751F" stroke="#E4751F" stroke-linecap="round" stroke-linejoin="round"/>
<path d="M23.2899 21.1515L22.8684 23.9611L23.0557 30.9853L24.1015 25.6625L23.2899 21.1515Z" fill="#E4751F" stroke="#E4751F" stroke-linecap="round" stroke-linejoin="round"/>
<path d="M24.1012 25.6625L23.0554 30.9852L23.8047 31.5003L28.3625 27.9414L28.5186 24.3669L24.1012 25.6625Z" fill="#F6851B" stroke="#F6851B" stroke-linecap="round" stroke-linejoin="round"/>
<path d="M13.3 24.3669L13.4249 27.9414L17.9828 31.5003L18.732 30.9852L17.7018 25.6625L13.3 24.3669Z" fill="#F6851B" stroke="#F6851B" stroke-linecap="round" stroke-linejoin="round"/>
<path d="M24.1795 36.4016L24.2263 34.9499L23.8361 34.6065H17.9515L17.5925 34.9499L17.6237 36.4016L12.7068 34.0758L14.4238 35.4806L17.9046 37.9H23.8829L27.3794 35.4806L29.0964 34.0758L24.1795 36.4016Z" fill="#C0AD9E" stroke="#C0AD9E" stroke-linecap="round" stroke-linejoin="round"/>
<path d="M23.805 31.5003L23.0557 30.9852H18.732L17.9828 31.5003L17.5925 34.95L17.9515 34.6066H23.8362L24.2264 34.95L23.805 31.5003Z" fill="#161616" stroke="#161616" stroke-linecap="round" stroke-linejoin="round"/>
<path d="M39.4768 13.2844L40.8035 6.91587L38.8212 1L23.8052 12.1449L29.5806 17.0306L37.7441 19.4188L39.5548 17.3116L38.7743 16.7496L40.0231 15.6102L39.0553 14.8609L40.304 13.9088L39.4768 13.2844Z" fill="#763D16" stroke="#763D16" stroke-linecap="round" stroke-linejoin="round"/>
<path d="M1 6.91587L2.32678 13.2844L1.48388 13.9088L2.73262 14.8609L1.78046 15.6102L3.02919 16.7496L2.24873 17.3116L4.04378 19.4188L12.2074 17.0306L17.9828 12.1449L2.96675 1L1 6.91587Z" fill="#763D16" stroke="#763D16" stroke-linecap="round" stroke-linejoin="round"/>
<path d="M37.7439 19.4188L29.5803 17.0306L32.0622 20.7612L28.3628 27.9414L33.2328 27.879H40.4911L37.7439 19.4188Z" fill="#F6851B" stroke="#F6851B" stroke-linecap="round" stroke-linejoin="round"/>
<path d="M12.207 17.0306L4.04338 19.4188L1.32739 27.879H8.57004L13.4245 27.9414L9.74072 20.7612L12.207 17.0306Z" fill="#F6851B" stroke="#F6851B" stroke-linecap="round" stroke-linejoin="round"/>
<path d="M23.2896 21.1513L23.8047 12.1449L26.1773 5.72949H15.6411L17.9825 12.1449L18.5288 21.1513L18.7161 23.9922L18.7317 30.9851H23.0555L23.0867 23.9922L23.2896 21.1513Z" fill="#F6851B" stroke="#F6851B" stroke-linecap="round" stroke-linejoin="round"/>
</svg>
