<svg width="31" height="30" viewBox="0 0 31 30" fill="none" xmlns="http://www.w3.org/2000/svg">
<path fill-rule="evenodd" clip-rule="evenodd" d="M1.75 2.5C1.75 1.80964 2.30964 1.25 3 1.25H15.5C16.1304 1.25 16.6622 1.71942 16.7403 2.34496L17.2285 6.25H28C28.6904 6.25 29.25 6.80964 29.25 7.5V27.5C29.25 28.1904 28.6904 28.75 28 28.75H13.625C12.9946 28.75 12.4628 28.2806 12.3847 27.655L11.8965 23.75H3C2.30964 23.75 1.75 23.1904 1.75 22.5V2.5ZM14.416 23.75L14.5196 24.5793L15.2453 23.75H14.416ZM16.584 21.25H4.25V3.75H14.3965L16.584 21.25ZM16.3797 26.25H26.75V8.75H17.541L17.8535 11.25H22.375C23.0654 11.25 23.625 11.8096 23.625 12.5C23.625 13.1904 23.0654 13.75 22.375 13.75H18.166L18.4785 16.25H22.375C23.0654 16.25 23.625 16.8096 23.625 17.5C23.625 18.1904 23.0654 18.75 22.375 18.75H18.791L19.2403 22.345C19.2846 22.6988 19.1756 23.0547 18.9407 23.3231L16.3797 26.25ZM5.5 7.5C5.5 6.80964 6.05964 6.25 6.75 6.25H11.125C11.8154 6.25 12.375 6.80964 12.375 7.5C12.375 8.19036 11.8154 8.75 11.125 8.75H6.75C6.05964 8.75 5.5 8.19036 5.5 7.5ZM5.5 12.5C5.5 11.8096 6.05964 11.25 6.75 11.25H11.75C12.4404 11.25 13 11.8096 13 12.5C13 13.1904 12.4404 13.75 11.75 13.75H6.75C6.05964 13.75 5.5 13.1904 5.5 12.5ZM5.5 17.5C5.5 16.8096 6.05964 16.25 6.75 16.25H12.375C13.0654 16.25 13.625 16.8096 13.625 17.5C13.625 18.1904 13.0654 18.75 12.375 18.75H6.75C6.05964 18.75 5.5 18.1904 5.5 17.5Z" fill="white" fill-opacity="0.65"/>
</svg>
