<svg width="31" height="30" viewBox="0 0 31 30" fill="none" xmlns="http://www.w3.org/2000/svg">
<path fill-rule="evenodd" clip-rule="evenodd" d="M11.5 10.5C11.5 9.94772 11.9477 9.5 12.5 9.5H17.5C18.0523 9.5 18.5 9.94772 18.5 10.5V15.5C18.5 16.0523 18.0523 16.5 17.5 16.5H13.5V19.5C13.5 20.0523 13.0523 20.5 12.5 20.5C11.9477 20.5 11.5 20.0523 11.5 19.5V10.5ZM13.5 14.5H16.5V11.5H13.5V14.5Z" fill="#6DDAC0"/>
<path fill-rule="evenodd" clip-rule="evenodd" d="M5 7.5C5 6.11929 6.11929 5 7.5 5H22.5C23.8807 5 25 6.11929 25 7.5V22.5C25 23.8807 23.8807 25 22.5 25H7.5C6.11929 25 5 23.8807 5 22.5V7.5ZM7.5 7C7.22386 7 7 7.22386 7 7.5V22.5C7 22.7761 7.22386 23 7.5 23H22.5C22.7761 23 23 22.7761 23 22.5V7.5C23 7.22386 22.7761 7 22.5 7H7.5Z" fill="#6DDAC0"/>
</svg>
