<svg width="25" height="25" viewBox="0 0 25 25" fill="none" xmlns="http://www.w3.org/2000/svg">
<path d="M11.6489 21.8478L11.5075 20.8578L11.6489 21.8478ZM7.77285 21.7049L8.42805 20.9494L7.77285 21.7049ZM20.3496 19.8637L21.1051 20.5189L20.3496 19.8637ZM20.3496 5.13628L19.5942 5.79148L20.3496 5.13628ZM11.5075 4.14219L15.7904 4.75403L16.0732 2.77413L11.7904 2.16229L11.5075 4.14219ZM20.0833 9.70377V15.2962H22.0833V9.70377H20.0833ZM15.7904 20.246L11.5075 20.8578L11.7904 22.8377L16.0732 22.2259L15.7904 20.246ZM8.08325 7.63193V7.11204H6.08325V7.63193H8.08325ZM8.08325 17.888V17.566H6.08325V17.888H8.08325ZM11.5075 20.8578C10.4154 21.0138 9.70134 21.1135 9.17107 21.1144C8.6691 21.1153 8.51373 21.0237 8.42805 20.9494L7.11765 22.4603C7.72156 22.9841 8.44208 23.1157 9.17466 23.1144C9.87896 23.1131 10.7581 22.9852 11.7904 22.8377L11.5075 20.8578ZM6.08325 17.888C6.08325 18.9307 6.0809 19.8191 6.17925 20.5165C6.28155 21.2419 6.51373 21.9366 7.11765 22.4603L8.42805 20.9494C8.34237 20.8751 8.22975 20.7343 8.15965 20.2372C8.08561 19.7121 8.08325 18.9912 8.08325 17.888H6.08325ZM20.0833 15.2962C20.0833 16.5628 20.0814 17.419 19.9994 18.0678C19.921 18.6887 19.7822 18.9918 19.5942 19.2085L21.1051 20.5189C21.6507 19.8898 21.8787 19.1496 21.9837 18.3185C22.0851 17.5153 22.0833 16.5107 22.0833 15.2962H20.0833ZM16.0732 22.2259C17.2755 22.0541 18.2703 21.9139 19.051 21.6999C19.8589 21.4784 20.5594 21.1481 21.1051 20.5189L19.5942 19.2085C19.4062 19.4253 19.1258 19.6056 18.5223 19.771C17.8915 19.9439 17.0442 20.0669 15.7904 20.246L16.0732 22.2259ZM15.7904 4.75403C17.0442 4.93315 17.8915 5.05607 18.5223 5.22897C19.1258 5.39442 19.4062 5.57473 19.5942 5.79148L21.1051 4.48108C20.5594 3.85194 19.8589 3.52159 19.051 3.30012C18.2703 3.08611 17.2755 2.94588 16.0732 2.77413L15.7904 4.75403ZM22.0833 9.70377C22.0833 8.4893 22.0851 7.48468 21.9837 6.68152C21.8787 5.85041 21.6507 5.11022 21.1051 4.48108L19.5942 5.79148C19.7822 6.00824 19.921 6.31125 19.9994 6.93216C20.0814 7.581 20.0833 8.43718 20.0833 9.70377H22.0833ZM11.7904 2.16229C10.7581 2.01483 9.87896 1.88686 9.17466 1.88559C8.44208 1.88428 7.72156 2.01588 7.11765 2.53966L8.42805 4.05057C8.51373 3.97626 8.6691 3.88469 9.17107 3.88559C9.70134 3.88654 10.4154 3.98617 11.5075 4.14219L11.7904 2.16229ZM8.08325 7.11204C8.08325 6.00883 8.08561 5.28786 8.15965 4.76279C8.22975 4.26573 8.34237 4.12487 8.42805 4.05057L7.11765 2.53966C6.51373 3.06343 6.28155 3.75809 6.17925 4.4835C6.0809 5.1809 6.08325 6.06935 6.08325 7.11204H8.08325Z" fill="#6ddac0"/>
<path d="M16.0833 12.5L16.8641 11.8753L17.3639 12.5L16.8641 13.1247L16.0833 12.5ZM4.08325 13.5C3.53097 13.5 3.08325 13.0523 3.08325 12.5C3.08325 11.9477 3.53097 11.5 4.08325 11.5V13.5ZM12.8641 6.8753L16.8641 11.8753L15.3024 13.1247L11.3024 8.1247L12.8641 6.8753ZM16.8641 13.1247L12.8641 18.1247L11.3024 16.8753L15.3024 11.8753L16.8641 13.1247ZM16.0833 13.5H4.08325V11.5H16.0833V13.5Z" fill="#6ddac0"/>
</svg>
