<svg width="29" height="23" viewBox="0 0 29 23" fill="none" xmlns="http://www.w3.org/2000/svg">
<path d="M28.4368 0.3466C27.2354 1.19404 25.9052 1.8422 24.4974 2.26612C23.7418 1.39733 22.7376 0.781555 21.6207 0.502076C20.5037 0.222597 19.3279 0.292898 18.2522 0.703471C17.1765 1.11404 16.2528 1.84508 15.6061 2.7977C14.9595 3.75033 14.6209 4.87858 14.6364 6.02987V7.28446C12.4316 7.34162 10.2469 6.85264 8.27689 5.86106C6.30686 4.86948 4.61264 3.40608 3.34511 1.60119C3.34511 1.60119 -1.67323 12.8925 9.61803 17.9108C7.03425 19.6647 3.95629 20.5441 0.835938 20.42C12.1272 26.6929 25.9276 20.42 25.9276 5.99223C25.9265 5.64277 25.8929 5.29418 25.8273 4.95093C27.1077 3.68818 28.0113 2.09388 28.4368 0.3466Z" fill="#6DDAC0"/>
</svg>
