<svg width="15" height="16" viewBox="0 0 15 16" fill="none" xmlns="http://www.w3.org/2000/svg">
<path d="M4.37504 3.75004C4.37504 1.79403 5.9607 0.208374 7.91671 0.208374C9.87272 0.208374 11.4584 1.79403 11.4584 3.75004C11.4584 5.70605 9.87272 7.29171 7.91671 7.29171C5.9607 7.29171 4.37504 5.70605 4.37504 3.75004Z" fill="#F3F8F6"/>
<path d="M7.91671 8.00004C4.0047 8.00004 0.833374 11.1714 0.833374 15.0834C0.833374 15.4746 1.15051 15.7917 1.54171 15.7917C1.93291 15.7917 2.25004 15.4746 2.25004 15.0834C2.25004 11.9538 4.7871 9.41671 7.91671 9.41671C11.0463 9.41671 13.5834 11.9538 13.5834 15.0834C13.5834 15.4746 13.9005 15.7917 14.2917 15.7917C14.6829 15.7917 15 15.4746 15 15.0834C15 11.1714 11.8287 8.00004 7.91671 8.00004Z" fill="#F3F8F6"/>
</svg>
