<svg width="57" height="50" viewBox="0 0 57 50" fill="none" xmlns="http://www.w3.org/2000/svg">
<path d="M39.6115 16.511C34.3223 16.7862 29.725 18.3903 25.9901 22.0125C22.2159 25.6714 20.4939 30.156 20.9656 35.7151C18.8977 35.4583 17.0158 35.1778 15.1234 35.0179C14.4682 34.9629 13.6923 35.0415 13.1393 35.3534C11.302 36.3913 9.53804 37.5629 7.4491 38.8682C7.83176 37.1331 8.08076 35.6155 8.52109 34.1556C8.84347 33.081 8.69408 32.486 7.70596 31.7862C1.35787 27.3043 -1.31818 20.5972 0.684275 13.6908C2.53471 7.3034 7.08478 3.42693 13.2677 1.40875C21.7074 -1.34855 31.1902 1.46379 36.3221 8.16309C38.1726 10.5823 39.3101 13.3003 39.6115 16.511ZM15.2702 14.3592C15.32 13.0958 14.2244 11.9583 12.9244 11.919C11.5929 11.8797 10.5 12.8966 10.4606 14.2098C10.4213 15.5386 11.4383 16.6054 12.7776 16.6394C14.1065 16.6735 15.2204 15.6539 15.2702 14.3592ZM27.969 11.919C26.6637 11.9426 25.5629 13.0539 25.5839 14.3225C25.6074 15.6356 26.6899 16.6656 28.0319 16.6499C29.3765 16.6342 30.3986 15.5936 30.3855 14.2517C30.3751 12.9359 29.2978 11.8954 27.969 11.919Z" fill="#6DDAC0"/>
<path d="M51.4927 49.481C49.8179 48.7366 48.282 47.6174 46.6465 47.4471C45.0162 47.2767 43.3047 48.2176 41.601 48.3906C36.4088 48.9227 31.7565 47.4759 27.922 43.927C20.6277 37.1806 21.6709 26.8354 30.1079 21.3051C37.6092 16.3907 48.6096 18.0289 53.8962 24.8487C58.5118 30.7984 57.9692 38.6955 52.3341 43.6938C50.7038 45.1406 50.1167 46.3305 51.1625 48.2386C51.3591 48.5924 51.38 49.038 51.4927 49.481ZM32.4301 31.0264C33.4969 31.0264 34.3749 30.193 34.4142 29.1393C34.4562 28.0254 33.5598 27.0897 32.4432 27.0844C31.3372 27.0792 30.412 28.028 30.4513 29.1262C30.488 30.1772 31.3712 31.0238 32.4301 31.0264ZM44.7174 27.0897C43.6821 27.0818 42.8041 27.9284 42.7621 28.9742C42.7176 30.0907 43.5851 31.0107 44.6912 31.0133C45.7606 31.016 46.6072 30.2087 46.6439 29.1446C46.6884 28.0228 45.8182 27.0976 44.7174 27.0897Z" fill="#6DDAC0"/>
</svg>
