<svg width="24" height="16" viewBox="0 0 24 16" fill="none" xmlns="http://www.w3.org/2000/svg">
<path d="M0.85359 0.0800427C0.474471 -0.147012 0 0.136012 0 0.589213V4.26339C0 4.68331 0.21628 5.07137 0.567536 5.28175L9.75853 10.7863C10.9335 11.4899 12.3824 11.4899 13.5574 10.7863L22.7484 5.28175C23.0996 5.07137 23.3159 4.68331 23.3159 4.26339V0.589213C23.3159 0.136012 22.8414 -0.147013 22.4623 0.0800427L12.9875 5.75451C12.1651 6.24706 11.1508 6.24706 10.3284 5.75451L0.85359 0.0800427Z" fill="#6DDAC0"/>
<path d="M0.85492 7.14403C0.475806 6.91554 0 7.19848 0 7.6524V11.1885C0 11.6073 0.215122 11.9945 0.564879 12.2053L6.72748 15.9192C7.10659 16.1476 7.58241 15.8647 7.58241 15.4108V11.8746C7.58241 11.4559 7.36726 11.0686 7.01753 10.8579L0.85492 7.14403Z" fill="#6DDAC0"/>
<path d="M22.461 7.14403C22.8401 6.91554 23.3159 7.19848 23.3159 7.6524V11.1885C23.3159 11.6073 23.1008 11.9945 22.751 12.2053L16.5884 15.9192C16.2093 16.1476 15.7335 15.8647 15.7335 15.4108V11.8746C15.7335 11.4559 15.9486 11.0686 16.2984 10.8579L22.461 7.14403Z" fill="#6DDAC0"/>
</svg>
