<svg width="470" height="869" viewBox="0 0 470 869" fill="none" xmlns="http://www.w3.org/2000/svg">
<g filter="url(#filter0_f)">
<path d="M393 656.009L328.704 620.73C317.014 614.423 302.986 614.423 291.296 620.73L227 656.009" stroke="#6DDAC0" stroke-width="6.15901" stroke-miterlimit="10" stroke-linecap="round"/>
<path d="M393 701.34L328.704 666.061C317.014 659.754 302.986 659.754 291.296 666.061L227 701.34" stroke="#6DDAC0" stroke-width="6.15901" stroke-miterlimit="10" stroke-linecap="round"/>
<path d="M393 746.67L328.704 711.391C317.014 705.084 302.986 705.084 291.296 711.391L227 746.67" stroke="#6DDAC0" stroke-width="6.15901" stroke-miterlimit="10" stroke-linecap="round"/>
<path d="M393 792L328.704 756.721C317.014 750.415 302.986 750.415 291.296 756.721L227 792" stroke="#6DDAC0" stroke-width="6.15901" stroke-miterlimit="10" stroke-linecap="round"/>
</g>
<path d="M87.2 323.3L54.2 305.4C48.2 302.2 41 302.2 35 305.4L2 323.3" stroke="#6DDAC0" stroke-width="3" stroke-miterlimit="10" stroke-linecap="round"/>
<path d="M87.2 346.3L54.2 328.4C48.2 325.2 41 325.2 35 328.4L2 346.3" stroke="#6DDAC0" stroke-width="3" stroke-miterlimit="10" stroke-linecap="round"/>
<path d="M87.2 369.3L54.2 351.4C48.2 348.2 41 348.2 35 351.4L2 369.3" stroke="#6DDAC0" stroke-width="3" stroke-miterlimit="10" stroke-linecap="round"/>
<path d="M87.2 392.3L54.2 374.4C48.2 371.2 41 371.2 35 374.4L2 392.3" stroke="#6DDAC0" stroke-width="3" stroke-miterlimit="10" stroke-linecap="round"/>
<path d="M106 399L139 416.9C145 420.1 152.2 420.1 158.2 416.9L191.2 399" stroke="#6DDAC0" stroke-width="3" stroke-miterlimit="10" stroke-linecap="round"/>
<path d="M106 376L139 393.9C145 397.1 152.2 397.1 158.2 393.9L191.2 376" stroke="#6DDAC0" stroke-width="3" stroke-miterlimit="10" stroke-linecap="round"/>
<path d="M106 353L139 370.9C145 374.1 152.2 374.1 158.2 370.9L191.2 353" stroke="#6DDAC0" stroke-width="3" stroke-miterlimit="10" stroke-linecap="round"/>
<path d="M106 330L139 347.9C145 351.1 152.2 351.1 158.2 347.9L191.2 330" stroke="#6DDAC0" stroke-width="3" stroke-miterlimit="10" stroke-linecap="round"/>
<path d="M87.2 209.3L54.2 191.4C48.2 188.2 41 188.2 35 191.4L2 209.3" stroke="#6DDAC0" stroke-width="3" stroke-miterlimit="10" stroke-linecap="round"/>
<path d="M87.2 232.3L54.2 214.4C48.2 211.2 41 211.2 35 214.4L2 232.3" stroke="#6DDAC0" stroke-width="3" stroke-miterlimit="10" stroke-linecap="round"/>
<path d="M87.2 255.3L54.2 237.4C48.2 234.2 41 234.2 35 237.4L2 255.3" stroke="#6DDAC0" stroke-width="3" stroke-miterlimit="10" stroke-linecap="round"/>
<path d="M87.2 278.3L54.2 260.4C48.2 257.2 41 257.2 35 260.4L2 278.3" stroke="#6DDAC0" stroke-width="3" stroke-miterlimit="10" stroke-linecap="round"/>
<path d="M87.2 433.3L54.2 415.4C48.2 412.2 41 412.2 35 415.4L2 433.3" stroke="#6DDAC0" stroke-width="3" stroke-miterlimit="10" stroke-linecap="round"/>
<path d="M87.2 456.3L54.2 438.4C48.2 435.2 41 435.2 35 438.4L2 456.3" stroke="#6DDAC0" stroke-width="3" stroke-miterlimit="10" stroke-linecap="round"/>
<path d="M87.2 479.3L54.2 461.4C48.2 458.2 41 458.2 35 461.4L2 479.3" stroke="#6DDAC0" stroke-width="3" stroke-miterlimit="10" stroke-linecap="round"/>
<path d="M87.2 502.3L54.2 484.4C48.2 481.2 41 481.2 35 484.4L2 502.3" stroke="#6DDAC0" stroke-width="3" stroke-miterlimit="10" stroke-linecap="round"/>
<path d="M106 289L139 306.9C145 310.1 152.2 310.1 158.2 306.9L191.2 289" stroke="#6DDAC0" stroke-width="3" stroke-miterlimit="10" stroke-linecap="round"/>
<path d="M106 266L139 283.9C145 287.1 152.2 287.1 158.2 283.9L191.2 266" stroke="#6DDAC0" stroke-width="3" stroke-miterlimit="10" stroke-linecap="round"/>
<path d="M106 243L139 260.9C145 264.1 152.2 264.1 158.2 260.9L191.2 243" stroke="#6DDAC0" stroke-width="3" stroke-miterlimit="10" stroke-linecap="round"/>
<path d="M106 220L139 237.9C145 241.1 152.2 241.1 158.2 237.9L191.2 220" stroke="#6DDAC0" stroke-width="3" stroke-miterlimit="10" stroke-linecap="round"/>
<path d="M106 71.0001L139 88.9001C145 92.1001 152.2 92.1001 158.2 88.9001L191.2 71" stroke="#6DDAC0" stroke-width="3" stroke-miterlimit="10" stroke-linecap="round"/>
<path d="M106 48.0001L139 65.9001C145 69.1001 152.2 69.1001 158.2 65.9001L191.2 48" stroke="#6DDAC0" stroke-width="3" stroke-miterlimit="10" stroke-linecap="round"/>
<path d="M106 25.0001L139 42.9001C145 46.1001 152.2 46.1001 158.2 42.9001L191.2 25" stroke="#6DDAC0" stroke-width="3" stroke-miterlimit="10" stroke-linecap="round"/>
<path d="M106 2.00007L139 19.9001C145 23.1001 152.2 23.1001 158.2 19.9001L191.2 2.00005" stroke="#6DDAC0" stroke-width="3" stroke-miterlimit="10" stroke-linecap="round"/>
<path d="M87.2 105.3L54.2 87.4002C48.2 84.2002 41 84.2002 35 87.4002L2 105.3" stroke="#6DDAC0" stroke-width="3" stroke-miterlimit="10" stroke-linecap="round"/>
<path d="M87.2 128.3L54.2 110.4C48.2 107.2 41 107.2 35 110.4L2 128.3" stroke="#6DDAC0" stroke-width="3" stroke-miterlimit="10" stroke-linecap="round"/>
<path d="M87.2 174.3L54.2 156.4C48.2 153.2 41 153.2 35 156.4L2 174.3" stroke="#6DDAC0" stroke-width="3" stroke-miterlimit="10" stroke-linecap="round"/>
<defs>
<filter id="filter0_f" x="150.012" y="539.012" width="319.976" height="329.976" filterUnits="userSpaceOnUse" color-interpolation-filters="sRGB">
<feFlood flood-opacity="0" result="BackgroundImageFix"/>
<feBlend mode="normal" in="SourceGraphic" in2="BackgroundImageFix" result="shape"/>
<feGaussianBlur stdDeviation="36.9541" result="effect1_foregroundBlur"/>
</filter>
</defs>
</svg>
