<svg width="1537" height="688" viewBox="0 0 1537 688" fill="none" xmlns="http://www.w3.org/2000/svg">
<rect x="29" y="8" width="1440" height="550" fill="#1A2121"/>
<g filter="url(#filter0_f)">
<path d="M1369 106.779L1320.97 80.5207C1312.24 75.8264 1301.76 75.8264 1293.03 80.5207L1245 106.779" stroke="#6DDAC0" stroke-width="6.15901" stroke-miterlimit="10" stroke-linecap="round"/>
<path d="M1369 140.519L1320.97 114.261C1312.24 109.567 1301.76 109.567 1293.03 114.261L1245 140.52" stroke="#6DDAC0" stroke-width="6.15901" stroke-miterlimit="10" stroke-linecap="round"/>
<path d="M1369 174.26L1320.97 148.001C1312.24 143.307 1301.76 143.307 1293.03 148.001L1245 174.26" stroke="#6DDAC0" stroke-width="6.15901" stroke-miterlimit="10" stroke-linecap="round"/>
<path d="M1369 208L1320.97 181.741C1312.24 177.047 1301.76 177.047 1293.03 181.741L1245 208" stroke="#6DDAC0" stroke-width="6.15901" stroke-miterlimit="10" stroke-linecap="round"/>
</g>
<g filter="url(#filter1_f)">
<path d="M255 509.779L206.972 483.521C198.239 478.826 187.761 478.826 179.028 483.521L131 509.779" stroke="#6DDAC0" stroke-width="6.15901" stroke-miterlimit="10" stroke-linecap="round"/>
<path d="M255 543.519L206.972 517.261C198.239 512.567 187.761 512.567 179.028 517.261L131 543.52" stroke="#6DDAC0" stroke-width="6.15901" stroke-miterlimit="10" stroke-linecap="round"/>
<path d="M255 577.26L206.972 551.001C198.239 546.307 187.761 546.307 179.028 551.001L131 577.26" stroke="#6DDAC0" stroke-width="6.15901" stroke-miterlimit="10" stroke-linecap="round"/>
<path d="M255 611L206.972 584.741C198.239 580.047 187.761 580.047 179.028 584.741L131 611" stroke="#6DDAC0" stroke-width="6.15901" stroke-miterlimit="10" stroke-linecap="round"/>
</g>
<path d="M51 426L32.0211 416.3C28.5704 414.566 24.4296 414.566 20.9789 416.3L2 426" stroke="#6DDAC0" stroke-width="3" stroke-miterlimit="10" stroke-linecap="round"/>
<path d="M51 440L32.0211 429.419C28.5704 427.527 24.4296 427.527 20.9789 429.419L2 440" stroke="#6DDAC0" stroke-width="3" stroke-miterlimit="10" stroke-linecap="round"/>
<path d="M51 453L32.0211 442.419C28.5704 440.527 24.4296 440.527 20.9789 442.419L2 453" stroke="#6DDAC0" stroke-width="3" stroke-miterlimit="10" stroke-linecap="round"/>
<path d="M51 466L32.0211 455.419C28.5704 453.527 24.4296 453.527 20.9789 455.419L2 466" stroke="#6DDAC0" stroke-width="3" stroke-miterlimit="10" stroke-linecap="round"/>
<path d="M62 470L80.9789 480.581C84.4296 482.473 88.5704 482.473 92.0211 480.581L111 470" stroke="#6DDAC0" stroke-width="3" stroke-miterlimit="10" stroke-linecap="round"/>
<path d="M62 457L80.9789 466.7C84.4296 468.434 88.5704 468.434 92.0211 466.7L111 457" stroke="#6DDAC0" stroke-width="3" stroke-miterlimit="10" stroke-linecap="round"/>
<path d="M62 443L80.9789 453.581C84.4296 455.473 88.5704 455.473 92.0211 453.581L111 443" stroke="#6DDAC0" stroke-width="3" stroke-miterlimit="10" stroke-linecap="round"/>
<path d="M62 430L80.9789 440.581C84.4296 442.473 88.5704 442.473 92.0211 440.581L111 430" stroke="#6DDAC0" stroke-width="3" stroke-miterlimit="10" stroke-linecap="round"/>
<path d="M51 361L32.0211 350.419C28.5704 348.527 24.4296 348.527 20.9789 350.419L2 361" stroke="#6DDAC0" stroke-width="3" stroke-miterlimit="10" stroke-linecap="round"/>
<path d="M51 374L32.0211 363.419C28.5704 361.527 24.4296 361.527 20.9789 363.419L2 374" stroke="#6DDAC0" stroke-width="3" stroke-miterlimit="10" stroke-linecap="round"/>
<path d="M51 387L32.0211 376.419C28.5704 374.527 24.4296 374.527 20.9789 376.419L2 387" stroke="#6DDAC0" stroke-width="3" stroke-miterlimit="10" stroke-linecap="round"/>
<path d="M51 400L32.0211 390.3C28.5704 388.566 24.4296 388.566 20.9789 390.3L2 400" stroke="#6DDAC0" stroke-width="3" stroke-miterlimit="10" stroke-linecap="round"/>
<path d="M51 490L32.0211 479.419C28.5704 477.527 24.4296 477.527 20.9789 479.419L2 490" stroke="#6DDAC0" stroke-width="3" stroke-miterlimit="10" stroke-linecap="round"/>
<path d="M51 503L32.0211 492.419C28.5704 490.527 24.4296 490.527 20.9789 492.419L2 503" stroke="#6DDAC0" stroke-width="3" stroke-miterlimit="10" stroke-linecap="round"/>
<path d="M51 516L32.0211 506.3C28.5704 504.566 24.4296 504.566 20.9789 506.3L2 516" stroke="#6DDAC0" stroke-width="3" stroke-miterlimit="10" stroke-linecap="round"/>
<path d="M62 407L80.9789 416.7C84.4296 418.434 88.5704 418.434 92.0211 416.7L111 407" stroke="#6DDAC0" stroke-width="3" stroke-miterlimit="10" stroke-linecap="round"/>
<path d="M62 393L80.9789 403.581C84.4296 405.473 88.5704 405.473 92.0211 403.581L111 393" stroke="#6DDAC0" stroke-width="3" stroke-miterlimit="10" stroke-linecap="round"/>
<path d="M62 380L80.9789 390.581C84.4296 392.473 88.5704 392.473 92.0211 390.581L111 380" stroke="#6DDAC0" stroke-width="3" stroke-miterlimit="10" stroke-linecap="round"/>
<path d="M62 367L80.9789 376.7C84.4296 378.434 88.5704 378.434 92.0211 376.7L111 367" stroke="#6DDAC0" stroke-width="3" stroke-miterlimit="10" stroke-linecap="round"/>
<path d="M62 281L80.9789 291.581C84.4296 293.473 88.5704 293.473 92.0211 291.581L111 281" stroke="#6DDAC0" stroke-width="3" stroke-miterlimit="10" stroke-linecap="round"/>
<path d="M62 268L80.9789 277.7C84.4296 279.434 88.5704 279.434 92.0211 277.7L111 268" stroke="#6DDAC0" stroke-width="3" stroke-miterlimit="10" stroke-linecap="round"/>
<path d="M62 254L80.9789 264.581C84.4296 266.473 88.5704 266.473 92.0211 264.581L111 254" stroke="#6DDAC0" stroke-width="3" stroke-miterlimit="10" stroke-linecap="round"/>
<path d="M62 241L80.9789 251.581C84.4296 253.473 88.5704 253.473 92.0211 251.581L111 241" stroke="#6DDAC0" stroke-width="3" stroke-miterlimit="10" stroke-linecap="round"/>
<path d="M51 301L32.0211 290.419C28.5704 288.527 24.4296 288.527 20.9789 290.419L2 301" stroke="#6DDAC0" stroke-width="3" stroke-miterlimit="10" stroke-linecap="round"/>
<path d="M51 314L32.0211 303.419C28.5704 301.527 24.4296 301.527 20.9789 303.419L2 314" stroke="#6DDAC0" stroke-width="3" stroke-miterlimit="10" stroke-linecap="round"/>
<path d="M51 327L32.0211 316.419C28.5704 314.527 24.4296 314.527 20.9789 316.419L2 327" stroke="#6DDAC0" stroke-width="3" stroke-miterlimit="10" stroke-linecap="round"/>
<path d="M51 340L32.0211 330.3C28.5704 328.566 24.4296 328.566 20.9789 330.3L2 340" stroke="#6DDAC0" stroke-width="3" stroke-miterlimit="10" stroke-linecap="round"/>
<path d="M1484.43 427.442L1468.38 418.738C1465.47 417.182 1461.96 417.182 1459.05 418.738L1443 427.442" stroke="#6DDAC0" stroke-width="3" stroke-miterlimit="10" stroke-linecap="round"/>
<path d="M1484.43 438.626L1468.38 429.922C1465.47 428.366 1461.96 428.366 1459.05 429.922L1443 438.626" stroke="#6DDAC0" stroke-width="3" stroke-miterlimit="10" stroke-linecap="round"/>
<path d="M1484.43 449.81L1468.38 441.106C1465.47 439.55 1461.96 439.55 1459.05 441.106L1443 449.81" stroke="#6DDAC0" stroke-width="3" stroke-miterlimit="10" stroke-linecap="round"/>
<path d="M1484.43 460.994L1468.38 452.29C1465.47 450.734 1461.96 450.734 1459.05 452.29L1443 460.994" stroke="#6DDAC0" stroke-width="3" stroke-miterlimit="10" stroke-linecap="round"/>
<path d="M1493.57 405.414L1509.62 414.118C1512.53 415.674 1516.04 415.674 1518.95 414.118L1535 405.414" stroke="#6DDAC0" stroke-width="3" stroke-miterlimit="10" stroke-linecap="round"/>
<path d="M1493.57 394.23L1509.62 402.934C1512.53 404.49 1516.04 404.49 1518.95 402.934L1535 394.23" stroke="#6DDAC0" stroke-width="3" stroke-miterlimit="10" stroke-linecap="round"/>
<path d="M1493.57 383.046L1509.62 391.75C1512.53 393.306 1516.04 393.306 1518.95 391.75L1535 383.046" stroke="#6DDAC0" stroke-width="3" stroke-miterlimit="10" stroke-linecap="round"/>
<path d="M1493.57 371.863L1509.62 380.567C1512.53 382.123 1516.04 382.123 1518.95 380.567L1535 371.862" stroke="#6DDAC0" stroke-width="3" stroke-miterlimit="10" stroke-linecap="round"/>
<path d="M1484.43 376.871L1468.38 368.167C1465.47 366.611 1461.96 366.611 1459.05 368.167L1443 376.871" stroke="#6DDAC0" stroke-width="3" stroke-miterlimit="10" stroke-linecap="round"/>
<path d="M1484.43 388.055L1468.38 379.351C1465.47 377.795 1461.96 377.795 1459.05 379.351L1443 388.055" stroke="#6DDAC0" stroke-width="3" stroke-miterlimit="10" stroke-linecap="round"/>
<path d="M1484.43 399.239L1468.38 390.535C1465.47 388.979 1461.96 388.979 1459.05 390.535L1443 399.239" stroke="#6DDAC0" stroke-width="3" stroke-miterlimit="10" stroke-linecap="round"/>
<path d="M1484.43 410.423L1468.38 401.719C1465.47 400.163 1461.96 400.163 1459.05 401.719L1443 410.423" stroke="#6DDAC0" stroke-width="3" stroke-miterlimit="10" stroke-linecap="round"/>
<defs>
<filter id="filter0_f" x="1168.01" y="0.0122375" width="277.977" height="284.976" filterUnits="userSpaceOnUse" color-interpolation-filters="sRGB">
<feFlood flood-opacity="0" result="BackgroundImageFix"/>
<feBlend mode="normal" in="SourceGraphic" in2="BackgroundImageFix" result="shape"/>
<feGaussianBlur stdDeviation="36.9541" result="effect1_foregroundBlur"/>
</filter>
<filter id="filter1_f" x="54.0117" y="403.012" width="277.977" height="284.976" filterUnits="userSpaceOnUse" color-interpolation-filters="sRGB">
<feFlood flood-opacity="0" result="BackgroundImageFix"/>
<feBlend mode="normal" in="SourceGraphic" in2="BackgroundImageFix" result="shape"/>
<feGaussianBlur stdDeviation="36.9541" result="effect1_foregroundBlur"/>
</filter>
</defs>
</svg>
