<svg width="126" height="32" viewBox="0 0 126 32" fill="none" xmlns="http://www.w3.org/2000/svg">
<g clip-path="url(#clip0)">
<path d="M5.13054 23.5162H4.1497V25.3767H1.20719V23.5162H0V7.51623H1.20719V5.65576H4.1497V7.51623H5.13054V5.65576H8.07305V7.66506C8.22395 7.66506 8.4503 7.73948 8.6012 7.73948C9.28024 7.88832 9.88383 8.11158 10.412 8.40925C10.9401 8.70692 11.3928 9.15344 11.7701 9.67437C12.1473 10.1953 12.2982 10.8651 12.2982 11.6837C12.2982 12.5767 12.0719 13.3209 11.5437 13.9162C11.0156 14.5116 10.412 14.8837 9.58204 15.1813V15.2558C10.0347 15.3302 10.4874 15.479 10.9401 15.7023C11.3174 15.9255 11.6946 16.1488 11.9964 16.4465C12.2982 16.7441 12.5246 17.1162 12.7509 17.5627C12.9018 18.0092 13.0527 18.4558 13.0527 18.9767C13.0527 19.8697 12.9018 20.6139 12.5246 21.2092C12.1473 21.8046 11.6946 22.2511 11.091 22.6232C10.4874 22.9953 9.80838 23.293 9.05389 23.3674C8.7521 23.4418 8.4503 23.4418 8.1485 23.5162V25.4511H5.13054V23.5162ZM8.4503 12.1302C8.4503 11.6092 8.22395 11.1627 7.77126 10.9395C7.31856 10.7162 6.71497 10.5674 5.88503 10.5674H3.92335V13.8418H6.03593C6.79042 13.8418 7.39401 13.693 7.77126 13.3953C8.22395 13.172 8.4503 12.7255 8.4503 12.1302ZM8.97844 18.5302C8.97844 17.8604 8.7521 17.4139 8.22395 17.1162C7.69581 16.893 7.01677 16.7441 6.11138 16.7441H3.8479V20.3906H6.11138C6.41317 20.3906 6.71497 20.3906 7.09222 20.3162C7.39401 20.2418 7.77126 20.1674 7.99761 20.0185C8.2994 19.8697 8.52575 19.7209 8.67665 19.4232C8.90299 19.1999 8.97844 18.9023 8.97844 18.5302ZM15.6934 23.5162V7.51623H26.9353V10.7906H19.6168V13.7674H26.5581V16.893H19.6168V20.2418H27.388V23.5162H15.6934ZM38.7808 11.6837C38.4036 11.2372 37.9509 10.9395 37.4228 10.6418C36.8946 10.4186 36.291 10.2697 35.8383 10.2697C35.5365 10.2697 35.3102 10.2697 35.0084 10.3441C34.7066 10.4186 34.4802 10.493 34.2539 10.5674C34.0275 10.7162 33.8766 10.8651 33.7257 11.0883C33.5749 11.3116 33.4994 11.5348 33.4994 11.8325C33.4994 12.1302 33.5748 12.3534 33.6503 12.5023C33.8012 12.6511 33.9521 12.8744 34.1784 12.9488C34.4048 13.0976 34.7066 13.172 35.0084 13.3209C35.3102 13.4697 35.6874 13.5441 36.0647 13.693C36.6683 13.8418 37.1964 14.0651 37.8 14.2883C38.4036 14.5116 39.0072 14.8092 39.4599 15.1813C39.988 15.5534 40.3653 15.9999 40.7425 16.5209C41.0443 17.0418 41.2707 17.7116 41.2707 18.5302C41.2707 19.4232 41.1198 20.2418 40.7425 20.9116C40.4407 21.5813 39.9126 22.1023 39.309 22.5488C38.7054 22.9953 38.0263 23.293 37.2719 23.5162C36.5174 23.7395 35.6874 23.8139 34.8575 23.8139C33.6503 23.8139 32.5186 23.5906 31.3868 23.2185C30.2551 22.8465 29.3497 22.2511 28.5952 21.5069L31.2359 18.9023C31.6132 19.3488 32.2168 19.7953 32.8204 20.093C33.4994 20.3906 34.1784 20.6139 34.782 20.6139C35.0838 20.6139 35.3856 20.6139 35.6874 20.5395C35.9892 20.4651 36.2156 20.3906 36.4419 20.2418C36.6683 20.093 36.8192 19.9441 36.9701 19.7209C37.121 19.4976 37.121 19.1999 37.121 18.9023C37.121 18.6046 37.0455 18.3813 36.8946 18.1581C36.7437 17.9348 36.5174 17.7116 36.2156 17.5627C35.8383 17.3395 35.5365 17.1906 35.1593 17.1162C34.7066 16.9674 34.2539 16.8186 33.6503 16.6697C33.1222 16.5209 32.594 16.2976 32.0659 16.0744C31.5377 15.8511 31.085 15.5534 30.7078 15.1813C30.3305 14.8092 29.9533 14.3627 29.7269 13.9162C29.5006 13.3953 29.3497 12.7999 29.3497 12.0558C29.3497 11.1627 29.5006 10.4186 29.9533 9.74878C30.3305 9.15344 30.8587 8.63251 31.4623 8.18599C32.0659 7.73948 32.8204 7.44181 33.5749 7.29297C34.3293 7.06972 35.1593 6.9953 35.9138 6.9953C36.8946 6.9953 37.8 7.14413 38.7808 7.51623C39.7617 7.8139 40.5916 8.33483 41.3461 9.0046L38.7808 11.6837ZM50.7772 10.8651V23.5906H46.7784V10.8651H42.0252V7.59065H55.4551V10.8651H50.7772Z" fill="black"/>
<path d="M72.0542 11.014C71.7524 10.8651 71.4506 10.7907 71.1488 10.7907C70.847 10.7163 70.5452 10.7163 70.2434 10.7163H68.1309V14.4372H70.0171C70.3189 14.4372 70.6961 14.4372 70.9979 14.3628C71.3752 14.2884 71.677 14.214 71.9788 14.0651C72.2806 13.9163 72.5069 13.7675 72.6578 13.4698C72.8087 13.2465 72.9596 12.8744 72.9596 12.5024C72.9596 12.1303 72.8842 11.8326 72.7333 11.6093C72.5824 11.3117 72.356 11.0884 72.0542 11.014Z" fill="black"/>
<path d="M84.5786 17.2651H88.7283L86.6912 11.8325L84.5786 17.2651Z" fill="black"/>
<path d="M123.058 0H60.2086C58.5487 0 57.2661 1.26512 57.2661 2.82791V29.1721C57.2661 30.7349 58.5487 32 60.2086 32H123.058C124.718 32 126 30.7349 126 29.1721V2.82791C126 1.26512 124.718 0 123.058 0ZM91.1428 23.5163L89.8601 20.3907H83.3715L82.1643 23.5163H73.1104L69.4889 17.1907H68.1308V23.5163H64.132V7.51628H70.4697C71.2996 7.51628 72.0541 7.5907 72.8086 7.73953C73.5631 7.88837 74.2422 8.18605 74.8458 8.55814C75.4493 8.93023 75.902 9.45116 76.2793 10.0465C76.6565 10.6419 76.8074 11.4605 76.8074 12.3535C76.8074 13.4698 76.5056 14.3628 75.902 15.107C75.2984 15.8512 74.4685 16.3721 73.3368 16.6698L77.6374 23.4419L84.5787 7.51628H88.502L95.4434 23.5163H91.1428ZM107.44 10.8651H102.686V23.5907H98.6877V10.8651H93.9344V7.5907H107.364V10.8651H107.44ZM120.945 23.5163H109.326V7.51628H120.568V10.7907H113.174V13.7674H120.115V16.893H113.174V20.2419H120.945V23.5163Z" fill="black"/>
</g>
<defs>
<clipPath id="clip0">
<rect width="126" height="32" fill="white"/>
</clipPath>
</defs>
</svg>
