<svg width="127" height="26" viewBox="0 0 127 26" fill="none" xmlns="http://www.w3.org/2000/svg">
<path d="M7.7213 10.6988L12.6247 5.79559L17.5308 10.7014L20.3839 7.84826L12.6247 0.0888672L4.86814 7.84567L7.7213 10.6988ZM2.85316 9.86005L5.70632 12.713L2.85316 15.5664L0 12.7132L2.85316 9.86005ZM7.7213 14.7282L12.6247 19.6314L17.5306 14.7258L20.3853 17.5774L20.3839 17.579L12.6247 25.3381L4.86794 17.5816L4.86395 17.5776L7.7213 14.7282ZM25.2497 12.7144L22.3967 15.5676L19.5434 12.7146L22.3965 9.86125L25.2497 12.7144Z" fill="#F4BB2B"/>
<path d="M15.5187 12.7121H15.5199L12.6247 9.81685L10.485 11.9565H10.4848L10.2392 12.2024L9.73202 12.7095L9.72803 12.7135L9.73202 12.7177L12.6247 15.6103L15.5199 12.7151L15.5213 12.7135L15.5187 12.7121ZM29.6976 6.20708H35.903C37.4432 6.20708 38.6078 6.60233 39.3971 7.39285C40.008 8.00508 40.3133 8.76389 40.3133 9.66908V9.70737C40.3133 10.0899 40.266 10.4279 40.1709 10.721C40.0819 11.0021 39.9539 11.2693 39.7906 11.5147C39.6364 11.7463 39.451 11.9555 39.2396 12.1364C39.0324 12.3138 38.8061 12.4678 38.565 12.5954C39.3391 12.889 39.9486 13.2872 40.3929 13.791C40.837 14.2949 41.0593 14.9931 41.0593 15.8855V15.9236C41.0593 16.5358 40.9417 17.0713 40.7062 17.5306C40.4706 17.9894 40.1332 18.3721 39.6939 18.6783C39.2546 18.9844 38.7263 19.2137 38.1089 19.3669C37.4914 19.5198 36.8072 19.5962 36.0564 19.5962H29.6976V6.20708ZM35.2826 11.62C35.9331 11.62 36.4497 11.5088 36.832 11.2854C37.2145 11.0623 37.4057 10.7019 37.4057 10.2047V10.1664C37.4057 9.72033 37.2398 9.37931 36.9083 9.1432C36.5767 8.90728 36.0985 8.78922 35.4739 8.78922H32.5665V11.62H35.2826ZM36.067 17.0143C36.7173 17.0143 37.227 16.8966 37.5971 16.6605C37.9669 16.4246 38.1519 16.0578 38.1519 15.5605V15.5224C38.1519 15.0761 37.9796 14.7223 37.6354 14.4606C37.291 14.1996 36.7364 14.0688 35.9712 14.0688H32.5665V17.0145H36.067V17.0143ZM44.7551 6.20708H47.701V19.5966H44.7551V6.20708ZM52.1627 6.20708H54.8784L61.1525 14.4513V6.20708H64.0599V19.5966H61.5544L55.0699 11.0848V19.5966H52.1627V6.20708ZM72.9782 6.11155H75.6941L81.4327 19.5966H78.353L77.1288 16.5937H71.4669L70.2429 19.5966H67.2393L72.9782 6.11155ZM76.0768 13.992L74.2978 9.65013L72.5193 13.992H76.0768ZM84.6126 6.20708H87.3289L93.6026 14.4513V6.20708H96.51V19.5966H94.0044L87.52 11.0848V19.5966H84.6126V6.20708ZM107.111 19.8259C106.129 19.8259 105.218 19.6473 104.376 19.2905C103.534 18.9337 102.807 18.4457 102.195 17.8271C101.583 17.2087 101.105 16.4786 100.761 15.637C100.417 14.7953 100.244 13.8963 100.244 12.9398V12.9017C100.244 11.9453 100.417 11.0497 100.761 10.2143C101.105 9.37911 101.583 8.64583 102.195 8.01466C102.807 7.38348 103.541 6.88592 104.395 6.52257C105.249 6.15921 106.193 5.97754 107.226 5.97754C107.85 5.97754 108.421 6.02879 108.938 6.1305C109.454 6.2328 109.922 6.3728 110.344 6.55128C110.755 6.72486 111.147 6.94293 111.511 7.2016C111.865 7.45452 112.197 7.73605 112.505 8.04337L110.631 10.2047C110.107 9.73309 109.575 9.36296 109.033 9.09533C108.491 8.82771 107.883 8.69369 107.207 8.69369C106.646 8.69369 106.126 8.80218 105.648 9.01895C105.179 9.2293 104.758 9.53545 104.414 9.91776C104.07 10.3003 103.802 10.7436 103.611 11.2471C103.42 11.7511 103.324 12.2897 103.324 12.8635V12.9015C103.324 13.4753 103.42 14.0175 103.611 14.5272C103.802 15.0376 104.066 15.4837 104.405 15.8662C104.742 16.2487 105.15 16.5518 105.628 16.775C106.107 16.9983 106.633 17.1096 107.207 17.1096C107.972 17.1096 108.619 16.9694 109.148 16.6888C109.677 16.4086 110.203 16.0259 110.726 15.5411L112.601 17.4348C112.269 17.7927 111.911 18.1252 111.53 18.4294C111.154 18.7262 110.747 18.9797 110.315 19.1852C109.875 19.3954 109.393 19.5551 108.871 19.6632C108.348 19.7715 107.761 19.8259 107.111 19.8259ZM116.068 6.20708H126.148V8.82771H118.975V11.5439H125.287V14.1643H118.975V16.9762H126.244V19.5966H116.068V6.20708Z" fill="#F4BB2B"/>
</svg>
