<?xml version="1.0" encoding="UTF-8"?>
<svg width="1947px" height="332px" viewBox="0 0 1947 332" version="1.1" xmlns="http://www.w3.org/2000/svg" xmlns:xlink="http://www.w3.org/1999/xlink">
    <!-- Generator: Sketch 49.3 (51167) - http://www.bohemiancoding.com/sketch -->
    <title>火币new logo</title>
    <desc>Created with Sketch.</desc>
    <defs></defs>
    <g id="矿池改版" stroke="none" stroke-width="1" fill="none" fill-rule="evenodd">
        <g id="火币new-logo" fill-rule="nonzero">
            <path d="M423.333333,78 L423.333333,174.131868 L327.333333,174.131868 L327.333333,90.0164835 C327.333333,83.3406593 322,78 315.333333,78 L282,78 L282,308.983516 C282,315.659341 287.333333,321 294,321 L326,321 L326,212.851648 L422,212.851648 L422,307.648352 C422,314.324176 427.333333,319.664835 434,319.664835 L466,319.664835 L466,90.0164835 C466,83.3406593 460.666667,78 454,78 L423.333333,78 Z" id="Fill-1" fill="#1D2243"></path>
            <path d="M612.666667,138 L612.666667,254.207143 C612.666667,264.892857 607.333333,274.242857 598,279.585714 C572.666667,294.278571 546,275.578571 546,251.535714 L546,150.021429 C546,143.342857 540.666667,138 534,138 L502,138 L502,255.542857 C502,292.942857 532.666667,325 571.333333,325 L588.666667,325 C626,325 658,294.278571 658,255.542857 L658,150.021429 C658,143.342857 652.666667,138 646,138 L612.666667,138 Z" id="Fill-3" fill="#1D2243"></path>
            <path d="M1103,320 L1135,320 L1135,156 C1135,149.333333 1129.66667,144 1123,144 L1091,144 L1091,308 C1091,314.666667 1096.33333,320 1103,320" id="Fill-5" fill="#2EA7DF"></path>
            <path d="M1113.5,127 C1126.92105,127 1139,116.263158 1139,101.5 C1139,88.0789474 1128.26316,76 1113.5,76 C1100.07895,76 1088,86.7368421 1088,101.5 C1088,116.263158 1098.73684,127 1113.5,127" id="Fill-7" fill="#2EA7DF"></path>
            <path d="M814.914062,247.726619 C814.914062,270.47482 796.210937,285.194245 774.835937,285.194245 C753.460937,285.194245 734.757812,270.47482 734.757812,247.726619 L734.757812,215.611511 C734.757812,192.863309 753.460937,178.143885 774.835937,178.143885 C796.210937,178.143885 814.914062,192.863309 814.914062,215.611511 L814.914062,247.726619 Z M773.5,138 C726.742188,138 688,171.453237 688,218.28777 L688,243.71223 C688,290.546763 726.742188,324 773.5,324 C820.257812,324 859,290.546763 859,243.71223 L859,218.28777 C859,171.453237 821.59375,138 773.5,138 Z" id="Fill-9" fill="#1D2243"></path>
            <path d="M1577.57812,247.726619 C1577.57812,270.47482 1558.875,285.194245 1537.5,285.194245 C1516.125,285.194245 1497.42188,270.47482 1497.42188,247.726619 L1497.42188,215.611511 C1497.42188,192.863309 1516.125,178.143885 1537.5,178.143885 C1558.875,178.143885 1577.57812,192.863309 1577.57812,215.611511 L1577.57812,247.726619 Z M1537.5,138 C1490.74219,138 1452,171.453237 1452,218.28777 L1452,243.71223 C1452,290.546763 1490.74219,324 1537.5,324 C1584.25781,324 1623,290.546763 1623,243.71223 L1623,218.28777 C1623,171.453237 1584.25781,138 1537.5,138 Z" id="Fill-11" fill="#1D2243"></path>
            <path d="M1775.91406,247.726619 C1775.91406,270.47482 1757.21094,285.194245 1735.83594,285.194245 C1714.46094,285.194245 1695.75781,270.47482 1695.75781,247.726619 L1695.75781,215.611511 C1695.75781,192.863309 1714.46094,178.143885 1735.83594,178.143885 C1757.21094,178.143885 1775.91406,192.863309 1775.91406,215.611511 L1775.91406,247.726619 Z M1734.5,138 C1687.74219,138 1649,171.453237 1649,218.28777 L1649,243.71223 C1649,290.546763 1687.74219,324 1734.5,324 C1781.25781,324 1820,290.546763 1820,243.71223 L1820,218.28777 C1820,171.453237 1782.59375,138 1734.5,138 Z" id="Fill-13" fill="#1D2243"></path>
            <path d="M1015.24219,247.793478 C1015.24219,270.521739 996.539062,285.228261 975.164062,285.228261 C953.789063,285.228261 935.085938,270.521739 935.085938,247.793478 L935.085938,215.706522 C935.085938,192.978261 953.789063,178.271739 975.164062,178.271739 C996.539062,178.271739 1015.24219,192.978261 1015.24219,215.706522 L1015.24219,247.793478 Z M975.164063,138.163043 C960.46875,138.163043 947.109375,140.836957 935.085938,147.521739 L935.085938,90.0326087 C935.085938,83.3478261 929.742188,78 923.0625,78 L891,78 L891,243.782609 C891,290.576087 929.742188,324 976.5,324 C1023.25781,324 1062,290.576087 1062,243.782609 L1062,218.380435 C1060.66406,171.586957 1021.92188,138.163043 975.164063,138.163043 Z" id="Fill-15" fill="#2EA7DF"></path>
            <g id="Group-19" fill="#1D2243">
                <path d="M142.666667,102.208 C142.666667,54.112 120,14.032 101.333333,0.672 C101.333333,0.672 100,-0.664 100,2.008 C100,2.008 100,2.008 100,2.008 C100,94.192 53.3333333,118.24 26.6666667,151.64 C-33.3333333,229.128 22.6666667,313.296 78.6666667,329.328 C110.666667,338.68 72,313.296 66.6666667,262.528 C61.3333333,201.072 142.666667,154.312 142.666667,102.208" id="Fill-17"></path>
            </g>
            <g id="Group-22" transform="translate(112.000000, 133.000000)" fill="#2EA7DF">
                <path d="M61.3333333,0.666666667 C61.3333333,0.666666667 61.3333333,-0.666666667 61.3333333,0.666666667 C60,11.3333333 46.6666667,36.6666667 30.6666667,59.3333333 C-24,136.666667 8,172.666667 25.3333333,192.666667 C36,204.666667 25.3333333,192.666667 50.6666667,180.666667 C52,179.333333 100,155.333333 105.333333,98 C109.333333,44.6666667 74.6666667,10 61.3333333,0.666666667" id="Fill-20"></path>
            </g>
            <path d="M1947,322 L1947,293.962162 C1947,287.286486 1941.68493,281.945946 1935.0411,281.945946 C1928.39726,281.945946 1919.09589,281.945946 1912.45205,281.945946 C1893.84932,281.945946 1895.17808,272.6 1895.17808,248.567568 L1895.17808,133.745946 L1895.17808,87.0162162 C1895.17808,80.3405405 1889.86301,75 1883.21918,75 L1850,75 L1850,253.908108 C1850,296.632432 1860.63014,322 1907.13699,322 C1924.41096,322 1937.69863,320.664865 1947,322 Z" id="Fill-26" fill="#1D2243"></path>
            <path d="M1384.82353,187.333333 C1384.82353,210 1366.08824,224.666667 1342,224.666667 C1317.91176,224.666667 1299.17647,210 1299.17647,187.333333 L1299.17647,155.333333 C1299.17647,132.666667 1319.25,118 1342,118 C1366.08824,118 1384.82353,132.666667 1384.82353,155.333333 L1384.82353,187.333333 Z M1342,78 C1324.60294,78 1309.88235,82 1296.5,88.6666667 C1295.16176,82 1289.80882,78 1283.11765,78 L1251,78 L1251,282 L1251,312.666667 C1251,319.333333 1256.35294,326 1264.38235,326 L1299.17647,326 L1299.17647,256.666667 C1312.55882,262 1327.27941,266 1342,266 C1391.51471,266 1433,232.666667 1433,186 L1433,160.666667 C1433,111.333333 1392.85294,78 1342,78 Z" id="Fill-28" fill="#1D2243"></path>
        </g>
    </g>
</svg>