<svg width="164" height="23" viewBox="0 0 164 23" fill="none" xmlns="http://www.w3.org/2000/svg">
<mask id="mask0" mask-type="alpha" maskUnits="userSpaceOnUse" x="0" y="0" width="17" height="23">
<path d="M0 0.755859H16.4546V22.2004H0V0.755859Z" fill="white"/>
</mask>
<g mask="url(#mask0)">
<path fill-rule="evenodd" clip-rule="evenodd" d="M4.58676 4.40195V11.335H9.21122C9.72974 11.335 10.1572 11.2853 10.4944 11.1858C10.8311 11.0856 11.0984 10.9316 11.2977 10.7231C11.4963 10.5148 11.6347 10.2423 11.7121 9.90677C11.7896 9.57127 11.8287 7.54447 11.8287 7.082C11.8287 6.61975 11.7941 6.21807 11.7251 5.87803C11.6559 5.53778 11.5218 5.25896 11.3236 5.04135C11.1246 4.82375 10.8504 4.6626 10.5006 4.55834C10.1504 4.45408 9.69059 4.40195 9.12078 4.40195H4.58676ZM10.6885 0.755859C12.6752 0.755859 14.1327 1.27911 15.0616 2.3269C15.9901 3.37448 16.4546 5.61284 16.4546 7.69913C16.4546 9.81267 15.9705 12.3467 15.0031 13.3895C14.0357 14.4328 12.5974 14.9543 10.6885 14.9543H4.58676V22.2004H0V0.755859H10.6885Z" fill="url(#paint0_linear)"/>
</g>
<path fill-rule="evenodd" clip-rule="evenodd" d="M27.1493 4.66294C26.4278 4.66294 25.818 4.71477 25.3204 4.81737C24.8227 4.92062 24.4149 5.11729 24.0973 5.40782C23.7797 5.69856 23.5499 6.10748 23.4086 6.63542C23.2667 7.16294 23.1958 8.43683 23.1958 9.28688V13.5665C23.1958 14.4166 23.2667 15.6879 23.4086 16.2114C23.5499 16.734 23.7797 17.1435 24.0973 17.4386C24.4149 17.7338 24.8227 17.9332 25.3204 18.0356C25.818 18.1384 26.4278 18.19 27.1493 18.19H27.4429C28.1641 18.19 28.7735 18.1384 29.2713 18.0356C29.7693 17.9332 30.1772 17.7363 30.4946 17.4458C30.8122 17.1549 31.042 16.7457 31.1837 16.2178C31.3252 15.6905 31.3959 14.4166 31.3959 13.5665V9.26C31.3959 8.40995 31.3252 7.13862 31.1837 6.61537C31.042 6.09212 30.8143 5.68512 30.501 5.39438C30.1877 5.10385 29.7799 4.90952 29.278 4.81076C28.7757 4.71242 28.1641 4.66294 27.4429 4.66294H27.1493ZM18.5405 7.8161C18.5405 6.52813 18.6888 5.42766 18.9854 4.51575C19.2823 3.60321 19.742 2.85662 20.3656 2.27492C20.9885 1.69365 21.7838 1.26895 22.7511 1.00039C23.718 0.731829 24.8766 0.597656 26.2267 0.597656H28.3915C29.7498 0.597656 30.9125 0.729909 31.8798 0.993775C32.8473 1.25764 33.6397 1.67786 34.2591 2.25487C34.8778 2.83166 35.3309 3.57868 35.6196 4.49527C35.9075 5.4123 36.0512 6.51938 36.0512 7.8161V14.4253C36.0512 15.7135 35.905 17.3985 35.6128 18.3108C35.3207 19.2233 34.8649 19.9699 34.2461 20.5514C33.627 21.1327 32.8339 21.5576 31.8666 21.8259C30.8998 22.0947 29.741 22.2284 28.3915 22.2284H26.2267C24.8766 22.2284 23.718 22.0947 22.7511 21.8259C21.7838 21.5576 20.9885 21.1327 20.3656 20.5514C19.742 19.9699 19.2823 19.2233 18.9854 18.3108C18.6888 17.3985 18.5405 15.7135 18.5405 14.4253V7.8161Z" fill="url(#paint1_linear)"/>
<path fill-rule="evenodd" clip-rule="evenodd" d="M42.8627 17.2384H50.9868V21.1984H38.1113V0.597656H42.8627V17.2384Z" fill="url(#paint2_linear)"/>
<path fill-rule="evenodd" clip-rule="evenodd" d="M60.6255 4.66294C59.904 4.66294 59.2947 4.71477 58.7967 4.81737C58.2989 4.92062 57.8911 5.11729 57.5736 5.40782C57.2558 5.69856 57.0266 6.10748 56.8845 6.63542C56.743 7.16294 56.6723 8.43683 56.6723 9.28688V13.5665C56.6723 14.4166 56.743 15.6879 56.8845 16.2114C57.0266 16.734 57.2558 17.1435 57.5736 17.4386C57.8911 17.7338 58.2989 17.9332 58.7967 18.0356C59.2947 18.1384 59.904 18.19 60.6255 18.19H60.9191C61.6402 18.19 62.2497 18.1384 62.7477 18.0356C63.2455 17.9332 63.6533 17.7363 63.971 17.4458C64.2884 17.1549 64.518 16.7457 64.6597 16.2178C64.8018 15.6905 64.8723 14.4166 64.8723 13.5665V9.26C64.8723 8.40995 64.8018 7.13862 64.6597 6.61537C64.518 6.09212 64.2905 5.68512 63.9772 5.39438C63.6639 5.10385 63.2563 4.90952 62.7538 4.81076C62.2517 4.71242 61.6402 4.66294 60.9191 4.66294H60.6255ZM52.0171 7.8161C52.0171 6.52813 52.1651 5.42766 52.4618 4.51575C52.7587 3.60321 53.2183 2.85662 53.8418 2.27492C54.465 1.69365 55.2601 1.26895 56.2274 1.00039C57.1945 0.731829 58.3531 0.597656 59.7029 0.597656H61.8677C63.226 0.597656 64.3887 0.729909 65.3558 0.993775C66.3233 1.25764 67.1161 1.67786 67.735 2.25487C68.3542 2.83166 68.8075 3.57868 69.0958 4.49527C69.3838 5.4123 69.5277 6.51938 69.5277 7.8161V14.4253C69.5277 15.7135 69.3811 17.3985 69.089 18.3108C68.7968 19.2233 68.3413 19.9699 67.7223 20.5514C67.1032 21.1327 66.3103 21.5576 65.3428 21.8259C64.3758 22.0947 63.2174 22.2284 61.8677 22.2284H59.7029C58.3531 22.2284 57.1945 22.0947 56.2274 21.8259C55.2601 21.5576 54.465 21.1327 53.8418 20.5514C53.2183 19.9699 52.7587 19.2233 52.4618 18.3108C52.1651 17.3985 52.0171 15.7135 52.0171 14.4253V7.8161Z" fill="url(#paint3_linear)"/>
<path fill-rule="evenodd" clip-rule="evenodd" d="M72.6177 0.597656H77.9819L85.7531 14.662V0.597656H90.1283V21.1984H84.7643L76.9933 6.97681V21.1984H72.6177V0.597656Z" fill="url(#paint4_linear)"/>
<path fill-rule="evenodd" clip-rule="evenodd" d="M93.2183 21.1984H98.3685V0.597656H93.2183V21.1984Z" fill="url(#paint5_linear)"/>
<path fill-rule="evenodd" clip-rule="evenodd" d="M111.755 17.2112C115.101 17.2112 118.158 15.6882 118.158 10.7873C118.158 5.88614 115.101 4.52942 111.755 4.52942H110.754V17.2112H111.755ZM106.094 0.597656H112.062C118.392 0.597656 122.575 3.61573 122.575 10.7873C122.575 17.9588 118.392 21.1984 112.341 21.1984H106.094V0.597656Z" fill="url(#paint6_linear)"/>
<path fill-rule="evenodd" clip-rule="evenodd" d="M125.665 0.597656H140.343V4.55768H130.436V8.77433H140.019V12.7084H130.436V17.2386H140.343V21.1984H125.665V0.597656Z" fill="url(#paint7_linear)"/>
<path fill-rule="evenodd" clip-rule="evenodd" d="M158.17 9.35298L163.776 0.597656H157.656L155.021 4.58702L158.17 9.35298Z" fill="url(#paint8_linear)"/>
<path fill-rule="evenodd" clip-rule="evenodd" d="M158.048 13.4731L155.021 17.9727L157.884 22.2285H163.776L158.048 13.4731Z" fill="url(#paint9_linear)"/>
<path fill-rule="evenodd" clip-rule="evenodd" d="M156.051 10.898L148.37 21.1984H142.145L149.588 10.9172L142.484 0.597656H148.735L156.051 10.898Z" fill="url(#paint10_linear)"/>
<defs>
<linearGradient id="paint0_linear" x1="8.22732" y1="0.755859" x2="8.22732" y2="22.2004" gradientUnits="userSpaceOnUse">
<stop stop-color="#31A6A9"/>
<stop offset="1" stop-color="#198A8E"/>
</linearGradient>
<linearGradient id="paint1_linear" x1="27.2958" y1="0.597656" x2="27.2958" y2="22.2284" gradientUnits="userSpaceOnUse">
<stop stop-color="#31A6A9"/>
<stop offset="1" stop-color="#198A8E"/>
</linearGradient>
<linearGradient id="paint2_linear" x1="44.5491" y1="0.597656" x2="44.5491" y2="21.1984" gradientUnits="userSpaceOnUse">
<stop stop-color="#31A6A9"/>
<stop offset="1" stop-color="#198A8E"/>
</linearGradient>
<linearGradient id="paint3_linear" x1="60.7724" y1="0.597656" x2="60.7724" y2="22.2284" gradientUnits="userSpaceOnUse">
<stop stop-color="#31A6A9"/>
<stop offset="1" stop-color="#198A8E"/>
</linearGradient>
<linearGradient id="paint4_linear" x1="81.373" y1="0.597656" x2="81.373" y2="21.1984" gradientUnits="userSpaceOnUse">
<stop stop-color="#31A6A9"/>
<stop offset="1" stop-color="#198A8E"/>
</linearGradient>
<linearGradient id="paint5_linear" x1="95.7934" y1="0.597656" x2="95.7934" y2="21.1984" gradientUnits="userSpaceOnUse">
<stop stop-color="#31A6A9"/>
<stop offset="1" stop-color="#198A8E"/>
</linearGradient>
<linearGradient id="paint6_linear" x1="114.335" y1="0.597656" x2="114.335" y2="21.1984" gradientUnits="userSpaceOnUse">
<stop stop-color="#E6E7E7"/>
<stop offset="1" stop-color="#C9CACA"/>
</linearGradient>
<linearGradient id="paint7_linear" x1="133.004" y1="0.597656" x2="133.004" y2="21.1984" gradientUnits="userSpaceOnUse">
<stop stop-color="#E6E7E7"/>
<stop offset="1" stop-color="#C9CACA"/>
</linearGradient>
<linearGradient id="paint8_linear" x1="159.399" y1="0.597656" x2="159.399" y2="9.35298" gradientUnits="userSpaceOnUse">
<stop stop-color="#E6E7E7"/>
<stop offset="1" stop-color="#C9CACA"/>
</linearGradient>
<linearGradient id="paint9_linear" x1="159.399" y1="13.4731" x2="159.399" y2="22.2285" gradientUnits="userSpaceOnUse">
<stop stop-color="#E6E7E7"/>
<stop offset="1" stop-color="#C9CACA"/>
</linearGradient>
<linearGradient id="paint10_linear" x1="149.098" y1="0.597656" x2="149.098" y2="21.1984" gradientUnits="userSpaceOnUse">
<stop stop-color="#E6E7E7"/>
<stop offset="1" stop-color="#C9CACA"/>
</linearGradient>
</defs>
</svg>
