<svg width="249" height="26" viewBox="0 0 249 26" fill="none" xmlns="http://www.w3.org/2000/svg">
<g clip-path="url(#clip0)">
<path fill-rule="evenodd" clip-rule="evenodd" d="M39.0938 25.6514H45.4352V17.8082H48.7767L52.787 25.6514H59.4542L54.6131 16.5734L55.0531 16.3126C55.4099 16.0991 55.7386 15.839 56.0313 15.5387C56.4607 15.1172 56.8534 14.6575 57.205 14.1647C57.6457 13.5234 57.9843 12.813 58.2075 12.0605C58.4902 11.1594 58.6306 10.2169 58.6232 9.26938C58.6492 8.1366 58.449 7.01046 58.0353 5.96158C57.6215 4.91269 57.0031 3.96368 56.2187 3.17402C54.6157 1.53341 52.5808 0.713107 50.1138 0.713107H39.0938V25.6514ZM52.282 9.26055C52.2905 9.59175 52.2325 9.92118 52.1119 10.228C51.9912 10.5348 51.8105 10.8124 51.581 11.0432C51.3412 11.282 51.0573 11.4682 50.7464 11.5908C50.4355 11.7133 50.1039 11.7696 49.7715 11.7563H45.4347V6.78348H49.7715C50.1032 6.77 50.4342 6.82536 50.7449 6.94631C51.0557 7.06725 51.3399 7.25134 51.581 7.48775C51.8106 7.71633 51.9916 7.99211 52.1123 8.2974C52.233 8.60269 52.2908 8.93076 52.282 9.26055ZM67.2968 16.9212C67.2733 15.943 67.6148 14.9931 68.2504 14.2692C68.5193 13.9294 68.8577 13.6557 69.2411 13.4677C69.6245 13.2798 70.0434 13.1823 70.4675 13.1823C70.8916 13.1823 71.3105 13.2798 71.6939 13.4677C72.0773 13.6557 72.4157 13.9294 72.6846 14.2692C73.3202 14.9931 73.6617 15.943 73.6382 16.9212C73.6617 17.8994 73.3201 18.8493 72.6846 19.5732C72.4157 19.913 72.0773 20.1867 71.6939 20.3747C71.3105 20.5626 70.8916 20.6601 70.4675 20.6601C70.0434 20.6601 69.6245 20.5626 69.2411 20.3747C68.8577 20.1867 68.5193 19.913 68.2504 19.5732C67.6149 18.8493 67.2733 17.8994 67.2968 16.9212ZM79.4741 16.9212C79.4741 14.4979 78.5911 12.3791 76.825 10.5648C75.1352 8.82178 72.8478 7.84319 70.4634 7.84319C68.0789 7.84319 65.7915 8.82178 64.1017 10.5648C62.3301 12.3793 61.4444 14.4981 61.4445 16.9212C61.4447 19.3443 62.3304 21.4631 64.1017 23.2776C65.7915 25.0206 68.0789 25.9992 70.4634 25.9992C72.8478 25.9992 75.1352 25.0206 76.825 23.2776C78.5919 21.4631 79.4754 19.3443 79.4754 16.9212H79.4741ZM81.8063 16.9212C81.8063 19.3445 82.692 21.4633 84.4634 23.2776C85.2897 24.1541 86.2794 24.8474 87.3724 25.3154C88.4653 25.7834 89.6387 26.0163 90.8212 26C91.6776 26.002 92.5293 25.8701 93.3477 25.6087C94.0349 25.4041 94.6971 25.1182 95.3212 24.7565C95.8201 24.4503 96.2896 24.0952 96.7234 23.6964C97.0233 23.4373 97.3014 23.1522 97.5546 22.8442C97.6742 22.6759 97.7665 22.5455 97.8317 22.4529L94.5053 18.7124L94.1629 19.1645C93.833 19.5785 93.4254 19.9188 92.9647 20.1646C92.4171 20.4917 91.7956 20.6627 91.1635 20.6602C90.6974 20.6724 90.234 20.5836 89.8029 20.3994C89.3719 20.2152 88.9828 19.9398 88.6606 19.5906C88.3297 19.2377 88.0705 18.8196 87.8983 18.3611C87.7261 17.9026 87.6444 17.413 87.658 16.9212C87.6444 16.4294 87.7261 15.9398 87.8983 15.4813C88.0705 15.0228 88.3297 14.6047 88.6606 14.2518C88.9828 13.9027 89.3718 13.6273 89.8027 13.4431C90.2337 13.2589 90.697 13.1701 91.163 13.1823C91.8126 13.1845 92.4484 13.377 92.9969 13.7376C93.4104 13.9732 93.7892 14.269 94.1218 14.6158C94.2581 14.7856 94.386 14.9625 94.5048 15.1459L97.8302 11.4069L97.5695 11.0417C97.3185 10.7046 97.0283 10.4009 96.7056 10.1375C96.2659 9.76157 95.803 9.41585 95.3197 9.10253C94.6985 8.71539 94.0296 8.41702 93.3312 8.2155C91.7855 7.74728 90.1469 7.71815 88.5867 8.13115C87.0264 8.54416 85.6021 9.3841 84.4627 10.5631C82.6916 12.3787 81.8061 14.4981 81.8063 16.9212ZM111.851 15.6863L117.85 8.19101H111.345L106.504 14.2604V0.713107H100.831V25.6514H106.504V21.1993L108.004 19.4255L111.851 25.6514H118.029L111.851 15.6863ZM122.35 0L118.682 8.7302L122.187 10.8693L127.029 2.85243L122.35 0ZM135.196 8.19101H129.523V25.6514H135.196V16.9212C135.196 15.8778 135.446 15.0547 135.946 14.4517C136.18 14.1602 136.474 13.9274 136.807 13.7708C137.14 13.6142 137.504 13.5379 137.869 13.5475C138.186 13.5379 138.502 13.6016 138.792 13.7339C139.083 13.8663 139.341 14.064 139.548 14.3126C139.983 14.8227 140.2 15.5183 140.2 16.3994V25.6514H145.874V15.3223C145.874 13.0963 145.314 11.2934 144.194 9.91383C143.675 9.249 143.016 8.71659 142.267 8.35769C141.518 7.9988 140.699 7.82302 139.874 7.84392C138.978 7.84561 138.098 8.08512 137.316 8.53961C136.501 9.00341 135.977 9.37153 135.743 9.64398C135.51 9.91644 135.327 10.1451 135.196 10.3301V8.19101ZM152.379 0L148.711 8.7302L152.216 10.8693L157.058 2.85243L152.379 0ZM171.567 25.6514C174.055 25.6514 176.096 24.921 177.688 23.4601C179.28 21.9992 180.076 20.2949 180.076 18.3472C180.084 17.5522 179.931 16.7644 179.627 16.0342C179.387 15.4228 179.048 14.8582 178.625 14.3646C178.245 13.9501 177.818 13.5851 177.353 13.2777C177.032 13.0525 176.697 12.8492 176.351 12.6691C176.161 12.5821 176.011 12.5154 175.902 12.4691L176.212 12.2952C176.488 12.1352 176.743 11.9394 176.97 11.7126C177.283 11.4129 177.574 11.0903 177.843 10.7473C178.175 10.301 178.428 9.79765 178.592 9.26029C178.8 8.63063 178.905 7.96928 178.902 7.30373C178.902 5.52984 178.168 3.98785 176.701 2.67775C175.234 1.36765 173.3 0.712602 170.898 0.712602H160.384V25.6509H171.567V25.6514ZM166.725 20.3126V15.3223H171.062C171.394 15.309 171.726 15.3653 172.037 15.4879C172.348 15.6104 172.631 15.7966 172.871 16.0354C173.321 16.5118 173.573 17.1517 173.573 17.818C173.573 18.4843 173.321 19.1241 172.871 19.6005C172.631 19.8393 172.348 20.0255 172.037 20.148C171.726 20.2706 171.394 20.3269 171.062 20.3136H166.725V20.3126ZM170.231 6.06936C170.519 6.054 170.807 6.09754 171.078 6.19752C171.349 6.29749 171.599 6.45191 171.812 6.65196C172.009 6.85297 172.164 7.09463 172.265 7.36129C172.366 7.62794 172.412 7.91364 172.399 8.19985C172.412 8.48606 172.366 8.77175 172.265 9.03841C172.164 9.30506 172.009 9.54673 171.812 9.74773C171.599 9.94778 171.349 10.1022 171.078 10.2022C170.807 10.3021 170.519 10.3457 170.231 10.3303H166.725V6.06936H170.231ZM189.092 0.713107H183.419V25.6514H189.092V0.713107ZM198.271 16.9215C198.247 15.9431 198.589 14.9931 199.224 14.2692C199.493 13.9294 199.832 13.6556 200.215 13.4676C200.598 13.2797 201.017 13.1822 201.441 13.1822C201.866 13.1822 202.284 13.2797 202.668 13.4676C203.051 13.6556 203.39 13.9294 203.659 14.2692C204.294 14.993 204.636 15.943 204.612 16.9212C204.636 17.8995 204.294 18.8496 203.659 19.5735C203.39 19.9133 203.051 20.1871 202.668 20.375C202.284 20.563 201.866 20.6605 201.441 20.6605C201.017 20.6605 200.598 20.563 200.215 20.375C199.832 20.1871 199.493 19.9133 199.224 19.5735C198.589 18.8496 198.247 17.8996 198.271 16.9212V16.9215ZM210.448 16.9215C210.448 14.4982 209.565 12.3794 207.799 10.5651C206.109 8.82204 203.822 7.84344 201.437 7.84344C199.053 7.84344 196.765 8.82204 195.075 10.5651C193.304 12.3795 192.418 14.4983 192.418 16.9215C192.418 19.3446 193.304 21.4634 195.075 23.2778C196.765 25.0209 199.053 25.9995 201.437 25.9995C203.822 25.9995 206.109 25.0209 207.799 23.2778C209.565 21.4632 210.448 19.3443 210.448 16.9212V16.9215ZM212.78 16.9215C212.78 19.3448 213.666 21.4636 215.437 23.2778C216.263 24.1543 217.253 24.8475 218.346 25.3155C219.439 25.7834 220.612 26.0163 221.795 26C222.651 26.002 223.503 25.8701 224.321 25.6087C225.009 25.4041 225.671 25.1181 226.295 24.7565C226.794 24.4503 227.263 24.0953 227.697 23.6964C227.997 23.4373 228.275 23.1522 228.528 22.8442C228.648 22.6759 228.74 22.5455 228.805 22.4529L225.479 18.7124L225.137 19.1645C224.807 19.5785 224.399 19.9188 223.938 20.1646C223.391 20.4917 222.769 20.6627 222.137 20.6602C221.671 20.6723 221.208 20.5835 220.777 20.3993C220.346 20.2151 219.957 19.9397 219.635 19.5906C219.304 19.2377 219.045 18.8196 218.872 18.3611C218.7 17.9026 218.619 17.413 218.632 16.9212C218.619 16.4294 218.7 15.9398 218.872 15.4813C219.045 15.0228 219.304 14.6047 219.635 14.2518C219.957 13.9027 220.346 13.6273 220.777 13.4431C221.208 13.2589 221.671 13.1701 222.137 13.1823C222.787 13.1845 223.423 13.377 223.971 13.7376C224.385 13.9731 224.763 14.2689 225.096 14.6158C225.232 14.7855 225.36 14.9625 225.479 15.1459L228.804 11.4069L228.544 11.0417C228.293 10.7046 228.002 10.4009 227.68 10.1375C227.24 9.76151 226.777 9.41579 226.294 9.10253C225.673 8.71535 225.004 8.41697 224.305 8.2155C222.76 7.74723 221.121 7.71807 219.561 8.13107C218 8.54408 216.576 9.38406 215.437 10.5631C213.665 12.3787 212.78 14.4981 212.78 16.9212V16.9215ZM242.825 15.6866L248.825 8.19126H242.319L237.478 14.2604V0.713107H231.805V25.6514H237.478V21.1993L238.978 19.4255L242.825 25.6514H249.002L242.825 15.6866Z" fill="#2F2F2F"/>
<path fill-rule="evenodd" clip-rule="evenodd" d="M0 0.536621H24.1433V25.59H0V0.536621Z" fill="#FF0000"/>
<path fill-rule="evenodd" clip-rule="evenodd" d="M15.2517 2.68799L5.24756 13.4835H11.4869L7.6825 23.1515L18.8931 10.1078H12.6537L15.2517 2.68799Z" fill="white"/>
</g>
<defs>
<clipPath id="clip0">
<rect width="249" height="26" fill="white"/>
</clipPath>
</defs>
</svg>
