<svg width="128" height="33" viewBox="0 0 128 33" fill="none" xmlns="http://www.w3.org/2000/svg">
<path fill-rule="evenodd" clip-rule="evenodd" d="M9.42556 0.773926L2.00084 5.12507L9.42556 9.47622L16.9911 5.12507L9.42556 0.773926ZM10.6468 24.0044V32.7066L20.7342 26.9525V18.2489L10.6468 24.0044ZM18.2123 7.86198V16.5655L10.6468 20.9167V12.2131L18.2123 7.86198ZM0 16.5655L7.56554 20.9167V12.2131L0 7.86198V16.5655ZM0 28.3555L7.56554 32.7066V24.0044L0 19.6532V28.3555ZM46.8615 12.6996V12.2758C46.8615 11.0034 46.1651 10.2981 44.9106 10.2981H38.638V14.6786H44.9106C46.1651 14.6786 46.8615 13.972 46.8615 12.7009V12.6996ZM51.461 19.9067V21.7437C51.461 25.1351 49.7892 26.8309 46.4455 26.8309H35.855C35.7614 26.8358 35.6678 26.8208 35.5804 26.7869C35.493 26.753 35.4138 26.7009 35.348 26.6341C35.2821 26.5674 35.2312 26.4874 35.1986 26.3995C35.166 26.3116 35.1524 26.2178 35.1586 26.1242V7.75317C35.1524 7.65962 35.166 7.56581 35.1986 7.47792C35.2312 7.39003 35.2821 7.31006 35.348 7.24328C35.4138 7.1765 35.493 7.12444 35.5804 7.09053C35.6678 7.05662 35.7614 7.04162 35.855 7.04654H45.3279C48.6716 7.04654 50.3435 8.74228 50.3435 12.1338V12.6996C50.3435 15.3878 48.3926 15.9498 48.3926 15.9498V16.0906C48.3926 16.0906 51.461 16.6564 51.461 19.9067ZM47.9765 21.6016V19.9067C47.9765 18.6342 47.2801 17.9289 46.0256 17.9289H38.6419V23.5819H46.0256C47.2801 23.5819 47.9765 22.8753 47.9765 21.6041V21.6016ZM61.3513 24.2898C62.7441 24.2898 63.7195 23.3003 63.7195 21.887V20.8975H59.1226C58.1471 20.8975 57.5864 21.4633 57.5864 22.4516V22.7345C57.5864 23.724 58.1433 24.2885 59.1226 24.2885H61.3513V24.2898ZM66.7854 16.659V26.1319C66.7917 26.2255 66.7781 26.3193 66.7454 26.4072C66.7128 26.4951 66.6619 26.575 66.5961 26.6418C66.5303 26.7086 66.4511 26.7607 66.3636 26.7946C66.2762 26.8285 66.1826 26.8435 66.089 26.8386H64.4172C64.3235 26.8435 64.2299 26.8285 64.1425 26.7946C64.0551 26.7607 63.9759 26.7086 63.9101 26.6418C63.8443 26.575 63.7934 26.4951 63.7608 26.4072C63.7281 26.3193 63.7145 26.2255 63.7208 26.1319V25.4253H63.5813C63.5813 25.4253 62.8849 27.1215 60.7944 27.1215H58.704C55.9176 27.1215 54.5244 25.7082 54.5244 22.8817V22.458C54.5244 19.6314 55.9176 18.2182 58.704 18.2182H63.7195V16.8101C63.7195 15.6797 63.0231 14.9731 61.9081 14.9731H59.9585C58.983 14.9731 58.4223 15.5389 58.4223 16.5271C58.4286 16.6207 58.415 16.7145 58.3824 16.8024C58.3497 16.8903 58.2988 16.9703 58.233 17.037C58.1672 17.1038 58.088 17.1559 58.0006 17.1898C57.9132 17.2237 57.8196 17.2387 57.726 17.2338H56.0567C55.9631 17.2387 55.8694 17.2237 55.782 17.1898C55.6946 17.1559 55.6154 17.1038 55.5496 17.037C55.4838 16.9703 55.4329 16.8903 55.4003 16.8024C55.3676 16.7145 55.354 16.6207 55.3603 16.5271C55.3603 13.7006 56.8964 12.1466 59.819 12.1466H62.3267C65.2531 12.1466 66.7854 13.7006 66.7854 16.6692V16.659ZM83.3656 16.659C83.3656 13.6917 81.8294 12.1363 78.9069 12.1363H76.6795C74.5891 12.1363 73.8927 13.8325 73.8927 13.8325H73.7531V13.1233C73.7594 13.0297 73.7458 12.9359 73.7132 12.848C73.6805 12.7602 73.6296 12.6802 73.5638 12.6134C73.498 12.5466 73.4188 12.4946 73.3314 12.4607C73.244 12.4267 73.1504 12.4117 73.0567 12.4167H71.3823C71.2887 12.4117 71.1951 12.4267 71.1077 12.4607C71.0203 12.4946 70.9411 12.5466 70.8753 12.6134C70.8095 12.6802 70.7586 12.7602 70.7259 12.848C70.6933 12.9359 70.6797 13.0297 70.6859 13.1233V26.1204C70.6797 26.2139 70.6933 26.3078 70.7259 26.3957C70.7586 26.4835 70.8095 26.5635 70.8753 26.6303C70.9411 26.6971 71.0203 26.7491 71.1077 26.783C71.1951 26.817 71.2887 26.8319 71.3823 26.827H73.0542C73.1478 26.8319 73.2414 26.817 73.3288 26.783C73.4162 26.7491 73.4954 26.6971 73.5612 26.6303C73.6271 26.5635 73.678 26.4835 73.7106 26.3957C73.7432 26.3078 73.7569 26.2139 73.7506 26.1204V17.3631C73.7506 15.9549 74.726 14.9603 76.1188 14.9603H78.487C79.602 14.9603 80.2984 15.6669 80.2984 16.7973V26.1204C80.2921 26.2139 80.3057 26.3078 80.3384 26.3957C80.371 26.4835 80.4219 26.5635 80.4877 26.6303C80.5535 26.6971 80.6328 26.7491 80.7202 26.783C80.8076 26.817 80.9012 26.8319 80.9948 26.827H82.6666C82.7603 26.8319 82.8539 26.817 82.9413 26.783C83.0287 26.7491 83.1079 26.6971 83.1737 26.6303C83.2395 26.5635 83.2904 26.4835 83.3231 26.3957C83.3557 26.3078 83.3693 26.2139 83.363 26.1204V16.6475L83.3656 16.659ZM96.7403 22.4528C96.7403 23.5832 96.0439 24.2898 94.929 24.2898H92.0026C90.8876 24.2898 90.1912 23.5832 90.1912 22.4528V16.7973C90.1912 15.6669 90.8876 14.9603 92.0026 14.9603H94.929C96.0439 14.9603 96.7403 15.6669 96.7403 16.7973V17.221C96.7341 17.3145 96.7477 17.4083 96.7803 17.4962C96.8129 17.5841 96.8638 17.6641 96.9296 17.7309C96.9955 17.7976 97.0747 17.8497 97.1621 17.8836C97.2495 17.9175 97.3431 17.9325 97.4367 17.9276H99.1086C99.2022 17.9325 99.2958 17.9175 99.3832 17.8836C99.4706 17.8497 99.5498 17.7976 99.6156 17.7309C99.6814 17.6641 99.7323 17.5841 99.765 17.4962C99.7976 17.4083 99.8112 17.3145 99.805 17.221V16.6552C99.805 13.6878 98.2688 12.1325 95.3463 12.1325H91.5853C88.6589 12.1325 87.1266 13.6865 87.1266 16.6552V22.5898C87.1266 25.5571 88.6627 27.1125 91.5853 27.1125H95.3476C98.2739 27.1125 99.8062 25.5584 99.8062 22.5898V22.024C99.8125 21.9305 99.7989 21.8366 99.7663 21.7488C99.7336 21.6609 99.6827 21.5809 99.6169 21.5141C99.5511 21.4473 99.4719 21.3953 99.3845 21.3614C99.2971 21.3274 99.2035 21.3125 99.1098 21.3174H97.4367C97.3431 21.3125 97.2495 21.3274 97.1621 21.3614C97.0747 21.3953 96.9955 21.4473 96.9296 21.5141C96.8638 21.5809 96.8129 21.6609 96.7803 21.7488C96.7477 21.8366 96.7341 21.9305 96.7403 22.024V22.4477V22.4528ZM106.213 16.7998V22.4528C106.213 23.5832 106.91 24.2898 108.025 24.2898H111.225C112.34 24.2898 113.036 23.5832 113.036 22.4528V16.7973C113.036 15.6669 112.34 14.9603 111.225 14.9603H108.025C106.91 14.9603 106.213 15.6669 106.213 16.7973V16.7998ZM103.149 22.5937V16.6564C103.149 13.6891 104.685 12.1338 107.607 12.1338H111.647C114.571 12.1338 116.107 13.6878 116.107 16.6564V22.5911C116.107 25.5584 114.571 27.1138 111.649 27.1138H107.607C104.681 27.1138 103.149 25.5597 103.149 22.5911V22.5937ZM125.858 12.1363C123.768 12.1363 123.071 13.8325 123.071 13.8325H122.932V13.1233C122.938 13.0297 122.924 12.9359 122.892 12.848C122.859 12.7602 122.808 12.6802 122.742 12.6134C122.677 12.5466 122.597 12.4946 122.51 12.4607C122.423 12.4267 122.329 12.4117 122.235 12.4167H120.565C120.471 12.4117 120.378 12.4267 120.29 12.4607C120.203 12.4946 120.123 12.5466 120.058 12.6134C119.992 12.6802 119.941 12.7602 119.908 12.848C119.876 12.9359 119.862 13.0297 119.868 13.1233V26.1204C119.862 26.2139 119.876 26.3078 119.908 26.3957C119.941 26.4835 119.992 26.5635 120.058 26.6303C120.123 26.6971 120.203 26.7491 120.29 26.783C120.378 26.817 120.471 26.8319 120.565 26.827H122.237C122.33 26.8319 122.424 26.817 122.511 26.783C122.599 26.7491 122.678 26.6971 122.744 26.6303C122.809 26.5635 122.86 26.4835 122.893 26.3957C122.926 26.3078 122.939 26.2139 122.933 26.1204V17.5039C122.933 16.0957 123.908 15.1011 125.301 15.1011H127.252C127.346 15.106 127.439 15.091 127.527 15.0571C127.614 15.0232 127.693 14.9711 127.759 14.9043C127.825 14.8376 127.876 14.7576 127.909 14.6697C127.941 14.5818 127.955 14.488 127.949 14.3945V12.8404C127.955 12.7468 127.941 12.653 127.909 12.5651C127.876 12.4772 127.825 12.3973 127.759 12.3305C127.693 12.2637 127.614 12.2117 127.527 12.1777C127.439 12.1438 127.346 12.1288 127.252 12.1338H125.859L125.858 12.1363Z" fill="black"/>
</svg>
