<svg width="118" height="46" viewBox="0 0 118 46" fill="none" xmlns="http://www.w3.org/2000/svg">
<path d="M64.2901 14.7238C65.8803 16.1247 66.6754 18.2072 66.6754 20.8954V34.8666H63.1921V22.107C63.1921 19.8352 62.6999 18.1693 61.7155 17.147C60.731 16.1247 59.4437 15.6325 57.8156 15.6325C56.6743 15.6309 55.5477 15.8899 54.5216 16.3898C53.4602 16.9577 52.5907 17.8272 52.0227 18.8887C51.3412 20.0246 51.0383 21.5012 51.0383 23.2429V34.8666H47.5171V13.6637L50.7354 14.9889L50.8111 16.4276C51.4775 15.1528 52.5407 14.1295 53.8401 13.5122C55.1831 12.8578 56.6628 12.5333 58.1564 12.5657C60.6301 12.5657 62.6746 13.2851 64.2901 14.7238Z" fill="#000033"/>
<path d="M91.5513 25.2499H75.0812C75.2705 27.4838 76.0278 29.1876 77.2772 30.3992C78.5267 31.6108 80.1926 32.2545 82.1993 32.2545C83.5837 32.2929 84.958 32.0077 86.2127 31.4215C87.2175 30.922 87.9906 30.0539 88.3709 28.9983L91.2863 30.5507C90.4923 32.0381 89.2817 33.2618 87.803 34.0719C86.3642 34.9048 84.4711 35.3213 82.1993 35.3213C78.9053 35.3213 76.3307 34.299 74.4376 32.2923C72.5444 30.2856 71.6357 27.4838 71.6357 23.9248C71.6357 20.3657 72.5066 17.6017 74.324 15.595C76.1414 13.5883 78.6403 12.5661 81.9343 12.5661C83.7938 12.5164 85.6301 12.9886 87.235 13.9291C88.6907 14.8006 89.8615 16.0766 90.6048 17.6017C91.376 19.2209 91.7646 20.9956 91.7406 22.7889C91.7341 23.6126 91.6708 24.4349 91.5513 25.2499ZM77.2772 17.3367C76.1035 18.4726 75.3841 20.0628 75.1191 22.1452H88.3709C88.1437 20.1007 87.4622 18.5104 86.3642 17.3746C85.2662 16.2387 83.7895 15.6329 81.9343 15.6329C80.079 15.6329 78.451 16.2008 77.2772 17.3367Z" fill="#000033"/>
<path d="M114.874 15.5954C116.767 17.6021 117.714 20.3661 117.714 23.9251C117.714 27.4842 116.767 30.286 114.874 32.2927C112.981 34.2994 110.406 35.3217 107.112 35.3217C103.818 35.3217 101.244 34.2994 99.3506 32.2927C97.4575 30.286 96.5488 27.4842 96.5488 23.9251C96.5488 20.3661 97.4954 17.6021 99.3506 15.5954C101.206 13.5887 103.818 12.5664 107.112 12.5664C110.406 12.5664 113.019 13.5887 114.874 15.5954ZM101.925 17.8293C100.676 19.3059 100.032 21.3505 100.032 23.9251C100.032 26.4997 100.676 28.5822 101.925 30.0588C103.175 31.5354 104.916 32.2927 107.112 32.2927C109.308 32.2927 111.088 31.5354 112.337 30.0588C113.587 28.5822 114.193 26.5376 114.193 23.9251C114.193 21.3126 113.587 19.3059 112.337 17.8293C111.088 16.3526 109.346 15.5954 107.112 15.5954C104.879 15.5954 103.175 16.3148 101.925 17.8293Z" fill="#000033"/>
<path d="M0 8.3632V38.7667L19.7641 45.8469V15.1784L41.0806 7.34092L21.733 0.412109L0 8.3632Z" fill="#00E599"/>
<path d="M21.3545 16.3143V32.7087L41.0808 39.7511V9.00684L21.3545 16.3143Z" fill="#00AF92"/>
</svg>
