<svg width="140" height="46" viewBox="0 0 140 46" fill="none" xmlns="http://www.w3.org/2000/svg">
<path d="M72.0209 23.2182C72.0209 24.7323 71.7856 26.1611 71.2936 27.4832C70.8017 28.8267 70.1172 29.9783 69.1974 30.9805C68.2776 31.9828 67.1653 32.7718 65.8177 33.3689C64.4702 33.966 62.9514 34.2433 61.2402 34.2433C59.529 34.2433 58.0103 33.9447 56.6627 33.3689C55.3151 32.7718 54.2029 31.9828 53.2831 30.9805C52.3633 29.9783 51.6574 28.8054 51.1868 27.4832C50.7163 26.1398 50.481 24.7323 50.481 23.2182C50.481 21.7255 50.7163 20.2967 51.1868 18.9532C51.6574 17.6098 52.3633 16.4369 53.2831 15.4346C54.2029 14.4323 55.3365 13.6433 56.6627 13.0462C58.0103 12.4491 59.529 12.1719 61.2402 12.1719C62.9514 12.1719 64.4702 12.4704 65.8177 13.0462C67.1653 13.6433 68.2776 14.4323 69.1974 15.4346C70.1172 16.4369 70.8017 17.6098 71.2936 18.9532C71.7856 20.2967 72.0209 21.7255 72.0209 23.2182ZM61.2616 30.746C62.3097 30.746 63.2295 30.554 63.9996 30.1702C64.791 29.7863 65.4327 29.2532 65.9675 28.5921C66.5022 27.9097 66.8873 27.1207 67.1439 26.2037C67.4006 25.2868 67.529 24.2845 67.529 23.2182C67.529 22.152 67.4006 21.1497 67.1439 20.2327C66.8873 19.3158 66.5022 18.5267 65.9675 17.8443C65.4327 17.1619 64.791 16.6501 63.9996 16.2663C63.2081 15.8824 62.3097 15.6905 61.2616 15.6905C60.2135 15.6905 59.2937 15.8824 58.5237 16.2663C57.7322 16.6501 57.0905 17.1833 56.5558 17.8443C56.021 18.5267 55.636 19.3158 55.3793 20.2327C55.1226 21.1497 54.9943 22.152 54.9943 23.2182C54.9943 24.2845 55.1226 25.2868 55.3793 26.2037C55.636 27.1207 56.021 27.9097 56.5558 28.5921C57.0905 29.2745 57.7322 29.7863 58.5237 30.1702C59.2937 30.554 60.2135 30.746 61.2616 30.746ZM74.8444 33.8807V12.5557H79.3364V22.7917L86.7588 12.5557H91.9566L84.085 23.0903L92.4913 33.8807H86.9299L79.315 23.4102V33.8807H74.8444ZM94.2881 12.5557H107.144V16.117H98.8014V21.2777H106.759V24.8176H98.8014V30.3195H107.251V33.8807H94.3095V12.5557H94.2881ZM123.165 12.5557H128.042L121.004 23.1543L128.17 33.8807H123.25L118.63 26.6089L114.01 33.8807H109.09L116.256 23.1543L109.218 12.5557H114.095L118.63 19.7636L123.165 12.5557Z" fill="#1A1A1A"/>
<path d="M22.6736 21.1283C28.344 21.1283 32.9409 16.5454 32.9409 10.8923C32.9409 5.23906 28.344 0.65625 22.6736 0.65625C17.0031 0.65625 12.4062 5.23906 12.4062 10.8923C12.4062 16.5454 17.0031 21.1283 22.6736 21.1283Z" fill="#88BDF3"/>
<path d="M22.6736 45.8656C28.344 45.8656 32.9409 41.2827 32.9409 35.6296C32.9409 29.9764 28.344 25.3936 22.6736 25.3936C17.0031 25.3936 12.4062 29.9764 12.4062 35.6296C12.4062 41.2827 17.0031 45.8656 22.6736 45.8656Z" fill="#3075EE"/>
<path d="M35.0798 33.4964C40.7503 33.4964 45.3471 28.9136 45.3471 23.2604C45.3471 17.6072 40.7503 13.0244 35.0798 13.0244C29.4093 13.0244 24.8125 17.6072 24.8125 23.2604C24.8125 28.9136 29.4093 33.4964 35.0798 33.4964Z" fill="#5795F1"/>
<path d="M10.2673 33.4964C15.9378 33.4964 20.5346 28.9136 20.5346 23.2604C20.5346 17.6072 15.9378 13.0244 10.2673 13.0244C4.59683 13.0244 0 17.6072 0 23.2604C0 28.9136 4.59683 33.4964 10.2673 33.4964Z" fill="#205FEC"/>
<path fill-rule="evenodd" clip-rule="evenodd" d="M20.2462 20.8404C16.5258 19.9411 13.5973 17.0216 12.6953 13.3125C16.4157 14.2117 19.3442 17.1313 20.2462 20.8404Z" fill="#134BEF"/>
<path fill-rule="evenodd" clip-rule="evenodd" d="M12.6953 33.209C13.5973 29.4999 16.5258 26.5804 20.2462 25.6812C19.3442 29.3902 16.4157 32.3098 12.6953 33.209Z" fill="#0932E8"/>
<path fill-rule="evenodd" clip-rule="evenodd" d="M25.1016 25.6812C28.822 26.5804 31.7505 29.4999 32.6524 33.209C28.932 32.3098 26.0035 29.3902 25.1016 25.6812Z" fill="#164BEA"/>
<path fill-rule="evenodd" clip-rule="evenodd" d="M32.6524 13.3125C31.7505 17.0216 28.822 19.9411 25.1016 20.8404C26.0035 17.1313 28.932 14.2117 32.6524 13.3125Z" fill="#3170F1"/>
</svg>
