<svg width="125" height="40" viewBox="0 0 125 40" fill="none" xmlns="http://www.w3.org/2000/svg">
<path d="M78.9136 10.7523C78.8147 10.7523 78.7344 10.8325 78.7344 10.9315V28.4877C78.7344 28.5867 78.8147 28.667 78.9136 28.667H80.9436C81.0426 28.667 81.1228 28.5867 81.1228 28.4877V22.0982H87.2431C89.8798 22.0982 91.2735 20.1365 91.2735 16.4253C91.2735 12.7139 89.8798 10.7523 87.2431 10.7523H78.9136ZM81.1228 13.1409H87.2431C87.5947 13.1409 87.8839 13.1592 88.1378 13.3901C88.4169 13.6438 88.885 14.3755 88.885 16.4253C88.885 18.4749 88.4169 19.2066 88.1378 19.4603C87.8839 19.6912 87.5947 19.7096 87.2431 19.7096H81.1228V13.1409Z" fill="url(#paint0_linear)"/>
<path d="M94.0649 15.4549C93.966 15.4549 93.8857 15.5351 93.8857 15.6341V17.6643C93.8857 17.7632 93.966 17.8435 94.0649 17.8435H98.961C100.274 17.8435 100.379 19.617 100.379 19.635V20.7546H96.0502C93.2577 20.7546 92.8408 23.2333 92.8408 24.7107C92.8408 26.1882 93.2577 28.667 96.0502 28.667H100.483C101.894 28.667 102.768 27.2483 102.768 25.9338V19.635C102.768 19.0044 102.574 18.0253 102.032 17.1678C101.334 16.0632 100.243 15.4549 98.961 15.4549H94.0649ZM95.5333 26.1532C95.4619 26.08 95.2292 25.76 95.2292 24.7107C95.2292 23.6615 95.4619 23.3415 95.5333 23.2683C95.5666 23.2342 95.6554 23.1432 96.0502 23.1432H100.379V25.9338C100.379 26.0653 100.339 26.1953 100.299 26.2783H96.0502C95.6554 26.2783 95.5666 26.1872 95.5333 26.1532Z" fill="url(#paint1_linear)"/>
<path d="M108.888 15.4549C106.666 15.4549 105.23 17.2714 105.23 20.0828V28.4877C105.23 28.5867 105.311 28.667 105.41 28.667H107.44C107.539 28.667 107.619 28.5867 107.619 28.4877V20.0828C107.619 19.8657 107.64 19.1114 107.905 18.5203C108.158 17.9585 108.481 17.8435 108.888 17.8435H112.59C112.689 17.8435 112.769 17.7632 112.769 17.6643V15.6341C112.769 15.5351 112.689 15.4549 112.59 15.4549H108.888Z" fill="url(#paint2_linear)"/>
<path d="M114.515 10.7523C114.416 10.7523 114.336 10.8325 114.336 10.9315L114.336 28.4877C114.336 28.5867 114.416 28.667 114.515 28.667H116.545C116.644 28.667 116.724 28.5867 116.724 28.4877L116.724 23.8475C116.724 23.7665 116.823 23.7273 116.879 23.7861L121.435 28.6109C121.469 28.6466 121.516 28.667 121.565 28.667H124.359C124.516 28.667 124.596 28.4794 124.489 28.3653L118.334 21.8483L123.587 15.9767C123.69 15.8616 123.609 15.6787 123.454 15.6787H120.729C120.678 15.6787 120.63 15.7005 120.596 15.7383L116.881 19.8911C116.826 19.9524 116.724 19.9137 116.724 19.8315V10.9315C116.724 10.8325 116.644 10.7523 116.545 10.7523H114.515Z" fill="url(#paint3_linear)"/>
<path d="M54.7007 26.2783H54.1036C50.1737 26.2783 49.7747 25.0338 49.7747 19.7096C49.7747 14.3855 50.1737 13.141 54.1036 13.141H54.7007C58.6305 13.141 59.0297 14.3855 59.0297 19.7096C59.0297 25.0338 58.6305 26.2783 54.7007 26.2783ZM54.7007 10.7523H54.1036C52.2488 10.7523 49.6335 11.0208 48.3395 13.3434C47.4564 14.9287 47.3862 17.0722 47.3862 19.7096C47.3862 22.3471 47.4564 24.4905 48.3395 26.0758C49.6335 28.3984 52.2488 28.667 54.1036 28.667H54.7007C56.5554 28.667 59.1709 28.3984 60.4647 26.0758C61.3479 24.4905 61.4181 22.3471 61.4181 19.7096C61.4181 17.0722 61.3479 14.9287 60.4647 13.3434C59.1709 11.0208 56.5554 10.7523 54.7007 10.7523Z" fill="#225AC2"/>
<path d="M72.7629 18.5153H66.9413C66.3468 18.5153 65.4485 18.5153 65.4485 15.8282C65.4485 13.141 66.3468 13.141 66.9413 13.141H75.2701C75.3694 13.141 75.4499 13.0604 75.4499 12.9611V10.9322C75.4499 10.8328 75.3694 10.7523 75.2701 10.7523H66.9413C65.1707 10.7523 63.0601 11.6329 63.0601 15.8282C63.0601 20.0234 65.1707 20.904 66.9413 20.904H72.7629C73.3574 20.904 74.2557 20.904 74.2557 23.5912C74.2557 26.2784 73.3574 26.2784 72.7629 26.2784H64.4341C64.3348 26.2784 64.2543 26.3589 64.2543 26.4582V28.4871C64.2543 28.5865 64.3348 28.667 64.4341 28.667H72.7629C74.5335 28.667 76.6441 27.7864 76.6441 23.5912C76.6441 19.3959 74.5335 18.5153 72.7629 18.5153Z" fill="#225AC2"/>
<path d="M34.0664 13.2334C33.4949 14.4553 33.2051 16.138 33.2051 18.2348V21.1825C33.2051 27.6938 36.0229 28.666 37.7026 28.666H45.5645C45.6638 28.666 45.7442 28.5855 45.7442 28.4862V26.4572C45.7442 26.3579 45.6638 26.2773 45.5645 26.2773H37.7026C35.8675 26.2773 35.5935 23.0853 35.5935 21.1825V20.903H44.0717C44.171 20.903 44.2515 20.8225 44.2515 20.7231V18.6941C44.2515 18.5949 44.171 18.5144 44.0717 18.5144H35.5935V18.2348C35.5935 16.3321 35.8675 13.14 37.7026 13.14H45.5645C45.6638 13.14 45.7442 13.0594 45.7442 12.9601V10.9312C45.7442 10.8318 45.6638 10.7513 45.5645 10.7513H37.7026C36.1064 10.7513 34.8151 11.6328 34.0664 13.2334Z" fill="#225AC2"/>
<path d="M2.07667 3.18173C0.884263 3.18173 0.00195312 4.10647 0.00195312 5.29912V39.2954C5.3125 38.6145 9.29794 37.6958 10.3877 31.4456C10.3936 31.4134 10.3991 31.3804 10.4048 31.348C10.5461 30.5075 10.6359 29.5718 10.6701 28.5285C10.6707 28.504 10.6714 28.4796 10.6718 28.4549C10.683 28.0871 10.6877 27.7067 10.6849 27.3119C10.685 27.3062 10.685 27.3007 10.685 27.2952C10.6848 27.2794 10.685 27.2639 10.6848 27.2481L10.6853 27.2482C10.6853 27.2405 10.6855 27.2326 10.6855 27.2248L10.6853 27.2249C10.6853 27.2223 10.6853 27.2198 10.6853 27.2172H11.3934C18.0428 27.2172 23.4679 21.8539 23.4694 15.2042C23.4679 8.55457 18.0428 3.18173 11.3934 3.18173H2.07667Z" fill="url(#paint4_linear)"/>
<path d="M2.76442 3.09539C2.74218 3.17183 2.72084 3.24828 2.70057 3.32488C2.39374 4.48157 1.91824 6.50569 1.55108 7.64463C1.31431 8.37937 0.787474 9.3521 0 10.422L0.00196356 39.2954C5.30989 38.6096 9.32003 37.6254 10.4203 31.2516C10.5556 30.4162 10.6406 29.4877 10.6719 28.4549C10.6737 28.3591 10.6757 28.2628 10.6786 28.1656C10.6796 28.1327 10.6855 27.212 10.6855 27.1935C10.6855 27.1922 10.685 27.1909 10.6847 27.1897C10.8328 26.4318 10.9193 25.7529 11.061 25.1612C11.1322 24.8639 11.2074 24.5815 11.2857 24.3219C11.4031 23.9326 11.528 23.5817 11.6585 23.2693C11.7891 22.9568 11.9253 22.6794 12.0658 22.4345C12.1593 22.2712 12.2548 22.1212 12.3515 21.9846C12.5449 21.7111 12.7437 21.4875 12.9438 21.3034C13.0438 21.2114 13.1442 21.1289 13.2445 21.0549C13.3255 20.9952 13.4063 20.9422 13.4867 20.8928C13.5558 20.8504 13.6246 20.8102 13.6927 20.7743C13.7915 20.7224 13.8892 20.6768 13.9857 20.6361C14.323 20.4939 14.6434 20.4117 14.9259 20.3299C15.6323 20.1252 16.1513 19.7436 16.5325 19.2859C16.5661 19.2454 16.5986 19.2043 16.6302 19.1626C16.6786 19.099 16.7244 19.0341 16.768 18.9681C16.7907 18.9337 16.8129 18.8991 16.8344 18.8643C16.8744 18.7992 16.9125 18.7334 16.9484 18.6671C16.9694 18.6279 16.9901 18.5886 17.0098 18.5492C17.0108 18.5474 17.0118 18.5456 17.0128 18.5437C17.0828 18.4032 17.1441 18.2608 17.198 18.1186C17.2239 18.0505 17.248 17.9825 17.2705 17.9147C17.2832 17.8764 17.2954 17.8381 17.3071 17.8C17.3131 17.7807 17.3189 17.7614 17.3247 17.7422C17.3381 17.6965 17.351 17.6509 17.3631 17.6055C17.3759 17.558 17.388 17.5107 17.3993 17.4638C17.4108 17.4159 17.4218 17.3684 17.4319 17.3216C17.4345 17.3096 17.437 17.2977 17.4395 17.286C17.4512 17.2306 17.4619 17.1758 17.4718 17.1222C17.4879 17.0342 17.5017 16.9487 17.5135 16.8662C17.5372 16.6997 17.5527 16.5461 17.5627 16.4109C17.5659 16.369 17.5683 16.3288 17.5705 16.2907C17.574 16.2285 17.5763 16.1715 17.5777 16.1203C17.5796 16.0532 17.5801 15.9962 17.5799 15.9508C17.5798 15.9054 17.5789 15.8716 17.5783 15.8509C17.5778 15.8354 17.5774 15.8273 17.5774 15.8273C17.5774 15.8273 18.0007 14.5844 17.5774 14.3986C17.5349 14.3799 17.4932 14.3609 17.4524 14.3414C17.3298 14.2833 17.2148 14.2219 17.1059 14.1581C17.0279 14.1123 16.9539 14.0649 16.8826 14.0166C16.8791 14.0141 16.8758 14.0117 16.8723 14.0093C16.8025 13.9616 16.7359 13.9126 16.6722 13.8626C16.6687 13.8605 16.6655 13.8585 16.6618 13.8564L16.6626 13.855C15.3401 12.8087 15.3199 11.2991 15.16 10.5287C15.1585 10.5211 15.1569 10.5139 15.1553 10.5065C15.1504 10.484 15.1454 10.4623 15.1402 10.4412C15.1379 10.4319 15.1357 10.4225 15.1333 10.4134C15.1284 10.3948 15.1233 10.377 15.1182 10.3595C15.1155 10.3503 15.1128 10.3411 15.1099 10.3324C15.1043 10.315 15.0985 10.2988 15.0925 10.283C15.0898 10.2758 15.0871 10.268 15.0842 10.2611C15.0753 10.239 15.0658 10.2181 15.0557 10.199C14.0881 8.38468 12.8175 7.65705 11.559 7.31482C11.5067 7.30051 11.4543 7.28694 11.4019 7.27394C11.0955 7.19807 10.7908 7.14346 10.4921 7.09972C10.4773 7.09751 10.4625 7.09539 10.4478 7.09326C10.3596 7.08068 10.2719 7.0689 10.1849 7.05787C10.1722 7.05623 10.1595 7.05459 10.1469 7.05304C10.0586 7.042 9.97113 7.03153 9.88439 7.02156C9.87302 7.02009 9.86158 7.01886 9.85021 7.01756C9.76306 7.00758 9.67681 6.99777 9.59162 6.98813C9.33826 6.95943 9.09356 6.93106 8.86105 6.89574C8.78738 6.88454 8.71495 6.8726 8.64382 6.85976C8.58447 6.84905 8.52609 6.83761 8.4687 6.82551C8.40534 6.8121 8.34337 6.79771 8.28246 6.78226C8.1792 6.75593 8.07954 6.72618 7.98397 6.69233C7.93884 6.67647 7.89469 6.65947 7.85144 6.64148C7.8207 6.62873 7.79037 6.6154 7.76061 6.60158C7.72644 6.5858 7.693 6.56912 7.66021 6.55179C7.58753 6.51337 7.51804 6.4711 7.45223 6.42442C7.41061 6.3949 7.37022 6.364 7.33155 6.33088C7.11384 6.1444 6.94289 5.89807 6.83064 5.56655C6.79336 5.44187 6.7564 5.32005 6.71985 5.20118C6.68323 5.08214 6.64693 4.96605 6.61096 4.85266C6.56305 4.70165 6.51588 4.55727 6.46919 4.41591C6.30544 3.92039 6.14887 3.48136 6.00081 3.09539H6.00089C5.94195 2.94161 5.88439 2.79608 5.82814 2.65824C5.80002 2.58932 5.7723 2.52228 5.74483 2.45728C5.69006 2.32705 5.63667 2.20433 5.58484 2.08881C5.507 1.91549 5.43261 1.75811 5.36164 1.61536C4.79458 0.473394 4.45595 0.26475 4.45587 0.26475C3.58165 0.960657 3.07713 2.01678 2.76442 3.09539Z" fill="url(#paint5_linear)"/>
<path d="M10.6848 27.2481C10.6844 27.2504 9.55613 31.907 3.61271 34.1355C1.45198 34.9458 0.00195312 36.9877 0.00195312 39.2954C6.32644 38.4845 10.7723 37.3377 10.6848 27.2481H10.6848Z" fill="url(#paint6_linear)"/>
<path d="M8.88279 23.1349C6.83063 26.3483 0.000327024 21.7909 0 21.7905V31.3647C0.855332 31.3379 1.6442 31.2793 2.3715 31.1952C2.73515 31.153 3.08343 31.1046 3.41691 31.0505C3.5281 31.0325 3.63766 31.0138 3.74557 30.9946C3.96141 30.956 4.1707 30.9152 4.37379 30.8722C4.67849 30.8077 4.96889 30.7383 5.24579 30.6648C5.43048 30.6158 5.60904 30.5651 5.78179 30.5127C5.8682 30.4866 5.95307 30.46 6.03662 30.4331C6.18182 30.3862 6.32187 30.3381 6.45848 30.2892C6.55765 30.2537 6.65527 30.2179 6.74994 30.1815C6.97526 30.0949 7.18824 30.0057 7.38952 29.9149C7.72505 29.7634 8.0282 29.607 8.30175 29.4494C8.46584 29.3549 8.61938 29.2599 8.76286 29.1652C8.85851 29.1021 8.94967 29.039 9.03658 28.9763C9.21039 28.8512 9.36712 28.7274 9.50823 28.607C9.57887 28.5466 9.64541 28.4872 9.70837 28.4289C9.77091 28.3709 9.82969 28.3141 9.88496 28.2585C9.88537 28.2581 9.88578 28.2576 9.88618 28.2573C9.88692 28.2565 9.88757 28.2559 9.88831 28.2551C9.92886 28.2143 9.96688 28.1744 10.0037 28.1351C10.042 28.0941 10.079 28.0537 10.1135 28.0146C10.1362 27.9889 10.1581 27.9634 10.1793 27.9384C10.5595 27.4889 10.6828 27.1807 10.6829 27.1806H10.6833L10.6834 27.1802C10.7916 26.4185 10.9189 25.746 11.0614 25.1515C11.1326 24.8543 11.2075 24.5766 11.2858 24.3171C11.4032 23.9278 11.5281 23.5792 11.6586 23.2668C11.7892 22.9544 11.9254 22.6781 12.0659 22.4331C12.1594 22.2699 12.2548 22.1206 12.3515 21.9838C12.545 21.7103 12.7437 21.4871 12.9438 21.303C13.0438 21.2109 13.1442 21.1286 13.2445 21.0547C13.3255 20.9951 13.4063 20.9421 13.4868 20.8926C13.5558 20.8501 13.6246 20.81 13.6927 20.7742C13.7915 20.7222 13.8892 20.6767 13.9857 20.636C14.323 20.4937 14.6434 20.4116 14.9259 20.3297C14.9259 20.3297 14.762 20.313 14.4839 20.313C13.3888 20.313 10.5193 20.5724 8.88279 23.1349Z" fill="url(#paint7_linear)"/>
<path d="M2.76442 3.09535C2.74218 3.1718 2.72084 3.24824 2.70057 3.32484C2.39374 4.48153 1.91824 6.50565 1.55108 7.64459C1.31431 8.37933 0.787474 9.35206 0 10.422V21.7906C0.000327024 21.7909 6.83063 26.3484 8.88279 23.1351C10.9349 19.9216 14.9259 20.3298 14.9259 20.3298C14.6434 20.4116 14.323 20.4938 13.9857 20.636C14.323 20.4939 14.6434 20.4117 14.9259 20.3299C17.7655 19.5072 17.5774 15.8272 17.5774 15.8272C17.5774 15.8272 18.0007 14.5844 17.5774 14.3985C17.4073 14.3239 17.2512 14.2432 17.1061 14.1582C17.1061 14.1582 17.1061 14.1582 17.1062 14.1582C18.4887 15.3207 14.2367 15.3588 11.3412 15.2617C7.6083 15.1365 4.35523 12.5974 3.43621 8.97697C3.41994 8.91295 3.40432 8.84836 3.38936 8.78312C2.31067 4.09048 4.4557 0.264958 4.45587 0.264711C3.58165 0.9607 3.07713 2.01675 2.76442 3.09535ZM17.1061 14.1582C17.106 14.1581 17.106 14.1581 17.1059 14.1581C17.1059 14.1581 17.106 14.1581 17.1061 14.1582Z" fill="url(#paint8_linear)"/>
<path d="M3.38926 8.78318C3.40422 8.84834 3.41983 8.91292 3.4361 8.97694C4.35512 12.5974 7.6082 15.1365 11.3411 15.2618C14.2366 15.3588 18.4886 15.3208 17.1061 14.1583L17.1058 14.1581C17.0278 14.1123 16.9538 14.0649 16.8825 14.0165C16.879 14.0141 16.8757 14.0117 16.8722 14.0093C16.8024 13.9615 16.7358 13.9125 16.6721 13.8625C16.6686 13.8604 16.6654 13.8583 16.6617 13.8563L16.6625 13.855C15.34 12.8086 15.3198 11.2991 15.1599 10.5287C15.1584 10.5212 15.1568 10.5139 15.1552 10.5064C15.1503 10.4839 15.1453 10.4623 15.1401 10.4411C15.1378 10.4317 15.1356 10.4225 15.1332 10.4134C15.1283 10.3948 15.1232 10.3769 15.1181 10.3594C15.1154 10.3504 15.1127 10.341 15.1098 10.3323C15.1042 10.315 15.0984 10.2989 15.0924 10.2829C15.0897 10.2756 15.0871 10.268 15.0841 10.261C15.0752 10.2389 15.0657 10.2181 15.0556 10.1989C14.088 8.38462 12.8174 7.65699 11.5589 7.31476C11.5066 7.30054 11.4542 7.28688 11.4018 7.27396C11.0954 7.19809 10.7907 7.14348 10.492 7.09974C10.4772 7.09753 10.4625 7.09532 10.4477 7.0932C10.3595 7.08061 10.2718 7.06883 10.1848 7.0578C10.1721 7.05624 10.1594 7.05461 10.1468 7.05298C10.0585 7.04194 9.97103 7.03147 9.88429 7.0215C9.87292 7.02019 9.86147 7.0188 9.85011 7.01749C9.76296 7.00751 9.67671 6.99771 9.59152 6.98815C9.33816 6.95937 9.09346 6.93099 8.86094 6.89567C8.78728 6.88447 8.71493 6.87254 8.64372 6.85978C8.58437 6.84899 8.52599 6.83762 8.4686 6.82544C8.40524 6.81203 8.34327 6.79773 8.28236 6.7822C8.1791 6.75587 8.07944 6.72612 7.98387 6.69227C7.93874 6.67633 7.89459 6.6594 7.85134 6.64141C7.8206 6.62874 7.79027 6.61542 7.76051 6.6016C7.72634 6.58574 7.6929 6.56915 7.66011 6.55173C7.58743 6.51331 7.51794 6.47103 7.45212 6.42435C7.41051 6.39491 7.37012 6.36394 7.33145 6.33082C7.11374 6.14434 6.94279 5.89809 6.83054 5.56649C6.79326 5.44181 6.7563 5.32008 6.71975 5.20112C6.68313 5.08217 6.64683 4.96607 6.61086 4.85259C6.56295 4.70167 6.51577 4.55721 6.46909 4.41585C6.30533 3.92033 6.14877 3.48137 6.00071 3.09532H6.00079C5.94185 2.94162 5.88429 2.79602 5.82804 2.65818C5.79992 2.58926 5.7722 2.5223 5.74473 2.45722C5.68996 2.32699 5.63657 2.20435 5.58474 2.08875C5.5069 1.91543 5.43251 1.75805 5.36154 1.6153C4.79448 0.473415 4.45585 0.26477 4.45577 0.26477C4.4556 0.26477 2.31057 4.09046 3.38926 8.78318Z" fill="url(#paint9_linear)"/>
<path d="M13.4441 12.4814L13.3484 12.5879C13.229 12.7205 13.1787 12.901 13.2124 13.0762C13.2732 13.3919 13.4488 13.9181 13.9536 14.4753C14.245 14.797 14.77 14.66 14.8692 14.2375C14.9964 13.6956 14.963 12.9702 14.2006 12.401C14.1017 12.3271 13.9856 12.2915 13.8697 12.2915C13.7126 12.2915 13.5561 12.357 13.4441 12.4814Z" fill="url(#paint10_linear)"/>
<defs>
<linearGradient id="paint0_linear" x1="78.8701" y1="19.7096" x2="124.232" y2="19.7096" gradientUnits="userSpaceOnUse">
<stop stop-color="#FF5739"/>
<stop offset="0.994382" stop-color="#FC7D66"/>
<stop offset="1" stop-color="#FC7D66"/>
</linearGradient>
<linearGradient id="paint1_linear" x1="78.87" y1="22.0609" x2="124.231" y2="22.0609" gradientUnits="userSpaceOnUse">
<stop stop-color="#FF5739"/>
<stop offset="0.994382" stop-color="#FC7D66"/>
<stop offset="1" stop-color="#FC7D66"/>
</linearGradient>
<linearGradient id="paint2_linear" x1="78.8699" y1="22.0609" x2="124.231" y2="22.0609" gradientUnits="userSpaceOnUse">
<stop stop-color="#FF5739"/>
<stop offset="0.994382" stop-color="#FC7D66"/>
<stop offset="1" stop-color="#FC7D66"/>
</linearGradient>
<linearGradient id="paint3_linear" x1="78.8697" y1="19.7096" x2="124.231" y2="19.7096" gradientUnits="userSpaceOnUse">
<stop stop-color="#FF5739"/>
<stop offset="0.994382" stop-color="#FC7D66"/>
<stop offset="1" stop-color="#FC7D66"/>
</linearGradient>
<linearGradient id="paint4_linear" x1="0.479224" y1="21.2386" x2="23.3563" y2="21.2386" gradientUnits="userSpaceOnUse">
<stop stop-color="#FF5739"/>
<stop offset="0.994382" stop-color="#FC7D66"/>
<stop offset="1" stop-color="#FC7D66"/>
</linearGradient>
<linearGradient id="paint5_linear" x1="7.67891" y1="19.954" x2="17.7251" y2="20.2747" gradientUnits="userSpaceOnUse">
<stop stop-color="#FFDD61"/>
<stop offset="0.0589443" stop-color="#FFDD61"/>
<stop offset="0.296265" stop-color="#FFDD61"/>
<stop offset="1" stop-color="#FFA500"/>
</linearGradient>
<linearGradient id="paint6_linear" x1="1.96638" y1="33.2718" x2="12.4805" y2="33.2718" gradientUnits="userSpaceOnUse">
<stop stop-color="#FF1A00"/>
<stop offset="1" stop-color="#FECB2B"/>
</linearGradient>
<linearGradient id="paint7_linear" x1="6.26374" y1="23.4891" x2="20.6327" y2="6.65696" gradientUnits="userSpaceOnUse">
<stop stop-color="#FFDD61"/>
<stop offset="0.252185" stop-color="#FFDD61"/>
<stop offset="1" stop-color="#FF1A00"/>
</linearGradient>
<linearGradient id="paint8_linear" x1="7.92151" y1="12.3525" x2="17.9677" y2="12.6731" gradientUnits="userSpaceOnUse">
<stop stop-color="#FFDD61"/>
<stop offset="0.0589443" stop-color="#FFDD61"/>
<stop offset="0.296265" stop-color="#FFDD61"/>
<stop offset="1" stop-color="#FFA500"/>
</linearGradient>
<linearGradient id="paint9_linear" x1="8.21457" y1="8.01035" x2="1.56607" y2="5.99565" gradientUnits="userSpaceOnUse">
<stop stop-color="#FFDD61"/>
<stop offset="0.0589443" stop-color="#FFDD61"/>
<stop offset="0.296265" stop-color="#FFDD61"/>
<stop offset="1" stop-color="#FF1A00"/>
</linearGradient>
<linearGradient id="paint10_linear" x1="15.7321" y1="12.5363" x2="10.6474" y2="15.46" gradientUnits="userSpaceOnUse">
<stop stop-color="#FFDD61"/>
<stop offset="0.16292" stop-color="#FFDD61"/>
<stop offset="0.646031" stop-color="#FF6500"/>
<stop offset="1" stop-color="#FF6500"/>
</linearGradient>
</defs>
</svg>
