<svg width="126" height="27" viewBox="0 0 126 27" fill="none" xmlns="http://www.w3.org/2000/svg">
<path fill-rule="evenodd" clip-rule="evenodd" d="M125.391 6.75944L118.855 13.2826L112.32 6.75944L118.855 0.236328L125.391 6.75944Z" fill="#105CFB"/>
<path fill-rule="evenodd" clip-rule="evenodd" d="M29.2373 7.00694H25.5498L25.1638 7.33991L21.3801 20.1299H21.3552L17.1132 7.34099L16.7272 7.00802H12.8711L12.4852 7.34099L8.26686 20.0597L8.19551 20.0121L8.17065 19.9894L4.38694 7.34099L3.99992 7.00586H0.241076L0 7.34099L5.90475 25.3514L6.31555 25.7082H10.0268L10.4376 25.3514L14.6538 12.4663H14.7511L18.9931 25.3525L19.4039 25.7082H23.1628L23.5736 25.3514L29.4783 7.34099L29.2373 7.00694ZM70.9597 7.00694H67.2473L66.8376 7.33991L61.6561 20.6521L61.6074 20.6759L56.4745 7.34099L56.0648 7.00802H52.2811L52.04 7.34099L59.4388 25.3514L59.8734 25.7082H63.296L63.7295 25.3514L71.2018 7.34099L70.9597 7.00694Z" fill="black"/>
<path d="M90.0977 17.3542L90.4587 17.0223V16.4764C90.4587 13.5575 89.6155 11.0419 87.9518 9.28625C86.2902 7.52953 84.047 6.62793 81.3 6.62793C78.6482 6.62793 76.4309 7.60088 74.7196 9.49922C73.0083 11.3976 72.165 13.6991 72.165 16.3099C72.165 19.0861 73.0569 21.4125 74.8158 23.2395C76.5758 25.0665 78.8892 25.9919 81.6848 25.9919C83.7097 25.9919 85.4459 25.5173 86.8437 24.5443C88.2415 23.5952 89.7117 22.0287 90.2177 19.8936L89.9528 19.5369H86.4826L85.9994 19.8936C85.1324 21.6017 83.807 22.4092 81.6135 22.4092C80.2173 22.4205 78.8704 21.8935 77.8525 20.9379C76.8406 20.0114 76.2623 18.8969 76.1174 17.3066L90.0977 17.3542ZM76.3585 14.0321C76.9617 11.8246 78.8417 10.1879 81.2989 10.1879C84.5529 10.1879 85.9042 12.4657 86.2891 14.0321H76.3585ZM46.0131 7.00738L45.651 7.36413V9.2149L45.5785 9.28625C45.0964 8.66897 44.4456 8.12303 43.6748 7.67223C43.4926 7.57206 43.3077 7.47689 43.1202 7.38683C42.0835 6.88955 40.903 6.65171 39.6252 6.65171C37.2393 6.65171 35.142 7.60088 33.4069 9.45166C31.6718 11.3024 30.8037 13.6289 30.8037 16.3575C30.8037 19.0861 31.6718 21.4125 33.4069 23.2633C35.142 25.114 37.2393 26.0632 39.6252 26.0632C40.903 26.0632 42.0597 25.8254 43.0954 25.3281C43.2899 25.233 43.5062 25.1378 43.6986 25.0189C44.4456 24.5681 45.0726 24.0697 45.5548 23.4762C45.5785 23.4525 45.6521 23.5 45.6758 23.4762V25.3984L46.0369 25.7551H49.1936L49.5558 25.3984V7.34143L49.1947 6.98468H46.0131V7.00846V7.00738ZM44.0607 20.819C43.0002 21.9347 41.7224 22.4795 40.1797 22.4795C38.6857 22.4795 37.5765 21.9347 36.4922 20.7952C35.4079 19.6796 34.8771 18.1845 34.8771 16.3099C34.8771 14.4591 35.4317 12.964 36.4922 11.8246C37.5765 10.71 38.6609 10.1403 40.1797 10.1403C41.6986 10.1403 42.9754 10.6862 44.0607 11.8008C44.7591 12.5359 45.2175 13.4148 45.4823 14.4818V18.0893C45.2413 19.205 44.7591 20.1066 44.0607 20.819Z" fill="black"/>
<path fill-rule="evenodd" clip-rule="evenodd" d="M103.475 14.8855C103.475 14.8855 101.402 14.4584 99.6913 14.079C98.1237 13.7222 97.3281 13.2714 97.3281 12.1806C97.3281 11.0174 98.461 10.0445 100.896 10.0445C103.283 10.0445 104.608 11.0888 104.608 12.0142L105.018 12.3709H108.488L108.754 12.0379C108.754 9.59367 106.608 6.6748 100.992 6.6748C95.1357 6.6748 93.3033 10.0682 93.3033 12.2509C93.3033 14.0779 93.9779 16.2379 98.461 17.2584L102.318 18.1124C104.271 18.5405 105.09 19.2043 105.09 20.3199C105.09 21.3405 104.053 22.5739 101.354 22.5739C98.847 22.5739 97.3281 21.388 97.2567 19.9881L96.8221 19.6313H93.2795L93.0146 19.9881C93.3282 23.1199 95.6892 26.0625 101.33 26.0625C107.717 26.0625 109.019 22.2183 109.019 20.201C109.019 17.4962 107.451 15.7395 103.475 14.8855Z" fill="black"/>
</svg>
