<svg width="1610" height="834" viewBox="0 0 1610 834" fill="none" xmlns="http://www.w3.org/2000/svg">
<g filter="url(#filter0_f)">
<path d="M1488.95 672.006L1448.3 649.956C1440.91 646.015 1432.04 646.015 1424.65 649.956L1384 672.006" stroke="#6DDAC0" stroke-width="6.15901" stroke-miterlimit="10" stroke-linecap="round"/>
<path d="M1488.95 700.337L1448.3 678.288C1440.91 674.346 1432.04 674.346 1424.65 678.288L1384 700.337" stroke="#6DDAC0" stroke-width="6.15901" stroke-miterlimit="10" stroke-linecap="round"/>
<path d="M1488.95 728.669L1448.3 706.619C1440.91 702.678 1432.04 702.678 1424.65 706.619L1384 728.669" stroke="#6DDAC0" stroke-width="6.15901" stroke-miterlimit="10" stroke-linecap="round"/>
<path d="M1488.95 757L1448.3 734.951C1440.91 731.009 1432.04 731.009 1424.65 734.951L1384 757" stroke="#6DDAC0" stroke-width="6.15901" stroke-miterlimit="10" stroke-linecap="round"/>
</g>
<g filter="url(#filter1_f)">
<path d="M816.95 116.006L776.3 93.9563C768.909 90.0145 760.04 90.0145 752.649 93.9563L712 116.006" stroke="#6DDAC0" stroke-width="6.15901" stroke-miterlimit="10" stroke-linecap="round"/>
<path d="M816.95 144.337L776.3 122.288C768.909 118.346 760.04 118.346 752.649 122.288L712 144.337" stroke="#6DDAC0" stroke-width="6.15901" stroke-miterlimit="10" stroke-linecap="round"/>
<path d="M816.95 172.668L776.3 150.619C768.909 146.677 760.04 146.677 752.649 150.619L712 172.668" stroke="#6DDAC0" stroke-width="6.15901" stroke-miterlimit="10" stroke-linecap="round"/>
</g>
<g filter="url(#filter2_f)">
<path d="M405.95 553.006L365.3 530.956C357.909 527.015 349.04 527.015 341.649 530.956L301 553.006" stroke="#6DDAC0" stroke-width="6.15901" stroke-miterlimit="10" stroke-linecap="round"/>
<path d="M405.95 581.337L365.3 559.288C357.909 555.346 349.04 555.346 341.649 559.288L301 581.337" stroke="#6DDAC0" stroke-width="6.15901" stroke-miterlimit="10" stroke-linecap="round"/>
<path d="M405.95 609.669L365.3 587.619C357.909 583.678 349.04 583.678 341.649 587.619L301 609.669" stroke="#6DDAC0" stroke-width="6.15901" stroke-miterlimit="10" stroke-linecap="round"/>
<path d="M405.95 638L365.3 615.951C357.909 612.009 349.04 612.009 341.649 615.951L301 638" stroke="#6DDAC0" stroke-width="6.15901" stroke-miterlimit="10" stroke-linecap="round"/>
</g>
<path d="M1240.2 311.3L1207.2 293.4C1201.2 290.2 1194 290.2 1188 293.4L1155 311.3" stroke="#6DDAC0" stroke-width="5" stroke-miterlimit="10" stroke-linecap="round"/>
<path d="M1240.2 334.3L1207.2 316.4C1201.2 313.2 1194 313.2 1188 316.4L1155 334.3" stroke="#6DDAC0" stroke-width="5" stroke-miterlimit="10" stroke-linecap="round"/>
<path d="M1240.2 357.3L1207.2 339.4C1201.2 336.2 1194 336.2 1188 339.4L1155 357.3" stroke="#6DDAC0" stroke-width="5" stroke-miterlimit="10" stroke-linecap="round"/>
<path d="M1240.2 380.3L1207.2 362.4C1201.2 359.2 1194 359.2 1188 362.4L1155 380.3" stroke="#6DDAC0" stroke-width="5" stroke-miterlimit="10" stroke-linecap="round"/>
<path d="M1247.8 111L1280.8 128.9C1286.8 132.1 1294 132.1 1300 128.9L1333 111" stroke="#6DDAC0" stroke-width="5" stroke-miterlimit="10" stroke-linecap="round"/>
<path d="M1247.8 88.0001L1280.8 105.9C1286.8 109.1 1294 109.1 1300 105.9L1333 88" stroke="#6DDAC0" stroke-width="5" stroke-miterlimit="10" stroke-linecap="round"/>
<path d="M1247.8 65.0001L1280.8 82.9001C1286.8 86.1001 1294 86.1001 1300 82.9001L1333 65" stroke="#6DDAC0" stroke-width="5" stroke-miterlimit="10" stroke-linecap="round"/>
<path d="M1247.8 42.0001L1280.8 59.9001C1286.8 63.1001 1294 63.1001 1300 59.9001L1333 42" stroke="#6DDAC0" stroke-width="5" stroke-miterlimit="10" stroke-linecap="round"/>
<path d="M1316.8 290L1349.8 307.9C1355.8 311.1 1363 311.1 1369 307.9L1402 290" stroke="#6DDAC0" stroke-width="5" stroke-miterlimit="10" stroke-linecap="round"/>
<path d="M1316.8 267L1349.8 284.9C1355.8 288.1 1363 288.1 1369 284.9L1402 267" stroke="#6DDAC0" stroke-width="5" stroke-miterlimit="10" stroke-linecap="round"/>
<path d="M1316.8 244L1349.8 261.9C1355.8 265.1 1363 265.1 1369 261.9L1402 244" stroke="#6DDAC0" stroke-width="5" stroke-miterlimit="10" stroke-linecap="round"/>
<path d="M1316.8 221L1349.8 238.9C1355.8 242.1 1363 242.1 1369 238.9L1402 221" stroke="#6DDAC0" stroke-width="5" stroke-miterlimit="10" stroke-linecap="round"/>
<path d="M1503 324.3L1470 306.4C1464 303.2 1456.8 303.2 1450.8 306.4L1417.8 324.3" stroke="#6DDAC0" stroke-width="5" stroke-miterlimit="10" stroke-linecap="round"/>
<path d="M1503 347.3L1470 329.4C1464 326.2 1456.8 326.2 1450.8 329.4L1417.8 347.3" stroke="#6DDAC0" stroke-width="5" stroke-miterlimit="10" stroke-linecap="round"/>
<path d="M1503 370.3L1470 352.4C1464 349.2 1456.8 349.2 1450.8 352.4L1417.8 370.3" stroke="#6DDAC0" stroke-width="5" stroke-miterlimit="10" stroke-linecap="round"/>
<path d="M1503 393.3L1470 375.4C1464 372.2 1456.8 372.2 1450.8 375.4L1417.8 393.3" stroke="#6DDAC0" stroke-width="5" stroke-miterlimit="10" stroke-linecap="round"/>
<path d="M1521.8 400L1554.8 417.9C1560.8 421.1 1568 421.1 1574 417.9L1607 400" stroke="#6DDAC0" stroke-width="5" stroke-miterlimit="10" stroke-linecap="round"/>
<path d="M1521.8 377L1554.8 394.9C1560.8 398.1 1568 398.1 1574 394.9L1607 377" stroke="#6DDAC0" stroke-width="5" stroke-miterlimit="10" stroke-linecap="round"/>
<path d="M1521.8 354L1554.8 371.9C1560.8 375.1 1568 375.1 1574 371.9L1607 354" stroke="#6DDAC0" stroke-width="5" stroke-miterlimit="10" stroke-linecap="round"/>
<path d="M1521.8 331L1554.8 348.9C1560.8 352.1 1568 352.1 1574 348.9L1607 331" stroke="#6DDAC0" stroke-width="5" stroke-miterlimit="10" stroke-linecap="round"/>
<path d="M1316.8 404L1349.8 421.9C1355.8 425.1 1363 425.1 1369 421.9L1402 404" stroke="#6DDAC0" stroke-width="5" stroke-miterlimit="10" stroke-linecap="round"/>
<path d="M1316.8 381L1349.8 398.9C1355.8 402.1 1363 402.1 1369 398.9L1402 381" stroke="#6DDAC0" stroke-width="5" stroke-miterlimit="10" stroke-linecap="round"/>
<path d="M1316.8 358L1349.8 375.9C1355.8 379.1 1363 379.1 1369 375.9L1402 358" stroke="#6DDAC0" stroke-width="5" stroke-miterlimit="10" stroke-linecap="round"/>
<path d="M1316.8 335L1349.8 352.9C1355.8 356.1 1363 356.1 1369 352.9L1402 335" stroke="#6DDAC0" stroke-width="5" stroke-miterlimit="10" stroke-linecap="round"/>
<path d="M1503 210.3L1470 192.4C1464 189.2 1456.8 189.2 1450.8 192.4L1417.8 210.3" stroke="#6DDAC0" stroke-width="5" stroke-miterlimit="10" stroke-linecap="round"/>
<path d="M1503 233.3L1470 215.4C1464 212.2 1456.8 212.2 1450.8 215.4L1417.8 233.3" stroke="#6DDAC0" stroke-width="5" stroke-miterlimit="10" stroke-linecap="round"/>
<path d="M1503 256.3L1470 238.4C1464 235.2 1456.8 235.2 1450.8 238.4L1417.8 256.3" stroke="#6DDAC0" stroke-width="5" stroke-miterlimit="10" stroke-linecap="round"/>
<path d="M1503 279.3L1470 261.4C1464 258.2 1456.8 258.2 1450.8 261.4L1417.8 279.3" stroke="#6DDAC0" stroke-width="5" stroke-miterlimit="10" stroke-linecap="round"/>
<path d="M1521.8 514L1554.8 531.9C1560.8 535.1 1568 535.1 1574 531.9L1607 514" stroke="#6DDAC0" stroke-width="5" stroke-miterlimit="10" stroke-linecap="round"/>
<path d="M1521.8 491L1554.8 508.9C1560.8 512.1 1568 512.1 1574 508.9L1607 491" stroke="#6DDAC0" stroke-width="5" stroke-miterlimit="10" stroke-linecap="round"/>
<path d="M1521.8 468L1554.8 485.9C1560.8 489.1 1568 489.1 1574 485.9L1607 468" stroke="#6DDAC0" stroke-width="5" stroke-miterlimit="10" stroke-linecap="round"/>
<path d="M1521.8 445L1554.8 462.9C1560.8 466.1 1568 466.1 1574 462.9L1607 445" stroke="#6DDAC0" stroke-width="5" stroke-miterlimit="10" stroke-linecap="round"/>
<path d="M1503 434.3L1470 416.4C1464 413.2 1456.8 413.2 1450.8 416.4L1417.8 434.3" stroke="#6DDAC0" stroke-width="5" stroke-miterlimit="10" stroke-linecap="round"/>
<path d="M1503 457.3L1470 439.4C1464 436.2 1456.8 436.2 1450.8 439.4L1417.8 457.3" stroke="#6DDAC0" stroke-width="5" stroke-miterlimit="10" stroke-linecap="round"/>
<path d="M1503 480.3L1470 462.4C1464 459.2 1456.8 459.2 1450.8 462.4L1417.8 480.3" stroke="#6DDAC0" stroke-width="5" stroke-miterlimit="10" stroke-linecap="round"/>
<path d="M1503 503.3L1470 485.4C1464 482.2 1456.8 482.2 1450.8 485.4L1417.8 503.3" stroke="#6DDAC0" stroke-width="5" stroke-miterlimit="10" stroke-linecap="round"/>
<path d="M1461 569.3L1428 551.4C1422 548.2 1414.8 548.2 1408.8 551.4L1375.8 569.3" stroke="#6DDAC0" stroke-width="5" stroke-miterlimit="10" stroke-linecap="round"/>
<path d="M1461 592.3L1428 574.4C1422 571.2 1414.8 571.2 1408.8 574.4L1375.8 592.3" stroke="#6DDAC0" stroke-width="5" stroke-miterlimit="10" stroke-linecap="round"/>
<path d="M1461 615.3L1428 597.4C1422 594.2 1414.8 594.2 1408.8 597.4L1375.8 615.3" stroke="#6DDAC0" stroke-width="5" stroke-miterlimit="10" stroke-linecap="round"/>
<path d="M1461 638.3L1428 620.4C1422 617.2 1414.8 617.2 1408.8 620.4L1375.8 638.3" stroke="#6DDAC0" stroke-width="5" stroke-miterlimit="10" stroke-linecap="round"/>
<path d="M1291 490.3L1258 472.4C1252 469.2 1244.8 469.2 1238.8 472.4L1205.8 490.3" stroke="#6DDAC0" stroke-width="5" stroke-miterlimit="10" stroke-linecap="round"/>
<path d="M1291 513.3L1258 495.4C1252 492.2 1244.8 492.2 1238.8 495.4L1205.8 513.3" stroke="#6DDAC0" stroke-width="5" stroke-miterlimit="10" stroke-linecap="round"/>
<path d="M1291 536.3L1258 518.4C1252 515.2 1244.8 515.2 1238.8 518.4L1205.8 536.3" stroke="#6DDAC0" stroke-width="5" stroke-miterlimit="10" stroke-linecap="round"/>
<path d="M1291 559.3L1258 541.4C1252 538.2 1244.8 538.2 1238.8 541.4L1205.8 559.3" stroke="#6DDAC0" stroke-width="5" stroke-miterlimit="10" stroke-linecap="round"/>
<path d="M1521.8 290L1554.8 307.9C1560.8 311.1 1568 311.1 1574 307.9L1607 290" stroke="#6DDAC0" stroke-width="5" stroke-miterlimit="10" stroke-linecap="round"/>
<path d="M1521.8 267L1554.8 284.9C1560.8 288.1 1568 288.1 1574 284.9L1607 267" stroke="#6DDAC0" stroke-width="5" stroke-miterlimit="10" stroke-linecap="round"/>
<path d="M1521.8 244L1554.8 261.9C1560.8 265.1 1568 265.1 1574 261.9L1607 244" stroke="#6DDAC0" stroke-width="5" stroke-miterlimit="10" stroke-linecap="round"/>
<path d="M1521.8 221L1554.8 238.9C1560.8 242.1 1568 242.1 1574 238.9L1607 221" stroke="#6DDAC0" stroke-width="5" stroke-miterlimit="10" stroke-linecap="round"/>
<path d="M1521.8 72.0001L1554.8 89.9001C1560.8 93.1001 1568 93.1001 1574 89.9001L1607 72" stroke="#6DDAC0" stroke-width="5" stroke-miterlimit="10" stroke-linecap="round"/>
<path d="M1521.8 49.0001L1554.8 66.9001C1560.8 70.1001 1568 70.1001 1574 66.9001L1607 49" stroke="#6DDAC0" stroke-width="5" stroke-miterlimit="10" stroke-linecap="round"/>
<path d="M1521.8 26.0001L1554.8 43.9001C1560.8 47.1001 1568 47.1001 1574 43.9001L1607 26" stroke="#6DDAC0" stroke-width="5" stroke-miterlimit="10" stroke-linecap="round"/>
<path d="M1521.8 3.00007L1554.8 20.9001C1560.8 24.1001 1568 24.1001 1574 20.9001L1607 3.00005" stroke="#6DDAC0" stroke-width="5" stroke-miterlimit="10" stroke-linecap="round"/>
<path d="M1503 106.3L1470 88.4C1464 85.2 1456.8 85.2 1450.8 88.4L1417.8 106.3" stroke="#6DDAC0" stroke-width="5" stroke-miterlimit="10" stroke-linecap="round"/>
<path d="M1503 129.3L1470 111.4C1464 108.2 1456.8 108.2 1450.8 111.4L1417.8 129.3" stroke="#6DDAC0" stroke-width="5" stroke-miterlimit="10" stroke-linecap="round"/>
<path d="M1503 152.3L1470 134.4C1464 131.2 1456.8 131.2 1450.8 134.4L1417.8 152.3" stroke="#6DDAC0" stroke-width="5" stroke-miterlimit="10" stroke-linecap="round"/>
<path d="M1503 175.3L1470 157.4C1464 154.2 1456.8 154.2 1450.8 157.4L1417.8 175.3" stroke="#6DDAC0" stroke-width="5" stroke-miterlimit="10" stroke-linecap="round"/>
<path d="M1521.8 618L1554.8 635.9C1560.8 639.1 1568 639.1 1574 635.9L1607 618" stroke="#6DDAC0" stroke-width="5" stroke-miterlimit="10" stroke-linecap="round"/>
<path d="M1521.8 595L1554.8 612.9C1560.8 616.1 1568 616.1 1574 612.9L1607 595" stroke="#6DDAC0" stroke-width="5" stroke-miterlimit="10" stroke-linecap="round"/>
<path d="M1521.8 572L1554.8 589.9C1560.8 593.1 1568 593.1 1574 589.9L1607 572" stroke="#6DDAC0" stroke-width="5" stroke-miterlimit="10" stroke-linecap="round"/>
<path d="M1521.8 549L1554.8 566.9C1560.8 570.1 1568 570.1 1574 566.9L1607 549" stroke="#6DDAC0" stroke-width="5" stroke-miterlimit="10" stroke-linecap="round"/>
<g filter="url(#filter3_f)">
<path d="M63.0002 650L96.0002 667.9C102 671.1 109.2 671.1 115.2 667.9L148.2 650" stroke="#6DDAC0" stroke-width="5" stroke-miterlimit="10" stroke-linecap="round"/>
<path d="M63.0002 627L96.0002 644.9C102 648.1 109.2 648.1 115.2 644.9L148.2 627" stroke="#6DDAC0" stroke-width="5" stroke-miterlimit="10" stroke-linecap="round"/>
<path d="M63.0002 604L96.0002 621.9C102 625.1 109.2 625.1 115.2 621.9L148.2 604" stroke="#6DDAC0" stroke-width="5" stroke-miterlimit="10" stroke-linecap="round"/>
<path d="M63.0002 581L96.0002 598.9C102 602.1 109.2 602.1 115.2 598.9L148.2 581" stroke="#6DDAC0" stroke-width="5" stroke-miterlimit="10" stroke-linecap="round"/>
</g>
<g filter="url(#filter4_f)">
<path d="M301 358L334 375.9C340 379.1 347.2 379.1 353.2 375.9L386.2 358" stroke="#6DDAC0" stroke-width="5" stroke-miterlimit="10" stroke-linecap="round"/>
<path d="M301 335L334 352.9C340 356.1 347.2 356.1 353.2 352.9L386.2 335" stroke="#6DDAC0" stroke-width="5" stroke-miterlimit="10" stroke-linecap="round"/>
<path d="M301 312L334 329.9C340 333.1 347.2 333.1 353.2 329.9L386.2 312" stroke="#6DDAC0" stroke-width="5" stroke-miterlimit="10" stroke-linecap="round"/>
<path d="M301 289L334 306.9C340 310.1 347.2 310.1 353.2 306.9L386.2 289" stroke="#6DDAC0" stroke-width="5" stroke-miterlimit="10" stroke-linecap="round"/>
</g>
<defs>
<filter id="filter0_f" x="1307.01" y="570.012" width="258.926" height="263.976" filterUnits="userSpaceOnUse" color-interpolation-filters="sRGB">
<feFlood flood-opacity="0" result="BackgroundImageFix"/>
<feBlend mode="normal" in="SourceGraphic" in2="BackgroundImageFix" result="shape"/>
<feGaussianBlur stdDeviation="36.9541" result="effect1_foregroundBlur"/>
</filter>
<filter id="filter1_f" x="635.012" y="14.0122" width="258.926" height="260.896" filterUnits="userSpaceOnUse" color-interpolation-filters="sRGB">
<feFlood flood-opacity="0" result="BackgroundImageFix"/>
<feBlend mode="normal" in="SourceGraphic" in2="BackgroundImageFix" result="shape"/>
<feGaussianBlur stdDeviation="36.9541" result="effect1_foregroundBlur"/>
</filter>
<filter id="filter2_f" x="224.012" y="451.012" width="258.926" height="263.976" filterUnits="userSpaceOnUse" color-interpolation-filters="sRGB">
<feFlood flood-opacity="0" result="BackgroundImageFix"/>
<feBlend mode="normal" in="SourceGraphic" in2="BackgroundImageFix" result="shape"/>
<feGaussianBlur stdDeviation="36.9541" result="effect1_foregroundBlur"/>
</filter>
<filter id="filter3_f" x="0.499512" y="518.5" width="210.201" height="214.3" filterUnits="userSpaceOnUse" color-interpolation-filters="sRGB">
<feFlood flood-opacity="0" result="BackgroundImageFix"/>
<feBlend mode="normal" in="SourceGraphic" in2="BackgroundImageFix" result="shape"/>
<feGaussianBlur stdDeviation="30" result="effect1_foregroundBlur"/>
</filter>
<filter id="filter4_f" x="238.5" y="226.5" width="210.201" height="214.3" filterUnits="userSpaceOnUse" color-interpolation-filters="sRGB">
<feFlood flood-opacity="0" result="BackgroundImageFix"/>
<feBlend mode="normal" in="SourceGraphic" in2="BackgroundImageFix" result="shape"/>
<feGaussianBlur stdDeviation="30" result="effect1_foregroundBlur"/>
</filter>
</defs>
</svg>
