<svg width="632" height="660" viewBox="0 0 632 660" fill="none" xmlns="http://www.w3.org/2000/svg">
<rect x="112" y="125" width="390" height="487" fill="#1A2121"/>
<path d="M485.654 212.982L497.249 218.907C499.357 219.967 501.886 219.967 503.995 218.907L515.589 212.982" stroke="#6DDAC0" stroke-width="3" stroke-miterlimit="10" stroke-linecap="round"/>
<path d="M485.654 204.429L497.249 210.893C499.357 212.049 501.886 212.049 503.995 210.893L515.589 204.429" stroke="#6DDAC0" stroke-width="3" stroke-miterlimit="10" stroke-linecap="round"/>
<path d="M485.654 196.487L497.249 202.951C499.357 204.107 501.886 204.107 503.995 202.951L515.589 196.487" stroke="#6DDAC0" stroke-width="3" stroke-miterlimit="10" stroke-linecap="round"/>
<path d="M485.654 188.545L497.249 195.01C499.357 196.165 501.886 196.165 503.995 195.01L515.589 188.545" stroke="#6DDAC0" stroke-width="3" stroke-miterlimit="10" stroke-linecap="round"/>
<path d="M478.935 186.102L467.34 179.638C465.232 178.482 462.702 178.482 460.594 179.638L449 186.102" stroke="#6DDAC0" stroke-width="3" stroke-miterlimit="10" stroke-linecap="round"/>
<path d="M478.935 194.044L467.34 188.118C465.232 187.059 462.702 187.059 460.594 188.118L449 194.044" stroke="#6DDAC0" stroke-width="3" stroke-miterlimit="10" stroke-linecap="round"/>
<path d="M478.935 202.596L467.34 196.132C465.232 194.977 462.702 194.977 460.594 196.132L449 202.596" stroke="#6DDAC0" stroke-width="3" stroke-miterlimit="10" stroke-linecap="round"/>
<path d="M478.935 210.538L467.34 204.074C465.232 202.918 462.702 202.918 460.594 204.074L449 210.538" stroke="#6DDAC0" stroke-width="3" stroke-miterlimit="10" stroke-linecap="round"/>
<path d="M485.654 252.691L497.249 259.155C499.357 260.311 501.886 260.311 503.995 259.155L515.589 252.691" stroke="#6DDAC0" stroke-width="3" stroke-miterlimit="10" stroke-linecap="round"/>
<path d="M485.654 244.749L497.249 251.213C499.357 252.369 501.886 252.369 503.995 251.213L515.589 244.749" stroke="#6DDAC0" stroke-width="3" stroke-miterlimit="10" stroke-linecap="round"/>
<path d="M485.654 236.807L497.249 243.271C499.357 244.427 501.886 244.427 503.995 243.271L515.589 236.807" stroke="#6DDAC0" stroke-width="3" stroke-miterlimit="10" stroke-linecap="round"/>
<path d="M485.654 228.865L497.249 234.791C499.357 235.85 501.886 235.85 503.995 234.791L515.589 228.865" stroke="#6DDAC0" stroke-width="3" stroke-miterlimit="10" stroke-linecap="round"/>
<path d="M485.654 173.884L497.249 180.348C499.357 181.503 501.886 181.503 503.995 180.348L515.589 173.884" stroke="#6DDAC0" stroke-width="3" stroke-miterlimit="10" stroke-linecap="round"/>
<path d="M485.654 165.942L497.249 172.406C499.357 173.562 501.886 173.562 503.995 172.406L515.589 165.942" stroke="#6DDAC0" stroke-width="3" stroke-miterlimit="10" stroke-linecap="round"/>
<path d="M485.654 158L497.249 163.926C499.357 164.985 501.886 164.985 503.995 163.926L515.589 158" stroke="#6DDAC0" stroke-width="3" stroke-miterlimit="10" stroke-linecap="round"/>
<path d="M478.935 224.589L467.34 218.664C465.232 217.604 462.702 217.604 460.594 218.664L449 224.589" stroke="#6DDAC0" stroke-width="3" stroke-miterlimit="10" stroke-linecap="round"/>
<path d="M478.935 233.142L467.34 226.678C465.232 225.522 462.702 225.522 460.594 226.678L449 233.142" stroke="#6DDAC0" stroke-width="3" stroke-miterlimit="10" stroke-linecap="round"/>
<path d="M478.935 241.084L467.34 234.619C465.232 233.464 462.702 233.464 460.594 234.619L449 241.084" stroke="#6DDAC0" stroke-width="3" stroke-miterlimit="10" stroke-linecap="round"/>
<path d="M478.935 249.025L467.34 243.1C465.232 242.041 462.702 242.041 460.594 243.1L449 249.025" stroke="#6DDAC0" stroke-width="3" stroke-miterlimit="10" stroke-linecap="round"/>
<path d="M485.654 289.345L497.249 295.81C499.357 296.965 501.886 296.965 503.995 295.81L515.589 289.345" stroke="#6DDAC0" stroke-width="3" stroke-miterlimit="10" stroke-linecap="round"/>
<path d="M485.654 281.404L497.249 287.868C499.357 289.023 501.886 289.023 503.995 287.868L515.589 281.404" stroke="#6DDAC0" stroke-width="3" stroke-miterlimit="10" stroke-linecap="round"/>
<path d="M485.654 273.462L497.249 279.926C499.357 281.082 501.886 281.082 503.995 279.926L515.589 273.462" stroke="#6DDAC0" stroke-width="3" stroke-miterlimit="10" stroke-linecap="round"/>
<path d="M485.654 265.52L497.249 271.446C499.357 272.505 501.886 272.505 503.995 271.446L515.589 265.52" stroke="#6DDAC0" stroke-width="3" stroke-miterlimit="10" stroke-linecap="round"/>
<g filter="url(#filter0_f)">
<path d="M160 232.004L127.852 214.365C122.007 211.212 114.993 211.212 109.148 214.365L77 232.004" stroke="#6DDAC0" stroke-width="6.15901" stroke-miterlimit="10" stroke-linecap="round"/>
<path d="M160 254.67L127.852 237.03C122.007 233.877 114.993 233.877 109.148 237.03L77 254.67" stroke="#6DDAC0" stroke-width="6.15901" stroke-miterlimit="10" stroke-linecap="round"/>
<path d="M160 277.335L127.852 259.695C122.007 256.542 114.993 256.542 109.148 259.695L77 277.335" stroke="#6DDAC0" stroke-width="6.15901" stroke-miterlimit="10" stroke-linecap="round"/>
<path d="M160 300L127.852 282.361C122.007 279.207 114.993 279.207 109.148 282.361L77 300" stroke="#6DDAC0" stroke-width="6.15901" stroke-miterlimit="10" stroke-linecap="round"/>
</g>
<g filter="url(#filter1_f)">
<path d="M555 505.732L518.204 485.688C511.514 482.104 503.486 482.104 496.796 485.688L460 505.732" stroke="#6DDAC0" stroke-width="6.15901" stroke-miterlimit="10" stroke-linecap="round"/>
<path d="M555 531.488L518.204 511.443C511.514 507.86 503.486 507.86 496.796 511.443L460 531.488" stroke="#6DDAC0" stroke-width="6.15901" stroke-miterlimit="10" stroke-linecap="round"/>
<path d="M555 557.244L518.204 537.199C511.514 533.616 503.486 533.616 496.796 537.199L460 557.244" stroke="#6DDAC0" stroke-width="6.15901" stroke-miterlimit="10" stroke-linecap="round"/>
<path d="M555 583L518.204 562.955C511.514 559.372 503.486 559.372 496.796 562.955L460 583" stroke="#6DDAC0" stroke-width="6.15901" stroke-miterlimit="10" stroke-linecap="round"/>
</g>
<g filter="url(#filter2_f)">
<path d="M502 106.779L453.972 80.5207C445.239 75.8264 434.761 75.8264 426.028 80.5207L378 106.779" stroke="#6DDAC0" stroke-width="6.15901" stroke-miterlimit="10" stroke-linecap="round"/>
<path d="M502 140.52L453.972 114.261C445.239 109.567 434.761 109.567 426.028 114.261L378 140.52" stroke="#6DDAC0" stroke-width="6.15901" stroke-miterlimit="10" stroke-linecap="round"/>
<path d="M502 174.26L453.972 148.001C445.239 143.307 434.761 143.307 426.028 148.001L378 174.26" stroke="#6DDAC0" stroke-width="6.15901" stroke-miterlimit="10" stroke-linecap="round"/>
<path d="M502 208L453.972 181.741C445.239 177.047 434.761 177.047 426.028 181.741L378 208" stroke="#6DDAC0" stroke-width="6.15901" stroke-miterlimit="10" stroke-linecap="round"/>
</g>
<defs>
<filter id="filter0_f" x="0.0117493" y="135.012" width="236.977" height="241.976" filterUnits="userSpaceOnUse" color-interpolation-filters="sRGB">
<feFlood flood-opacity="0" result="BackgroundImageFix"/>
<feBlend mode="normal" in="SourceGraphic" in2="BackgroundImageFix" result="shape"/>
<feGaussianBlur stdDeviation="36.9541" result="effect1_foregroundBlur"/>
</filter>
<filter id="filter1_f" x="383.012" y="406.012" width="248.977" height="253.976" filterUnits="userSpaceOnUse" color-interpolation-filters="sRGB">
<feFlood flood-opacity="0" result="BackgroundImageFix"/>
<feBlend mode="normal" in="SourceGraphic" in2="BackgroundImageFix" result="shape"/>
<feGaussianBlur stdDeviation="36.9541" result="effect1_foregroundBlur"/>
</filter>
<filter id="filter2_f" x="301.012" y="0.0122986" width="277.977" height="284.976" filterUnits="userSpaceOnUse" color-interpolation-filters="sRGB">
<feFlood flood-opacity="0" result="BackgroundImageFix"/>
<feBlend mode="normal" in="SourceGraphic" in2="BackgroundImageFix" result="shape"/>
<feGaussianBlur stdDeviation="36.9541" result="effect1_foregroundBlur"/>
</filter>
</defs>
</svg>
