<svg width="1507" height="708" viewBox="0 0 1507 708" fill="none" xmlns="http://www.w3.org/2000/svg">
<rect x="38" y="78" width="1440" height="630" fill="#1A2121"/>
<g filter="url(#filter0_f)">
<path d="M1234 383.779L1185.97 357.521C1177.24 352.826 1166.76 352.826 1158.03 357.521L1110 383.779" stroke="#6DDAC0" stroke-width="6.15901" stroke-miterlimit="10" stroke-linecap="round"/>
<path d="M1234 417.519L1185.97 391.261C1177.24 386.567 1166.76 386.567 1158.03 391.261L1110 417.52" stroke="#6DDAC0" stroke-width="6.15901" stroke-miterlimit="10" stroke-linecap="round"/>
<path d="M1234 451.26L1185.97 425.001C1177.24 420.307 1166.76 420.307 1158.03 425.001L1110 451.26" stroke="#6DDAC0" stroke-width="6.15901" stroke-miterlimit="10" stroke-linecap="round"/>
<path d="M1234 485L1185.97 458.741C1177.24 454.047 1166.76 454.047 1158.03 458.741L1110 485" stroke="#6DDAC0" stroke-width="6.15901" stroke-miterlimit="10" stroke-linecap="round"/>
</g>
<g filter="url(#filter1_f)">
<path d="M201 106.779L152.972 80.5207C144.239 75.8264 133.761 75.8264 125.028 80.5207L77 106.779" stroke="#6DDAC0" stroke-width="6.15901" stroke-miterlimit="10" stroke-linecap="round"/>
<path d="M201 140.519L152.972 114.261C144.239 109.567 133.761 109.567 125.028 114.261L77 140.52" stroke="#6DDAC0" stroke-width="6.15901" stroke-miterlimit="10" stroke-linecap="round"/>
<path d="M201 174.26L152.972 148.001C144.239 143.307 133.761 143.307 125.028 148.001L77 174.26" stroke="#6DDAC0" stroke-width="6.15901" stroke-miterlimit="10" stroke-linecap="round"/>
<path d="M201 208L152.972 181.741C144.239 177.047 133.761 177.047 125.028 181.741L77 208" stroke="#6DDAC0" stroke-width="6.15901" stroke-miterlimit="10" stroke-linecap="round"/>
</g>
<g filter="url(#filter2_f)">
<path d="M1365 128.779L1316.97 102.521C1308.24 97.8264 1297.76 97.8264 1289.03 102.521L1241 128.779" stroke="#6DDAC0" stroke-width="6.15901" stroke-miterlimit="10" stroke-linecap="round"/>
<path d="M1365 162.519L1316.97 136.261C1308.24 131.567 1297.76 131.567 1289.03 136.261L1241 162.52" stroke="#6DDAC0" stroke-width="6.15901" stroke-miterlimit="10" stroke-linecap="round"/>
<path d="M1365 196.26L1316.97 170.001C1308.24 165.307 1297.76 165.307 1289.03 170.001L1241 196.26" stroke="#6DDAC0" stroke-width="6.15901" stroke-miterlimit="10" stroke-linecap="round"/>
<path d="M1365 230L1316.97 203.741C1308.24 199.047 1297.76 199.047 1289.03 203.741L1241 230" stroke="#6DDAC0" stroke-width="6.15901" stroke-miterlimit="10" stroke-linecap="round"/>
</g>
<path d="M71 197L89.9789 206.7C93.4296 208.434 97.5704 208.434 101.021 206.7L120 197" stroke="#6DDAC0" stroke-width="3" stroke-miterlimit="10" stroke-linecap="round"/>
<path d="M71 183L89.9789 193.581C93.4296 195.473 97.5704 195.473 101.021 193.581L120 183" stroke="#6DDAC0" stroke-width="3" stroke-miterlimit="10" stroke-linecap="round"/>
<path d="M71 170L89.9789 180.581C93.4296 182.473 97.5704 182.473 101.021 180.581L120 170" stroke="#6DDAC0" stroke-width="3" stroke-miterlimit="10" stroke-linecap="round"/>
<path d="M71 157L89.9789 167.581C93.4296 169.473 97.5704 169.473 101.021 167.581L120 157" stroke="#6DDAC0" stroke-width="3" stroke-miterlimit="10" stroke-linecap="round"/>
<path d="M60 153L41.0211 142.419C37.5704 140.527 33.4296 140.527 29.9789 142.419L11 153" stroke="#6DDAC0" stroke-width="3" stroke-miterlimit="10" stroke-linecap="round"/>
<path d="M60 166L41.0211 156.3C37.5704 154.566 33.4296 154.566 29.9789 156.3L11 166" stroke="#6DDAC0" stroke-width="3" stroke-miterlimit="10" stroke-linecap="round"/>
<path d="M60 180L41.0211 169.419C37.5704 167.527 33.4296 167.527 29.9789 169.419L11 180" stroke="#6DDAC0" stroke-width="3" stroke-miterlimit="10" stroke-linecap="round"/>
<path d="M60 193L41.0211 182.419C37.5704 180.527 33.4296 180.527 29.9789 182.419L11 193" stroke="#6DDAC0" stroke-width="3" stroke-miterlimit="10" stroke-linecap="round"/>
<path d="M71 262L89.9789 272.581C93.4296 274.473 97.5704 274.473 101.021 272.581L120 262" stroke="#6DDAC0" stroke-width="3" stroke-miterlimit="10" stroke-linecap="round"/>
<path d="M71 249L89.9789 259.581C93.4296 261.473 97.5704 261.473 101.021 259.581L120 249" stroke="#6DDAC0" stroke-width="3" stroke-miterlimit="10" stroke-linecap="round"/>
<path d="M71 236L89.9789 246.581C93.4296 248.473 97.5704 248.473 101.021 246.581L120 236" stroke="#6DDAC0" stroke-width="3" stroke-miterlimit="10" stroke-linecap="round"/>
<path d="M71 223L89.9789 232.7C93.4296 234.434 97.5704 234.434 101.021 232.7L120 223" stroke="#6DDAC0" stroke-width="3" stroke-miterlimit="10" stroke-linecap="round"/>
<path d="M71 133L89.9789 143.581C93.4296 145.473 97.5704 145.473 101.021 143.581L120 133" stroke="#6DDAC0" stroke-width="3" stroke-miterlimit="10" stroke-linecap="round"/>
<path d="M71 120L89.9789 130.581C93.4296 132.473 97.5704 132.473 101.021 130.581L120 120" stroke="#6DDAC0" stroke-width="3" stroke-miterlimit="10" stroke-linecap="round"/>
<path d="M71 107L89.9789 116.7C93.4296 118.434 97.5704 118.434 101.021 116.7L120 107" stroke="#6DDAC0" stroke-width="3" stroke-miterlimit="10" stroke-linecap="round"/>
<path d="M60 216L41.0211 206.3C37.5704 204.566 33.4296 204.566 29.9789 206.3L11 216" stroke="#6DDAC0" stroke-width="3" stroke-miterlimit="10" stroke-linecap="round"/>
<path d="M60 230L41.0211 219.419C37.5704 217.527 33.4296 217.527 29.9789 219.419L11 230" stroke="#6DDAC0" stroke-width="3" stroke-miterlimit="10" stroke-linecap="round"/>
<path d="M60 243L41.0211 232.419C37.5704 230.527 33.4296 230.527 29.9789 232.419L11 243" stroke="#6DDAC0" stroke-width="3" stroke-miterlimit="10" stroke-linecap="round"/>
<path d="M60 256L41.0211 246.3C37.5704 244.566 33.4296 244.566 29.9789 246.3L11 256" stroke="#6DDAC0" stroke-width="3" stroke-miterlimit="10" stroke-linecap="round"/>
<path d="M60 342L41.0211 331.419C37.5704 329.527 33.4296 329.527 29.9789 331.419L11 342" stroke="#6DDAC0" stroke-width="3" stroke-miterlimit="10" stroke-linecap="round"/>
<path d="M60 355L41.0211 345.3C37.5704 343.566 33.4296 343.566 29.9789 345.3L11 355" stroke="#6DDAC0" stroke-width="3" stroke-miterlimit="10" stroke-linecap="round"/>
<path d="M60 369L41.0211 358.419C37.5704 356.527 33.4296 356.527 29.9789 358.419L11 369" stroke="#6DDAC0" stroke-width="3" stroke-miterlimit="10" stroke-linecap="round"/>
<path d="M60 382L41.0211 371.419C37.5704 369.527 33.4296 369.527 29.9789 371.419L11 382" stroke="#6DDAC0" stroke-width="3" stroke-miterlimit="10" stroke-linecap="round"/>
<path d="M71 322L89.9789 332.581C93.4296 334.473 97.5704 334.473 101.021 332.581L120 322" stroke="#6DDAC0" stroke-width="3" stroke-miterlimit="10" stroke-linecap="round"/>
<path d="M71 309L89.9789 319.581C93.4296 321.473 97.5704 321.473 101.021 319.581L120 309" stroke="#6DDAC0" stroke-width="3" stroke-miterlimit="10" stroke-linecap="round"/>
<path d="M71 296L89.9789 306.581C93.4296 308.473 97.5704 308.473 101.021 306.581L120 296" stroke="#6DDAC0" stroke-width="3" stroke-miterlimit="10" stroke-linecap="round"/>
<path d="M71 283L89.9789 292.7C93.4296 294.434 97.5704 294.434 101.021 292.7L120 283" stroke="#6DDAC0" stroke-width="3" stroke-miterlimit="10" stroke-linecap="round"/>
<path d="M1456 447L1474.98 456.7C1478.43 458.434 1482.57 458.434 1486.02 456.7L1505 447" stroke="#6DDAC0" stroke-width="3" stroke-miterlimit="10" stroke-linecap="round"/>
<path d="M1456 433L1474.98 443.581C1478.43 445.473 1482.57 445.473 1486.02 443.581L1505 433" stroke="#6DDAC0" stroke-width="3" stroke-miterlimit="10" stroke-linecap="round"/>
<path d="M1456 420L1474.98 430.581C1478.43 432.473 1482.57 432.473 1486.02 430.581L1505 420" stroke="#6DDAC0" stroke-width="3" stroke-miterlimit="10" stroke-linecap="round"/>
<path d="M1456 407L1474.98 417.581C1478.43 419.473 1482.57 419.473 1486.02 417.581L1505 407" stroke="#6DDAC0" stroke-width="3" stroke-miterlimit="10" stroke-linecap="round"/>
<path d="M1445 403L1426.02 392.419C1422.57 390.527 1418.43 390.527 1414.98 392.419L1396 403" stroke="#6DDAC0" stroke-width="3" stroke-miterlimit="10" stroke-linecap="round"/>
<path d="M1445 416L1426.02 406.3C1422.57 404.566 1418.43 404.566 1414.98 406.3L1396 416" stroke="#6DDAC0" stroke-width="3" stroke-miterlimit="10" stroke-linecap="round"/>
<path d="M1445 430L1426.02 419.419C1422.57 417.527 1418.43 417.527 1414.98 419.419L1396 430" stroke="#6DDAC0" stroke-width="3" stroke-miterlimit="10" stroke-linecap="round"/>
<path d="M1445 443L1426.02 432.419C1422.57 430.527 1418.43 430.527 1414.98 432.419L1396 443" stroke="#6DDAC0" stroke-width="3" stroke-miterlimit="10" stroke-linecap="round"/>
<path d="M1456 512L1474.98 522.581C1478.43 524.473 1482.57 524.473 1486.02 522.581L1505 512" stroke="#6DDAC0" stroke-width="3" stroke-miterlimit="10" stroke-linecap="round"/>
<path d="M1456 499L1474.98 509.581C1478.43 511.473 1482.57 511.473 1486.02 509.581L1505 499" stroke="#6DDAC0" stroke-width="3" stroke-miterlimit="10" stroke-linecap="round"/>
<path d="M1456 486L1474.98 496.581C1478.43 498.473 1482.57 498.473 1486.02 496.581L1505 486" stroke="#6DDAC0" stroke-width="3" stroke-miterlimit="10" stroke-linecap="round"/>
<path d="M1456 473L1474.98 482.7C1478.43 484.434 1482.57 484.434 1486.02 482.7L1505 473" stroke="#6DDAC0" stroke-width="3" stroke-miterlimit="10" stroke-linecap="round"/>
<path d="M1456 383L1474.98 393.581C1478.43 395.473 1482.57 395.473 1486.02 393.581L1505 383" stroke="#6DDAC0" stroke-width="3" stroke-miterlimit="10" stroke-linecap="round"/>
<path d="M1456 370L1474.98 380.581C1478.43 382.473 1482.57 382.473 1486.02 380.581L1505 370" stroke="#6DDAC0" stroke-width="3" stroke-miterlimit="10" stroke-linecap="round"/>
<path d="M1456 357L1474.98 366.7C1478.43 368.434 1482.57 368.434 1486.02 366.7L1505 357" stroke="#6DDAC0" stroke-width="3" stroke-miterlimit="10" stroke-linecap="round"/>
<path d="M1445 466L1426.02 456.3C1422.57 454.566 1418.43 454.566 1414.98 456.3L1396 466" stroke="#6DDAC0" stroke-width="3" stroke-miterlimit="10" stroke-linecap="round"/>
<path d="M1445 480L1426.02 469.419C1422.57 467.527 1418.43 467.527 1414.98 469.419L1396 480" stroke="#6DDAC0" stroke-width="3" stroke-miterlimit="10" stroke-linecap="round"/>
<path d="M1445 493L1426.02 482.419C1422.57 480.527 1418.43 480.527 1414.98 482.419L1396 493" stroke="#6DDAC0" stroke-width="3" stroke-miterlimit="10" stroke-linecap="round"/>
<path d="M1445 506L1426.02 496.3C1422.57 494.566 1418.43 494.566 1414.98 496.3L1396 506" stroke="#6DDAC0" stroke-width="3" stroke-miterlimit="10" stroke-linecap="round"/>
<path d="M1445 592L1426.02 581.419C1422.57 579.527 1418.43 579.527 1414.98 581.419L1396 592" stroke="#6DDAC0" stroke-width="3" stroke-miterlimit="10" stroke-linecap="round"/>
<path d="M1445 605L1426.02 595.3C1422.57 593.566 1418.43 593.566 1414.98 595.3L1396 605" stroke="#6DDAC0" stroke-width="3" stroke-miterlimit="10" stroke-linecap="round"/>
<path d="M1445 619L1426.02 608.419C1422.57 606.527 1418.43 606.527 1414.98 608.419L1396 619" stroke="#6DDAC0" stroke-width="3" stroke-miterlimit="10" stroke-linecap="round"/>
<path d="M1445 632L1426.02 621.419C1422.57 619.527 1418.43 619.527 1414.98 621.419L1396 632" stroke="#6DDAC0" stroke-width="3" stroke-miterlimit="10" stroke-linecap="round"/>
<path d="M1456 572L1474.98 582.581C1478.43 584.473 1482.57 584.473 1486.02 582.581L1505 572" stroke="#6DDAC0" stroke-width="3" stroke-miterlimit="10" stroke-linecap="round"/>
<path d="M1456 559L1474.98 569.581C1478.43 571.473 1482.57 571.473 1486.02 569.581L1505 559" stroke="#6DDAC0" stroke-width="3" stroke-miterlimit="10" stroke-linecap="round"/>
<path d="M1456 546L1474.98 556.581C1478.43 558.473 1482.57 558.473 1486.02 556.581L1505 546" stroke="#6DDAC0" stroke-width="3" stroke-miterlimit="10" stroke-linecap="round"/>
<path d="M1456 533L1474.98 542.7C1478.43 544.434 1482.57 544.434 1486.02 542.7L1505 533" stroke="#6DDAC0" stroke-width="3" stroke-miterlimit="10" stroke-linecap="round"/>
<g filter="url(#filter3_f)">
<path d="M1118 218.009L1053.7 182.73C1042.01 176.423 1027.99 176.423 1016.3 182.73L952 218.009" stroke="#6DDAC0" stroke-width="6.15901" stroke-miterlimit="10" stroke-linecap="round"/>
<path d="M1118 263.339L1053.7 228.061C1042.01 221.754 1027.99 221.754 1016.3 228.061L952 263.339" stroke="#6DDAC0" stroke-width="6.15901" stroke-miterlimit="10" stroke-linecap="round"/>
<path d="M1118 308.67L1053.7 273.391C1042.01 267.084 1027.99 267.084 1016.3 273.391L952 308.67" stroke="#6DDAC0" stroke-width="6.15901" stroke-miterlimit="10" stroke-linecap="round"/>
<path d="M1118 354L1053.7 318.721C1042.01 312.414 1027.99 312.414 1016.3 318.721L952 354" stroke="#6DDAC0" stroke-width="6.15901" stroke-miterlimit="10" stroke-linecap="round"/>
</g>
<defs>
<filter id="filter0_f" x="1033.01" y="277.012" width="277.977" height="284.976" filterUnits="userSpaceOnUse" color-interpolation-filters="sRGB">
<feFlood flood-opacity="0" result="BackgroundImageFix"/>
<feBlend mode="normal" in="SourceGraphic" in2="BackgroundImageFix" result="shape"/>
<feGaussianBlur stdDeviation="36.9541" result="effect1_foregroundBlur"/>
</filter>
<filter id="filter1_f" x="0.0117493" y="0.0123596" width="277.977" height="284.976" filterUnits="userSpaceOnUse" color-interpolation-filters="sRGB">
<feFlood flood-opacity="0" result="BackgroundImageFix"/>
<feBlend mode="normal" in="SourceGraphic" in2="BackgroundImageFix" result="shape"/>
<feGaussianBlur stdDeviation="36.9541" result="effect1_foregroundBlur"/>
</filter>
<filter id="filter2_f" x="1164.01" y="22.0124" width="277.977" height="284.976" filterUnits="userSpaceOnUse" color-interpolation-filters="sRGB">
<feFlood flood-opacity="0" result="BackgroundImageFix"/>
<feBlend mode="normal" in="SourceGraphic" in2="BackgroundImageFix" result="shape"/>
<feGaussianBlur stdDeviation="36.9541" result="effect1_foregroundBlur"/>
</filter>
<filter id="filter3_f" x="875.012" y="101.012" width="319.976" height="329.976" filterUnits="userSpaceOnUse" color-interpolation-filters="sRGB">
<feFlood flood-opacity="0" result="BackgroundImageFix"/>
<feBlend mode="normal" in="SourceGraphic" in2="BackgroundImageFix" result="shape"/>
<feGaussianBlur stdDeviation="36.9541" result="effect1_foregroundBlur"/>
</filter>
</defs>
</svg>
