<svg width="1440" height="330" viewBox="0 0 1440 330" fill="none" xmlns="http://www.w3.org/2000/svg">
<g clip-path="url(#clip0)">
<rect width="1440" height="330" fill="#F3F8F6"/>
<path d="M18.6038 62.9485L0.805682 53.2944C-2.43033 51.5685 -6.31355 51.5685 -9.54957 53.2944L-27.3477 62.9485" stroke="#6DDAC0" stroke-width="2.69668" stroke-miterlimit="10" stroke-linecap="round"/>
<path d="M18.6038 75.3532L0.805682 65.6991C-2.43033 63.9733 -6.31355 63.9733 -9.54957 65.6991L-27.3477 75.3532" stroke="#6DDAC0" stroke-width="2.69668" stroke-miterlimit="10" stroke-linecap="round"/>
<path d="M18.6038 87.758L0.805682 78.1038C-2.43033 76.378 -6.31355 76.378 -9.54957 78.1039L-27.3477 87.758" stroke="#6DDAC0" stroke-width="2.69668" stroke-miterlimit="10" stroke-linecap="round"/>
<path d="M18.6038 100.163L0.805682 90.5086C-2.43033 88.7827 -6.31355 88.7827 -9.54957 90.5086L-27.3477 100.163" stroke="#6DDAC0" stroke-width="2.69668" stroke-miterlimit="10" stroke-linecap="round"/>
<path d="M28.7429 182.214L46.541 191.868C49.777 193.594 53.6602 193.594 56.8962 191.868L74.6943 182.214" stroke="#6DDAC0" stroke-width="2.69668" stroke-miterlimit="10" stroke-linecap="round"/>
<path d="M28.7429 169.809L46.541 179.463C49.777 181.189 53.6602 181.189 56.8962 179.463L74.6943 169.809" stroke="#6DDAC0" stroke-width="2.69668" stroke-miterlimit="10" stroke-linecap="round"/>
<path d="M28.7429 157.405L46.541 167.059C49.777 168.785 53.6602 168.785 56.8962 167.059L74.6943 157.405" stroke="#6DDAC0" stroke-width="2.69668" stroke-miterlimit="10" stroke-linecap="round"/>
<path d="M28.7429 145L46.541 154.654C49.777 156.38 53.6602 156.38 56.8962 154.654L74.6943 145" stroke="#6DDAC0" stroke-width="2.69668" stroke-miterlimit="10" stroke-linecap="round"/>
<path d="M18.6038 122.275L0.805682 112.621C-2.43033 110.895 -6.31355 110.895 -9.54957 112.621L-27.3477 122.275" stroke="#6DDAC0" stroke-width="2.69668" stroke-miterlimit="10" stroke-linecap="round"/>
<path d="M18.6038 134.68L0.805682 125.026C-2.43033 123.3 -6.31355 123.3 -9.54957 125.026L-27.3477 134.68" stroke="#6DDAC0" stroke-width="2.69668" stroke-miterlimit="10" stroke-linecap="round"/>
<path d="M18.6038 147.085L0.805682 137.431C-2.43033 135.705 -6.31355 135.705 -9.54957 137.431L-27.3477 147.085" stroke="#6DDAC0" stroke-width="2.69668" stroke-miterlimit="10" stroke-linecap="round"/>
<path d="M18.6038 159.49L0.805682 149.835C-2.43033 148.11 -6.31355 148.11 -9.54957 149.835L-27.3477 159.49" stroke="#6DDAC0" stroke-width="2.69668" stroke-miterlimit="10" stroke-linecap="round"/>
<path d="M1419.95 92.9485L1402.15 83.2944C1398.92 81.5685 1395.03 81.5685 1391.8 83.2944L1374 92.9485" stroke="#6DDAC0" stroke-width="2.69668" stroke-miterlimit="10" stroke-linecap="round"/>
<path d="M1419.95 105.353L1402.15 95.6991C1398.92 93.9733 1395.03 93.9733 1391.8 95.6991L1374 105.353" stroke="#6DDAC0" stroke-width="2.69668" stroke-miterlimit="10" stroke-linecap="round"/>
<path d="M1419.95 117.758L1402.15 108.104C1398.92 106.378 1395.03 106.378 1391.8 108.104L1374 117.758" stroke="#6DDAC0" stroke-width="2.69668" stroke-miterlimit="10" stroke-linecap="round"/>
<path d="M1419.95 130.163L1402.15 120.509C1398.92 118.783 1395.03 118.783 1391.8 120.509L1374 130.163" stroke="#6DDAC0" stroke-width="2.69668" stroke-miterlimit="10" stroke-linecap="round"/>
<path d="M1414 194.214L1431.8 203.868C1435.03 205.594 1438.92 205.594 1442.15 203.868L1459.95 194.214" stroke="#6DDAC0" stroke-width="2.69668" stroke-miterlimit="10" stroke-linecap="round"/>
<path d="M1414 181.809L1431.8 191.463C1435.03 193.189 1438.92 193.189 1442.15 191.463L1459.95 181.809" stroke="#6DDAC0" stroke-width="2.69668" stroke-miterlimit="10" stroke-linecap="round"/>
<path d="M1414 169.405L1431.8 179.059C1435.03 180.785 1438.92 180.785 1442.15 179.059L1459.95 169.405" stroke="#6DDAC0" stroke-width="2.69668" stroke-miterlimit="10" stroke-linecap="round"/>
<path d="M1414 157L1431.8 166.654C1435.03 168.38 1438.92 168.38 1442.15 166.654L1459.95 157" stroke="#6DDAC0" stroke-width="2.69668" stroke-miterlimit="10" stroke-linecap="round"/>
<g filter="url(#filter0_f)">
<path d="M1361 235.009L1296.7 199.73C1285.01 193.423 1270.99 193.423 1259.3 199.73L1195 235.009" stroke="#6DDAC0" stroke-width="6.15901" stroke-miterlimit="10" stroke-linecap="round"/>
<path d="M1361 280.339L1296.7 245.06C1285.01 238.754 1270.99 238.754 1259.3 245.06L1195 280.339" stroke="#6DDAC0" stroke-width="6.15901" stroke-miterlimit="10" stroke-linecap="round"/>
<path d="M1361 325.67L1296.7 290.391C1285.01 284.084 1270.99 284.084 1259.3 290.391L1195 325.67" stroke="#6DDAC0" stroke-width="6.15901" stroke-miterlimit="10" stroke-linecap="round"/>
<path d="M1361 371L1296.7 335.721C1285.01 329.414 1270.99 329.414 1259.3 335.721L1195 371" stroke="#6DDAC0" stroke-width="6.15901" stroke-miterlimit="10" stroke-linecap="round"/>
</g>
</g>
<defs>
<filter id="filter0_f" x="1118.01" y="118.012" width="319.976" height="329.976" filterUnits="userSpaceOnUse" color-interpolation-filters="sRGB">
<feFlood flood-opacity="0" result="BackgroundImageFix"/>
<feBlend mode="normal" in="SourceGraphic" in2="BackgroundImageFix" result="shape"/>
<feGaussianBlur stdDeviation="36.9541" result="effect1_foregroundBlur"/>
</filter>
<clipPath id="clip0">
<rect width="1440" height="330" fill="white"/>
</clipPath>
</defs>
</svg>
