<svg width="390" height="305" viewBox="0 0 390 305" fill="none" xmlns="http://www.w3.org/2000/svg">
<g clip-path="url(#clip0)">
<rect width="390" height="305" fill="#F3F8F6"/>
<g filter="url(#filter0_f)">
<path d="M399 259.731L370.725 244.096C365.584 241.301 359.415 241.301 354.275 244.096L326 259.731" stroke="#6DDAC0" stroke-width="6.15901" stroke-miterlimit="10" stroke-linecap="round"/>
<path d="M399 279.821L370.725 264.186C365.584 261.391 359.415 261.391 354.275 264.186L326 279.821" stroke="#6DDAC0" stroke-width="6.15901" stroke-miterlimit="10" stroke-linecap="round"/>
<path d="M399 299.91L370.725 284.275C365.584 281.48 359.415 281.48 354.275 284.275L326 299.91" stroke="#6DDAC0" stroke-width="6.15901" stroke-miterlimit="10" stroke-linecap="round"/>
<path d="M399 320L370.725 304.365C365.584 301.57 359.415 301.57 354.275 304.365L326 320" stroke="#6DDAC0" stroke-width="6.15901" stroke-miterlimit="10" stroke-linecap="round"/>
</g>
<path d="M9.37868 38.4834L0.464831 33.6483C-1.15587 32.7839 -3.10071 32.7839 -4.72141 33.6483L-13.6353 38.4834" stroke="#6DDAC0" stroke-width="2.69668" stroke-miterlimit="10" stroke-linecap="round"/>
<path d="M9.37868 44.696L0.464831 39.861C-1.15587 38.9966 -3.10071 38.9966 -4.72141 39.861L-13.6353 44.696" stroke="#6DDAC0" stroke-width="2.69668" stroke-miterlimit="10" stroke-linecap="round"/>
<path d="M9.37868 50.9087L0.464831 46.0736C-1.15587 45.2093 -3.10071 45.2093 -4.72141 46.0736L-13.6353 50.9087" stroke="#6DDAC0" stroke-width="2.69668" stroke-miterlimit="10" stroke-linecap="round"/>
<path d="M9.37868 57.1214L0.464831 52.2863C-1.15587 51.4219 -3.10071 51.4219 -4.72141 52.2863L-13.6353 57.1214" stroke="#6DDAC0" stroke-width="2.69668" stroke-miterlimit="10" stroke-linecap="round"/>
<path d="M14.4573 98.2151L23.3711 103.05C24.9918 103.915 26.9366 103.915 28.5573 103.05L37.4712 98.2151" stroke="#6DDAC0" stroke-width="2.69668" stroke-miterlimit="10" stroke-linecap="round"/>
<path d="M14.4573 92.0024L23.3711 96.8375C24.9918 97.7019 26.9366 97.7019 28.5573 96.8375L37.4712 92.0024" stroke="#6DDAC0" stroke-width="2.69668" stroke-miterlimit="10" stroke-linecap="round"/>
<path d="M14.4573 85.7897L23.3711 90.6248C24.9918 91.4892 26.9366 91.4892 28.5573 90.6248L37.4712 85.7897" stroke="#6DDAC0" stroke-width="2.69668" stroke-miterlimit="10" stroke-linecap="round"/>
<path d="M14.4573 79.5771L23.3711 84.4121C24.9918 85.2765 26.9366 85.2765 28.5573 84.4121L37.4712 79.5771" stroke="#6DDAC0" stroke-width="2.69668" stroke-miterlimit="10" stroke-linecap="round"/>
<path d="M9.37868 68.1958L0.464831 63.3607C-1.15587 62.4963 -3.10071 62.4963 -4.72141 63.3607L-13.6353 68.1958" stroke="#6DDAC0" stroke-width="2.69668" stroke-miterlimit="10" stroke-linecap="round"/>
<path d="M9.37868 74.4085L0.464831 69.5734C-1.15587 68.709 -3.10071 68.709 -4.72141 69.5734L-13.6353 74.4085" stroke="#6DDAC0" stroke-width="2.69668" stroke-miterlimit="10" stroke-linecap="round"/>
<path d="M9.37868 80.6212L0.464831 75.7861C-1.15587 74.9217 -3.10071 74.9217 -4.72141 75.7861L-13.6353 80.6212" stroke="#6DDAC0" stroke-width="2.69668" stroke-miterlimit="10" stroke-linecap="round"/>
<path d="M9.37868 86.8338L0.464831 81.9988C-1.15587 81.1344 -3.10071 81.1344 -4.72141 81.9988L-13.6353 86.8338" stroke="#6DDAC0" stroke-width="2.69668" stroke-miterlimit="10" stroke-linecap="round"/>
<path d="M373.014 38.4834L364.1 33.6483C362.479 32.7839 360.535 32.7839 358.914 33.6483L350 38.4834" stroke="#6DDAC0" stroke-width="2.69668" stroke-miterlimit="10" stroke-linecap="round"/>
<path d="M373.014 44.696L364.1 39.861C362.479 38.9966 360.535 38.9966 358.914 39.861L350 44.696" stroke="#6DDAC0" stroke-width="2.69668" stroke-miterlimit="10" stroke-linecap="round"/>
<path d="M373.014 50.9087L364.1 46.0736C362.479 45.2093 360.535 45.2093 358.914 46.0736L350 50.9087" stroke="#6DDAC0" stroke-width="2.69668" stroke-miterlimit="10" stroke-linecap="round"/>
<path d="M373.014 57.1214L364.1 52.2863C362.479 51.4219 360.535 51.4219 358.914 52.2863L350 57.1214" stroke="#6DDAC0" stroke-width="2.69668" stroke-miterlimit="10" stroke-linecap="round"/>
<path d="M378.092 98.2159L387.006 103.051C388.627 103.915 390.571 103.915 392.192 103.051L401.106 98.2159" stroke="#6DDAC0" stroke-width="2.69668" stroke-miterlimit="10" stroke-linecap="round"/>
<path d="M378.092 92.0032L387.006 96.8383C388.627 97.7026 390.571 97.7026 392.192 96.8383L401.106 92.0032" stroke="#6DDAC0" stroke-width="2.69668" stroke-miterlimit="10" stroke-linecap="round"/>
<path d="M378.092 85.7905L387.006 90.6256C388.627 91.49 390.571 91.49 392.192 90.6256L401.106 85.7905" stroke="#6DDAC0" stroke-width="2.69668" stroke-miterlimit="10" stroke-linecap="round"/>
<path d="M378.092 79.5778L387.006 84.4129C388.627 85.2773 390.571 85.2773 392.192 84.4129L401.106 79.5778" stroke="#6DDAC0" stroke-width="2.69668" stroke-miterlimit="10" stroke-linecap="round"/>
</g>
<defs>
<filter id="filter0_f" x="249.012" y="165.012" width="226.976" height="231.976" filterUnits="userSpaceOnUse" color-interpolation-filters="sRGB">
<feFlood flood-opacity="0" result="BackgroundImageFix"/>
<feBlend mode="normal" in="SourceGraphic" in2="BackgroundImageFix" result="shape"/>
<feGaussianBlur stdDeviation="36.9541" result="effect1_foregroundBlur"/>
</filter>
<clipPath id="clip0">
<rect width="390" height="305" fill="white"/>
</clipPath>
</defs>
</svg>
