<svg width="16" height="14" viewBox="0 0 16 14" fill="none" xmlns="http://www.w3.org/2000/svg">
<path d="M7.99883 0.100098C4.02083 0.100098 0.798828 3.2681 0.798828 7.1753C0.798828 10.3019 2.86163 12.9533 5.72183 13.8881C6.08183 13.9547 6.21383 13.7357 6.21383 13.5479C6.21383 13.3799 6.20783 12.9347 6.20483 12.3449C4.20203 12.7715 3.77963 11.3957 3.77963 11.3957C3.45203 10.5791 2.97863 10.3607 2.97863 10.3607C2.32643 9.9221 3.02903 9.9311 3.02903 9.9311C3.75203 9.9803 4.13183 10.6601 4.13183 10.6601C4.77383 11.7419 5.81723 11.4293 6.22883 11.2487C6.29363 10.7909 6.47903 10.4795 6.68483 10.3025C5.08583 10.1255 3.40523 9.5171 3.40523 6.8063C3.40523 6.0341 3.68423 5.4029 4.14623 4.9079C4.06523 4.7291 3.82223 4.0097 4.20923 3.0353C4.20923 3.0353 4.81223 2.8457 6.18923 3.7607C6.76523 3.6035 7.37723 3.5255 7.98923 3.5219C8.60123 3.5255 9.21323 3.6035 9.78923 3.7607C11.1572 2.8457 11.7602 3.0353 11.7602 3.0353C12.1472 4.0097 11.9042 4.7291 11.8322 4.9079C12.2912 5.4029 12.5702 6.0341 12.5702 6.8063C12.5702 9.5243 10.8872 10.1225 9.28523 10.2965C9.53723 10.5089 9.77123 10.9427 9.77123 11.6057C9.77123 12.5525 9.76223 13.3133 9.76223 13.5431C9.76223 13.7285 9.88823 13.9499 10.2572 13.8791C13.1378 12.9503 15.1988 10.2971 15.1988 7.1753C15.1988 3.2681 11.975 0.100098 7.99883 0.100098Z" fill="white"/>
</svg>
