<svg width="16" height="12" viewBox="0 0 16 12" fill="none" xmlns="http://www.w3.org/2000/svg">
<path d="M14.0513 1.6396L15.2003 0.540405V0.299805H11.2199L8.38309 7.3606L5.15569 0.299805H0.982093V0.540405L2.32429 2.1562C2.45509 2.2756 2.52349 2.4502 2.50609 2.626V8.9758C2.54749 9.2044 2.47309 9.4396 2.31229 9.6058L0.800293 11.4382V11.6758H5.08729V11.4352L3.57529 9.6058C3.41149 9.439 3.33409 9.208 3.36709 8.9758V3.4834L7.13029 11.6788H7.56769L10.8035 3.4834V10.012C10.8035 10.1842 10.8035 10.2196 10.6907 10.3324L9.52669 11.4586V11.6998H15.1739V11.4592L14.0519 10.3606C13.9535 10.2862 13.9025 10.1614 13.9235 10.0402V1.96C13.9025 1.8382 13.9529 1.7134 14.0513 1.6396Z" fill="white"/>
</svg>
