<svg width="14" height="12" viewBox="0 0 14 12" fill="none" xmlns="http://www.w3.org/2000/svg">
<path d="M13.5994 0.599783C13.0248 1.00507 12.3887 1.31505 11.7154 1.51778C11.3541 1.10229 10.8738 0.807799 10.3396 0.674139C9.80545 0.54048 9.24311 0.574101 8.72866 0.770455C8.21421 0.96681 7.77248 1.31642 7.4632 1.77201C7.15393 2.2276 6.99203 2.76718 6.99941 3.31778V3.91778C5.94499 3.94512 4.90018 3.71127 3.95802 3.23705C3.01586 2.76283 2.2056 2.06296 1.59941 1.19978C1.59941 1.19978 -0.800586 6.59978 4.59941 8.99978C3.36373 9.83856 1.89171 10.2591 0.399414 10.1998C5.79941 13.1998 12.3994 10.1998 12.3994 3.29978C12.3989 3.13266 12.3828 2.96594 12.3514 2.80178C12.9638 2.19788 13.3959 1.43541 13.5994 0.599783Z" fill="white"/>
</svg>
