<svg width="22" height="19" viewBox="0 0 22 19" fill="none" xmlns="http://www.w3.org/2000/svg">
<path d="M14.8903 6.07688C12.9005 6.18041 11.171 6.78387 9.76587 8.14657C8.34597 9.52308 7.69814 11.2102 7.87563 13.3016C7.09765 13.2049 6.38967 13.0994 5.67775 13.0393C5.43124 13.0186 5.13938 13.0482 4.93132 13.1655C4.24011 13.556 3.57651 13.9967 2.79063 14.4878C2.9346 13.835 3.02827 13.2641 3.19392 12.7149C3.31521 12.3106 3.259 12.0868 2.88727 11.8235C0.499083 10.1374 -0.507661 7.61411 0.245672 5.0159C0.941814 2.61293 2.65358 1.15458 4.97964 0.395331C8.15468 -0.64198 11.7222 0.416038 13.6528 2.93635C14.349 3.84646 14.7769 4.86898 14.8903 6.07688ZM5.73297 5.26734C5.75171 4.79207 5.33954 4.36413 4.85047 4.34934C4.34956 4.33455 3.93838 4.71713 3.92359 5.21114C3.9088 5.71106 4.29138 6.11238 4.79525 6.1252C5.29517 6.13801 5.71424 5.75445 5.73297 5.26734ZM10.5103 4.34934C10.0193 4.35822 9.60514 4.7763 9.61303 5.25354C9.6219 5.74754 10.0291 6.13506 10.534 6.12914C11.0398 6.12322 11.4244 5.73177 11.4195 5.22692C11.4155 4.73193 11.0102 4.34047 10.5103 4.34934Z" fill="white"/>
<path d="M19.36 18.4803C18.73 18.2003 18.1522 17.7793 17.5369 17.7152C16.9235 17.6511 16.2797 18.0051 15.6387 18.0701C13.6854 18.2703 11.9352 17.726 10.4926 16.3909C7.74847 13.8529 8.14091 9.96096 11.315 7.88042C14.137 6.0316 18.2754 6.64787 20.2642 9.21354C22.0007 11.4518 21.7965 14.4228 19.6766 16.3032C19.0632 16.8474 18.8424 17.2951 19.2358 18.0129C19.3098 18.1461 19.3176 18.3137 19.36 18.4803ZM12.1886 11.5376C12.5899 11.5376 12.9202 11.2241 12.935 10.8277C12.9508 10.4086 12.6136 10.0566 12.1935 10.0546C11.7774 10.0527 11.4293 10.4096 11.4441 10.8228C11.4579 11.2182 11.7902 11.5366 12.1886 11.5376ZM16.8111 10.0566C16.4217 10.0536 16.0913 10.3721 16.0756 10.7656C16.0588 11.1856 16.3852 11.5317 16.8013 11.5327C17.2036 11.5337 17.5221 11.23 17.5359 10.8297C17.5526 10.4076 17.2253 10.0596 16.8111 10.0566Z" fill="white"/>
</svg>
