<svg width="1494" height="774" viewBox="0 0 1494 774" fill="none" xmlns="http://www.w3.org/2000/svg">
<rect x="7" y="24" width="1440" height="750" fill="#F3F8F6"/>
<g filter="url(#filter0_f)">
<path d="M243 117.009L178.704 81.7301C167.014 75.4233 152.986 75.4233 141.296 81.7301L77 117.009" stroke="#6DDAC0" stroke-width="6.15901" stroke-miterlimit="10" stroke-linecap="round"/>
<path d="M243 162.339L178.704 127.06C167.014 120.754 152.986 120.754 141.296 127.06L77 162.339" stroke="#6DDAC0" stroke-width="6.15901" stroke-miterlimit="10" stroke-linecap="round"/>
<path d="M243 207.67L178.704 172.391C167.014 166.084 152.986 166.084 141.296 172.391L77 207.67" stroke="#6DDAC0" stroke-width="6.15901" stroke-miterlimit="10" stroke-linecap="round"/>
<path d="M243 253L178.704 217.721C167.014 211.414 152.986 211.414 141.296 217.721L77 253" stroke="#6DDAC0" stroke-width="6.15901" stroke-miterlimit="10" stroke-linecap="round"/>
</g>
<path d="M1407 297.7L1440 315.6C1446 318.8 1453.2 318.8 1459.2 315.6L1492.2 297.7" stroke="#6DDAC0" stroke-width="3" stroke-miterlimit="10" stroke-linecap="round"/>
<path d="M1407 274.7L1440 292.6C1446 295.8 1453.2 295.8 1459.2 292.6L1492.2 274.7" stroke="#6DDAC0" stroke-width="3" stroke-miterlimit="10" stroke-linecap="round"/>
<path d="M1407 251.7L1440 269.6C1446 272.8 1453.2 272.8 1459.2 269.6L1492.2 251.7" stroke="#6DDAC0" stroke-width="3" stroke-miterlimit="10" stroke-linecap="round"/>
<path d="M1407 228.7L1440 246.6C1446 249.8 1453.2 249.8 1459.2 246.6L1492.2 228.7" stroke="#6DDAC0" stroke-width="3" stroke-miterlimit="10" stroke-linecap="round"/>
<path d="M1388.2 222L1355.2 204.1C1349.2 200.9 1342 200.9 1336 204.1L1303 222" stroke="#6DDAC0" stroke-width="3" stroke-miterlimit="10" stroke-linecap="round"/>
<path d="M1388.2 245L1355.2 227.1C1349.2 223.9 1342 223.9 1336 227.1L1303 245" stroke="#6DDAC0" stroke-width="3" stroke-miterlimit="10" stroke-linecap="round"/>
<path d="M1388.2 268L1355.2 250.1C1349.2 246.9 1342 246.9 1336 250.1L1303 268" stroke="#6DDAC0" stroke-width="3" stroke-miterlimit="10" stroke-linecap="round"/>
<path d="M1388.2 291L1355.2 273.1C1349.2 269.9 1342 269.9 1336 273.1L1303 291" stroke="#6DDAC0" stroke-width="3" stroke-miterlimit="10" stroke-linecap="round"/>
<path d="M1407 411.7L1440 429.6C1446 432.8 1453.2 432.8 1459.2 429.6L1492.2 411.7" stroke="#6DDAC0" stroke-width="3" stroke-miterlimit="10" stroke-linecap="round"/>
<path d="M1407 388.7L1440 406.6C1446 409.8 1453.2 409.8 1459.2 406.6L1492.2 388.7" stroke="#6DDAC0" stroke-width="3" stroke-miterlimit="10" stroke-linecap="round"/>
<path d="M1407 365.7L1440 383.6C1446 386.8 1453.2 386.8 1459.2 383.6L1492.2 365.7" stroke="#6DDAC0" stroke-width="3" stroke-miterlimit="10" stroke-linecap="round"/>
<path d="M1407 342.7L1440 360.6C1446 363.8 1453.2 363.8 1459.2 360.6L1492.2 342.7" stroke="#6DDAC0" stroke-width="3" stroke-miterlimit="10" stroke-linecap="round"/>
<path d="M1407 187.7L1440 205.6C1446 208.8 1453.2 208.8 1459.2 205.6L1492.2 187.7" stroke="#6DDAC0" stroke-width="3" stroke-miterlimit="10" stroke-linecap="round"/>
<path d="M1407 164.7L1440 182.6C1446 185.8 1453.2 185.8 1459.2 182.6L1492.2 164.7" stroke="#6DDAC0" stroke-width="3" stroke-miterlimit="10" stroke-linecap="round"/>
<path d="M1407 141.7L1440 159.6C1446 162.8 1453.2 162.8 1459.2 159.6L1492.2 141.7" stroke="#6DDAC0" stroke-width="3" stroke-miterlimit="10" stroke-linecap="round"/>
<path d="M1407 118.7L1440 136.6C1446 139.8 1453.2 139.8 1459.2 136.6L1492.2 118.7" stroke="#6DDAC0" stroke-width="3" stroke-miterlimit="10" stroke-linecap="round"/>
<path d="M1388.2 332L1355.2 314.1C1349.2 310.9 1342 310.9 1336 314.1L1303 332" stroke="#6DDAC0" stroke-width="3" stroke-miterlimit="10" stroke-linecap="round"/>
<path d="M1388.2 355L1355.2 337.1C1349.2 333.9 1342 333.9 1336 337.1L1303 355" stroke="#6DDAC0" stroke-width="3" stroke-miterlimit="10" stroke-linecap="round"/>
<path d="M1388.2 378L1355.2 360.1C1349.2 356.9 1342 356.9 1336 360.1L1303 378" stroke="#6DDAC0" stroke-width="3" stroke-miterlimit="10" stroke-linecap="round"/>
<path d="M1388.2 401L1355.2 383.1C1349.2 379.9 1342 379.9 1336 383.1L1303 401" stroke="#6DDAC0" stroke-width="3" stroke-miterlimit="10" stroke-linecap="round"/>
<path d="M1388.2 550L1355.2 532.1C1349.2 528.9 1342 528.9 1336 532.1L1303 550" stroke="#6DDAC0" stroke-width="3" stroke-miterlimit="10" stroke-linecap="round"/>
<path d="M1388.2 573L1355.2 555.1C1349.2 551.9 1342 551.9 1336 555.1L1303 573" stroke="#6DDAC0" stroke-width="3" stroke-miterlimit="10" stroke-linecap="round"/>
<path d="M1388.2 596L1355.2 578.1C1349.2 574.9 1342 574.9 1336 578.1L1303 596" stroke="#6DDAC0" stroke-width="3" stroke-miterlimit="10" stroke-linecap="round"/>
<path d="M1388.2 619L1355.2 601.1C1349.2 597.9 1342 597.9 1336 601.1L1303 619" stroke="#6DDAC0" stroke-width="3" stroke-miterlimit="10" stroke-linecap="round"/>
<path d="M1407 515.7L1440 533.6C1446 536.8 1453.2 536.8 1459.2 533.6L1492.2 515.7" stroke="#6DDAC0" stroke-width="3" stroke-miterlimit="10" stroke-linecap="round"/>
<path d="M1407 492.7L1440 510.6C1446 513.8 1453.2 513.8 1459.2 510.6L1492.2 492.7" stroke="#6DDAC0" stroke-width="3" stroke-miterlimit="10" stroke-linecap="round"/>
<path d="M1407 469.7L1440 487.6C1446 490.8 1453.2 490.8 1459.2 487.6L1492.2 469.7" stroke="#6DDAC0" stroke-width="3" stroke-miterlimit="10" stroke-linecap="round"/>
<path d="M1407 446.7L1440 464.6C1446 467.8 1453.2 467.8 1459.2 464.6L1492.2 446.7" stroke="#6DDAC0" stroke-width="3" stroke-miterlimit="10" stroke-linecap="round"/>
<defs>
<filter id="filter0_f" x="0.0117493" y="0.0122986" width="319.976" height="329.976" filterUnits="userSpaceOnUse" color-interpolation-filters="sRGB">
<feFlood flood-opacity="0" result="BackgroundImageFix"/>
<feBlend mode="normal" in="SourceGraphic" in2="BackgroundImageFix" result="shape"/>
<feGaussianBlur stdDeviation="36.9541" result="effect1_foregroundBlur"/>
</filter>
</defs>
</svg>
